<svg width="1025" height="453" viewBox="0 0 1025 453" fill="none" xmlns="http://www.w3.org/2000/svg">
<rect width="1025" height="453" rx="6" fill="white"/>
<path d="M0 4C0 1.79086 1.79086 0 4 0H1021C1023.21 0 1025 1.79086 1025 4V72H0V4Z" fill="white"/>
<path d="M29.688 42.126C28.764 42.126 27.936 41.976 27.204 41.676C26.472 41.376 25.884 40.932 25.44 40.344C25.008 39.756 24.78 39.048 24.756 38.22H28.032C28.08 38.688 28.242 39.048 28.518 39.3C28.794 39.54 29.154 39.66 29.598 39.66C30.054 39.66 30.414 39.558 30.678 39.354C30.942 39.138 31.074 38.844 31.074 38.472C31.074 38.16 30.966 37.902 30.75 37.698C30.546 37.494 30.288 37.326 29.976 37.194C29.676 37.062 29.244 36.912 28.68 36.744C27.864 36.492 27.198 36.24 26.682 35.988C26.166 35.736 25.722 35.364 25.35 34.872C24.978 34.38 24.792 33.738 24.792 32.946C24.792 31.77 25.218 30.852 26.07 30.192C26.922 29.52 28.032 29.184 29.4 29.184C30.792 29.184 31.914 29.52 32.766 30.192C33.618 30.852 34.074 31.776 34.134 32.964H30.804C30.78 32.556 30.63 32.238 30.354 32.01C30.078 31.77 29.724 31.65 29.292 31.65C28.92 31.65 28.62 31.752 28.392 31.956C28.164 32.148 28.05 32.43 28.05 32.802C28.05 33.21 28.242 33.528 28.626 33.756C29.01 33.984 29.61 34.23 30.426 34.494C31.242 34.77 31.902 35.034 32.406 35.286C32.922 35.538 33.366 35.904 33.738 36.384C34.11 36.864 34.296 37.482 34.296 38.238C34.296 38.958 34.11 39.612 33.738 40.2C33.378 40.788 32.85 41.256 32.154 41.604C31.458 41.952 30.636 42.126 29.688 42.126ZM35.7582 36.96C35.7582 35.928 35.9502 35.022 36.3342 34.242C36.7302 33.462 37.2642 32.862 37.9362 32.442C38.6082 32.022 39.3582 31.812 40.1862 31.812C40.8942 31.812 41.5122 31.956 42.0402 32.244C42.5802 32.532 42.9942 32.91 43.2822 33.378V31.956H46.3602V42H43.2822V40.578C42.9822 41.046 42.5622 41.424 42.0222 41.712C41.4942 42 40.8762 42.144 40.1682 42.144C39.3522 42.144 38.6082 41.934 37.9362 41.514C37.2642 41.082 36.7302 40.476 36.3342 39.696C35.9502 38.904 35.7582 37.992 35.7582 36.96ZM43.2822 36.978C43.2822 36.21 43.0662 35.604 42.6342 35.16C42.2142 34.716 41.6982 34.494 41.0862 34.494C40.4742 34.494 39.9522 34.716 39.5202 35.16C39.1002 35.592 38.8902 36.192 38.8902 36.96C38.8902 37.728 39.1002 38.34 39.5202 38.796C39.9522 39.24 40.4742 39.462 41.0862 39.462C41.6982 39.462 42.2142 39.24 42.6342 38.796C43.0662 38.352 43.2822 37.746 43.2822 36.978ZM51.845 28.68V42H48.767V28.68H51.845ZM63.7236 36.816C63.7236 37.104 63.7056 37.404 63.6696 37.716H56.7036C56.7516 38.34 56.9496 38.82 57.2976 39.156C57.6576 39.48 58.0956 39.642 58.6116 39.642C59.3796 39.642 59.9136 39.318 60.2136 38.67H63.4896C63.3216 39.33 63.0156 39.924 62.5716 40.452C62.1396 40.98 61.5936 41.394 60.9336 41.694C60.2736 41.994 59.5356 42.144 58.7196 42.144C57.7356 42.144 56.8596 41.934 56.0916 41.514C55.3236 41.094 54.7236 40.494 54.2916 39.714C53.8596 38.934 53.6436 38.022 53.6436 36.978C53.6436 35.934 53.8536 35.022 54.2736 34.242C54.7056 33.462 55.3056 32.862 56.0736 32.442C56.8416 32.022 57.7236 31.812 58.7196 31.812C59.6916 31.812 60.5556 32.016 61.3116 32.424C62.0676 32.832 62.6556 33.414 63.0756 34.17C63.5076 34.926 63.7236 35.808 63.7236 36.816ZM60.5736 36.006C60.5736 35.478 60.3936 35.058 60.0336 34.746C59.6736 34.434 59.2236 34.278 58.6836 34.278C58.1676 34.278 57.7296 34.428 57.3696 34.728C57.0216 35.028 56.8056 35.454 56.7216 36.006H60.5736ZM69.6134 42.144C68.7374 42.144 67.9574 41.994 67.2734 41.694C66.5894 41.394 66.0494 40.986 65.6534 40.47C65.2574 39.942 65.0354 39.354 64.9874 38.706H68.0294C68.0654 39.054 68.2274 39.336 68.5154 39.552C68.8034 39.768 69.1574 39.876 69.5774 39.876C69.9614 39.876 70.2554 39.804 70.4594 39.66C70.6754 39.504 70.7834 39.306 70.7834 39.066C70.7834 38.778 70.6334 38.568 70.3334 38.436C70.0334 38.292 69.5474 38.136 68.8754 37.968C68.1554 37.8 67.5554 37.626 67.0754 37.446C66.5954 37.254 66.1814 36.96 65.8334 36.564C65.4854 36.156 65.3114 35.61 65.3114 34.926C65.3114 34.35 65.4674 33.828 65.7794 33.36C66.1034 32.88 66.5714 32.502 67.1834 32.226C67.8074 31.95 68.5454 31.812 69.3974 31.812C70.6574 31.812 71.6474 32.124 72.3674 32.748C73.0994 33.372 73.5194 34.2 73.6274 35.232H70.7834C70.7354 34.884 70.5794 34.608 70.3154 34.404C70.0634 34.2 69.7274 34.098 69.3074 34.098C68.9474 34.098 68.6714 34.17 68.4794 34.314C68.2874 34.446 68.1914 34.632 68.1914 34.872C68.1914 35.16 68.3414 35.376 68.6414 35.52C68.9534 35.664 69.4334 35.808 70.0814 35.952C70.8254 36.144 71.4314 36.336 71.8994 36.528C72.3674 36.708 72.7754 37.008 73.1234 37.428C73.4834 37.836 73.6694 38.388 73.6814 39.084C73.6814 39.672 73.5134 40.2 73.1774 40.668C72.8534 41.124 72.3794 41.484 71.7554 41.748C71.1434 42.012 70.4294 42.144 69.6134 42.144ZM87.605 39.768H82.889L82.133 42H78.911L83.483 29.364H87.047L91.619 42H88.361L87.605 39.768ZM86.813 37.392L85.247 32.766L83.699 37.392H86.813ZM99.3105 31.848C100.486 31.848 101.422 32.232 102.118 33C102.826 33.756 103.18 34.8 103.18 36.132V42H100.12V36.546C100.12 35.874 99.9465 35.352 99.5985 34.98C99.2505 34.608 98.7825 34.422 98.1945 34.422C97.6065 34.422 97.1385 34.608 96.7905 34.98C96.4425 35.352 96.2685 35.874 96.2685 36.546V42H93.1905V31.956H96.2685V33.288C96.5805 32.844 97.0005 32.496 97.5285 32.244C98.0565 31.98 98.6505 31.848 99.3105 31.848ZM104.887 36.96C104.887 35.928 105.079 35.022 105.463 34.242C105.859 33.462 106.393 32.862 107.065 32.442C107.737 32.022 108.487 31.812 109.315 31.812C110.023 31.812 110.641 31.956 111.169 32.244C111.709 32.532 112.123 32.91 112.411 33.378V31.956H115.489V42H112.411V40.578C112.111 41.046 111.691 41.424 111.151 41.712C110.623 42 110.005 42.144 109.297 42.144C108.481 42.144 107.737 41.934 107.065 41.514C106.393 41.082 105.859 40.476 105.463 39.696C105.079 38.904 104.887 37.992 104.887 36.96ZM112.411 36.978C112.411 36.21 112.195 35.604 111.763 35.16C111.343 34.716 110.827 34.494 110.215 34.494C109.603 34.494 109.081 34.716 108.649 35.16C108.229 35.592 108.019 36.192 108.019 36.96C108.019 37.728 108.229 38.34 108.649 38.796C109.081 39.24 109.603 39.462 110.215 39.462C110.827 39.462 111.343 39.24 111.763 38.796C112.195 38.352 112.411 37.746 112.411 36.978ZM120.974 28.68V42H117.896V28.68H120.974ZM133.645 31.956L127.345 46.77H124.033L126.337 41.658L122.251 31.956H125.689L128.011 38.238L130.315 31.956H133.645ZM140.536 39.39V42H138.97C137.854 42 136.984 41.73 136.36 41.19C135.736 40.638 135.424 39.744 135.424 38.508V34.512H134.2V31.956H135.424V29.508H138.502V31.956H140.518V34.512H138.502V38.544C138.502 38.844 138.574 39.06 138.718 39.192C138.862 39.324 139.102 39.39 139.438 39.39H140.536ZM143.978 30.912C143.438 30.912 142.994 30.756 142.646 30.444C142.31 30.12 142.142 29.724 142.142 29.256C142.142 28.776 142.31 28.38 142.646 28.068C142.994 27.744 143.438 27.582 143.978 27.582C144.506 27.582 144.938 27.744 145.274 28.068C145.622 28.38 145.796 28.776 145.796 29.256C145.796 29.724 145.622 30.12 145.274 30.444C144.938 30.756 144.506 30.912 143.978 30.912ZM145.508 31.956V42H142.43V31.956H145.508ZM147.307 36.978C147.307 35.934 147.517 35.022 147.937 34.242C148.369 33.462 148.963 32.862 149.719 32.442C150.487 32.022 151.363 31.812 152.347 31.812C153.607 31.812 154.657 32.142 155.497 32.802C156.349 33.462 156.907 34.392 157.171 35.592H153.895C153.619 34.824 153.085 34.44 152.293 34.44C151.729 34.44 151.279 34.662 150.943 35.106C150.607 35.538 150.439 36.162 150.439 36.978C150.439 37.794 150.607 38.424 150.943 38.868C151.279 39.3 151.729 39.516 152.293 39.516C153.085 39.516 153.619 39.132 153.895 38.364H157.171C156.907 39.54 156.349 40.464 155.497 41.136C154.645 41.808 153.595 42.144 152.347 42.144C151.363 42.144 150.487 41.934 149.719 41.514C148.963 41.094 148.369 40.494 147.937 39.714C147.517 38.934 147.307 38.022 147.307 36.978ZM163.083 42.144C162.207 42.144 161.427 41.994 160.743 41.694C160.059 41.394 159.519 40.986 159.123 40.47C158.727 39.942 158.505 39.354 158.457 38.706H161.499C161.535 39.054 161.697 39.336 161.985 39.552C162.273 39.768 162.627 39.876 163.047 39.876C163.431 39.876 163.725 39.804 163.929 39.66C164.145 39.504 164.253 39.306 164.253 39.066C164.253 38.778 164.103 38.568 163.803 38.436C163.503 38.292 163.017 38.136 162.345 37.968C161.625 37.8 161.025 37.626 160.545 37.446C160.065 37.254 159.651 36.96 159.303 36.564C158.955 36.156 158.781 35.61 158.781 34.926C158.781 34.35 158.937 33.828 159.249 33.36C159.573 32.88 160.041 32.502 160.653 32.226C161.277 31.95 162.015 31.812 162.867 31.812C164.127 31.812 165.117 32.124 165.837 32.748C166.569 33.372 166.989 34.2 167.097 35.232H164.253C164.205 34.884 164.049 34.608 163.785 34.404C163.533 34.2 163.197 34.098 162.777 34.098C162.417 34.098 162.141 34.17 161.949 34.314C161.757 34.446 161.661 34.632 161.661 34.872C161.661 35.16 161.811 35.376 162.111 35.52C162.423 35.664 162.903 35.808 163.551 35.952C164.295 36.144 164.901 36.336 165.369 36.528C165.837 36.708 166.245 37.008 166.593 37.428C166.953 37.836 167.139 38.388 167.151 39.084C167.151 39.672 166.983 40.2 166.647 40.668C166.323 41.124 165.849 41.484 165.225 41.748C164.613 42.012 163.899 42.144 163.083 42.144Z" fill="#111827"/>
<rect x="961" y="16" width="40" height="40" rx="6" fill="white"/>
<path d="M974 36H974.01M981 36H981.01M988 36H988.01M975 36C975 36.2652 974.895 36.5196 974.707 36.7071C974.52 36.8946 974.265 37 974 37C973.735 37 973.48 36.8946 973.293 36.7071C973.105 36.5196 973 36.2652 973 36C973 35.7348 973.105 35.4804 973.293 35.2929C973.48 35.1054 973.735 35 974 35C974.265 35 974.52 35.1054 974.707 35.2929C974.895 35.4804 975 35.7348 975 36ZM982 36C982 36.2652 981.895 36.5196 981.707 36.7071C981.52 36.8946 981.265 37 981 37C980.735 37 980.48 36.8946 980.293 36.7071C980.105 36.5196 980 36.2652 980 36C980 35.7348 980.105 35.4804 980.293 35.2929C980.48 35.1054 980.735 35 981 35C981.265 35 981.52 35.1054 981.707 35.2929C981.895 35.4804 982 35.7348 982 36ZM989 36C989 36.2652 988.895 36.5196 988.707 36.7071C988.52 36.8946 988.265 37 988 37C987.735 37 987.48 36.8946 987.293 36.7071C987.105 36.5196 987 36.2652 987 36C987 35.7348 987.105 35.4804 987.293 35.2929C987.48 35.1054 987.735 35 988 35C988.265 35 988.52 35.1054 988.707 35.2929C988.895 35.4804 989 35.7348 989 36Z" stroke="#6B7280" stroke-width="2" stroke-linecap="round" stroke-linejoin="round"/>
<circle cx="62" cy="96" r="6" fill="#05B050"/>
<path d="M79.836 101.14C79.3693 101.14 78.9727 101.107 78.646 101.042C78.3193 100.977 78.0253 100.883 77.764 100.762C77.5027 100.641 77.218 100.501 76.91 100.342V99.25C77.2087 99.502 77.61 99.726 78.114 99.922C78.618 100.118 79.206 100.216 79.878 100.216C80.5873 100.216 81.1007 100.067 81.418 99.768C81.7447 99.46 81.908 99.0727 81.908 98.606C81.908 98.214 81.8007 97.9013 81.586 97.668C81.3713 97.4253 81.096 97.2293 80.76 97.08C80.424 96.9213 80.0693 96.772 79.696 96.632C79.3787 96.52 79.0613 96.4033 78.744 96.282C78.436 96.1513 78.156 95.9927 77.904 95.806C77.652 95.61 77.4513 95.3627 77.302 95.064C77.1527 94.756 77.078 94.3733 77.078 93.916C77.078 93.664 77.1247 93.398 77.218 93.118C77.3207 92.838 77.4793 92.5767 77.694 92.334C77.918 92.0913 78.212 91.8953 78.576 91.746C78.9493 91.5967 79.402 91.522 79.934 91.522C80.298 91.522 80.606 91.55 80.858 91.606C81.1193 91.6527 81.3667 91.7273 81.6 91.83C81.8333 91.9233 82.0947 92.04 82.384 92.18V93.216C82.1413 93.076 81.908 92.95 81.684 92.838C81.4693 92.7167 81.2267 92.6233 80.956 92.558C80.6947 92.4833 80.3727 92.446 79.99 92.446C79.5327 92.446 79.164 92.5113 78.884 92.642C78.6133 92.7727 78.4127 92.9453 78.282 93.16C78.1607 93.3747 78.1 93.6033 78.1 93.846C78.1 94.2287 78.184 94.532 78.352 94.756C78.5293 94.98 78.772 95.1667 79.08 95.316C79.3973 95.456 79.7613 95.596 80.172 95.736C80.4987 95.848 80.8253 95.974 81.152 96.114C81.4787 96.2447 81.7727 96.4127 82.034 96.618C82.3047 96.814 82.5193 97.066 82.678 97.374C82.846 97.6727 82.93 98.046 82.93 98.494C82.93 98.914 82.8367 99.3293 82.65 99.74C82.4633 100.141 82.146 100.477 81.698 100.748C81.25 101.009 80.6293 101.14 79.836 101.14ZM87.2936 101.21C86.9856 101.21 86.673 101.177 86.3556 101.112C86.0476 101.047 85.7583 100.935 85.4876 100.776C85.2263 100.617 85.0116 100.403 84.8436 100.132C84.685 99.852 84.6056 99.502 84.6056 99.082C84.6056 98.5033 84.713 98.0413 84.9276 97.696C85.1516 97.3413 85.455 97.0893 85.8376 96.94C86.2296 96.7813 86.6776 96.702 87.1816 96.702C87.5643 96.702 87.8956 96.7253 88.1756 96.772C88.4556 96.8187 88.703 96.8887 88.9176 96.982C89.1416 97.066 89.3423 97.164 89.5196 97.276L89.7156 98.2C89.501 98.0413 89.1883 97.906 88.7776 97.794C88.3763 97.6727 87.933 97.612 87.4476 97.612C86.8596 97.612 86.407 97.724 86.0896 97.948C85.7723 98.172 85.6136 98.4987 85.6136 98.928C85.6136 99.2733 85.707 99.5487 85.8936 99.754C86.0896 99.9593 86.3323 100.104 86.6216 100.188C86.9203 100.272 87.2236 100.314 87.5316 100.314C88.1383 100.314 88.5956 100.272 88.9036 100.188C89.221 100.095 89.3796 99.8893 89.3796 99.572V96.366C89.3796 95.8247 89.221 95.428 88.9036 95.176C88.5863 94.924 88.1336 94.798 87.5456 94.798C87.1723 94.798 86.7756 94.854 86.3556 94.966C85.945 95.0687 85.5903 95.2367 85.2916 95.47V94.462C85.581 94.2753 85.9683 94.1353 86.4536 94.042C86.939 93.9393 87.4103 93.888 87.8676 93.888C88.1756 93.888 88.4603 93.9207 88.7216 93.986C88.983 94.042 89.2163 94.1307 89.4216 94.252C89.627 94.364 89.7996 94.5133 89.9396 94.7C90.089 94.8773 90.201 95.0873 90.2756 95.33C90.3596 95.5633 90.4016 95.8293 90.4016 96.128V99.516C90.4016 100.011 90.2523 100.379 89.9536 100.622C89.6643 100.865 89.2816 101.023 88.8056 101.098C88.339 101.173 87.835 101.21 87.2936 101.21ZM93.6456 101H92.6376V91.354H93.6456V101ZM98.7755 101.21C98.1128 101.21 97.5388 101.075 97.0535 100.804C96.5682 100.524 96.1948 100.109 95.9335 99.558C95.6722 99.0073 95.5415 98.3213 95.5415 97.5C95.5415 96.296 95.8122 95.3953 96.3535 94.798C96.9042 94.1913 97.6555 93.888 98.6075 93.888C99.3542 93.888 99.9515 94.056 100.399 94.392C100.857 94.728 101.183 95.1807 101.379 95.75C101.575 96.3193 101.669 96.9633 101.659 97.682H96.0455L96.1155 96.758H101.001L100.609 96.898C100.581 96.198 100.404 95.6753 100.077 95.33C99.7602 94.9847 99.2702 94.812 98.6075 94.812C98.1502 94.812 97.7675 94.896 97.4595 95.064C97.1608 95.232 96.9368 95.526 96.7875 95.946C96.6382 96.3567 96.5635 96.9353 96.5635 97.682C96.5635 98.5313 96.7595 99.18 97.1515 99.628C97.5528 100.067 98.1128 100.286 98.8315 100.286C99.1768 100.286 99.4942 100.263 99.7835 100.216C100.073 100.16 100.339 100.085 100.581 99.992C100.824 99.8987 101.039 99.796 101.225 99.684V100.72C100.889 100.879 100.516 101 100.105 101.084C99.7042 101.168 99.2608 101.21 98.7755 101.21ZM105.522 101.21C105.018 101.21 104.593 101.159 104.248 101.056C103.912 100.953 103.562 100.809 103.198 100.622V99.558C103.487 99.7167 103.744 99.852 103.968 99.964C104.192 100.076 104.42 100.16 104.654 100.216C104.887 100.263 105.153 100.286 105.452 100.286C105.918 100.286 106.296 100.183 106.586 99.978C106.884 99.7727 107.034 99.5067 107.034 99.18C107.034 98.9187 106.959 98.718 106.81 98.578C106.67 98.438 106.488 98.3213 106.264 98.228C106.04 98.1347 105.806 98.0367 105.564 97.934C105.293 97.8593 105.018 97.78 104.738 97.696C104.467 97.6027 104.215 97.486 103.982 97.346C103.758 97.1967 103.576 97.01 103.436 96.786C103.296 96.5527 103.226 96.254 103.226 95.89C103.226 95.5353 103.296 95.232 103.436 94.98C103.585 94.728 103.776 94.5227 104.01 94.364C104.243 94.196 104.504 94.0747 104.794 94C105.083 93.9253 105.372 93.888 105.662 93.888C106.082 93.888 106.441 93.944 106.74 94.056C107.038 94.168 107.346 94.294 107.664 94.434V95.442C107.309 95.2553 106.992 95.106 106.712 94.994C106.432 94.8727 106.1 94.812 105.718 94.812C105.335 94.812 104.99 94.8913 104.682 95.05C104.383 95.1993 104.234 95.4327 104.234 95.75C104.234 96.0113 104.308 96.2213 104.458 96.38C104.616 96.5293 104.822 96.6507 105.074 96.744C105.326 96.828 105.596 96.912 105.886 96.996C106.119 97.0707 106.362 97.1547 106.614 97.248C106.866 97.332 107.099 97.4487 107.314 97.598C107.528 97.738 107.701 97.9247 107.832 98.158C107.972 98.3913 108.042 98.69 108.042 99.054C108.042 99.5487 107.916 99.9593 107.664 100.286C107.412 100.603 107.09 100.837 106.698 100.986C106.315 101.135 105.923 101.21 105.522 101.21Z" fill="black"/>
<circle cx="131" cy="96" r="6" fill="#CD4647"/>
<path d="M146.19 101V91.662H150.026C150.941 91.662 151.627 91.8907 152.084 92.348C152.551 92.8053 152.784 93.482 152.784 94.378C152.784 94.9193 152.672 95.4 152.448 95.82C152.224 96.24 151.911 96.5713 151.51 96.814C151.109 97.0567 150.637 97.178 150.096 97.178L150.516 96.898L153.204 101H152.014L149.242 96.716L149.746 97.234H147.198V101H146.19ZM147.198 96.282H149.564C150.339 96.282 150.899 96.128 151.244 95.82C151.599 95.5027 151.776 95.0453 151.776 94.448C151.776 93.888 151.645 93.4447 151.384 93.118C151.123 92.782 150.633 92.614 149.914 92.614H147.198V96.282ZM157.836 101.21C157.173 101.21 156.599 101.075 156.114 100.804C155.629 100.524 155.255 100.109 154.994 99.558C154.733 99.0073 154.602 98.3213 154.602 97.5C154.602 96.296 154.873 95.3953 155.414 94.798C155.965 94.1913 156.716 93.888 157.668 93.888C158.415 93.888 159.012 94.056 159.46 94.392C159.917 94.728 160.244 95.1807 160.44 95.75C160.636 96.3193 160.729 96.9633 160.72 97.682H155.106L155.176 96.758H160.062L159.67 96.898C159.642 96.198 159.465 95.6753 159.138 95.33C158.821 94.9847 158.331 94.812 157.668 94.812C157.211 94.812 156.828 94.896 156.52 95.064C156.221 95.232 155.997 95.526 155.848 95.946C155.699 96.3567 155.624 96.9353 155.624 97.682C155.624 98.5313 155.82 99.18 156.212 99.628C156.613 100.067 157.173 100.286 157.892 100.286C158.237 100.286 158.555 100.263 158.844 100.216C159.133 100.16 159.399 100.085 159.642 99.992C159.885 99.8987 160.099 99.796 160.286 99.684V100.72C159.95 100.879 159.577 101 159.166 101.084C158.765 101.168 158.321 101.21 157.836 101.21ZM164.44 101L161.486 94.014H162.564L165.14 100.132L164.916 100.188L167.422 94.014H168.43L165.462 101H164.44ZM172.438 101.21C171.775 101.21 171.201 101.075 170.716 100.804C170.23 100.524 169.857 100.109 169.596 99.558C169.334 99.0073 169.204 98.3213 169.204 97.5C169.204 96.296 169.474 95.3953 170.016 94.798C170.566 94.1913 171.318 93.888 172.27 93.888C173.016 93.888 173.614 94.056 174.062 94.392C174.519 94.728 174.846 95.1807 175.042 95.75C175.238 96.3193 175.331 96.9633 175.322 97.682H169.708L169.778 96.758H174.664L174.272 96.898C174.244 96.198 174.066 95.6753 173.74 95.33C173.422 94.9847 172.932 94.812 172.27 94.812C171.812 94.812 171.43 94.896 171.122 95.064C170.823 95.232 170.599 95.526 170.45 95.946C170.3 96.3567 170.226 96.9353 170.226 97.682C170.226 98.5313 170.422 99.18 170.814 99.628C171.215 100.067 171.775 100.286 172.494 100.286C172.839 100.286 173.156 100.263 173.446 100.216C173.735 100.16 174.001 100.085 174.244 99.992C174.486 99.8987 174.701 99.796 174.888 99.684V100.72C174.552 100.879 174.178 101 173.768 101.084C173.366 101.168 172.923 101.21 172.438 101.21ZM177.21 94.574C177.434 94.462 177.663 94.364 177.896 94.28C178.139 94.1867 178.381 94.112 178.624 94.056C178.876 94 179.128 93.958 179.38 93.93C179.641 93.902 179.903 93.888 180.164 93.888C180.845 93.888 181.387 93.9907 181.788 94.196C182.189 94.392 182.479 94.6813 182.656 95.064C182.843 95.4467 182.936 95.9087 182.936 96.45V101H181.928V96.45C181.928 96.282 181.905 96.1047 181.858 95.918C181.821 95.7313 181.741 95.554 181.62 95.386C181.499 95.2087 181.312 95.0687 181.06 94.966C180.808 94.854 180.472 94.798 180.052 94.798C179.763 94.798 179.464 94.8213 179.156 94.868C178.848 94.9147 178.535 94.9847 178.218 95.078V101H177.21V94.574ZM188.107 101.21C187.491 101.21 186.963 101.103 186.525 100.888C186.086 100.673 185.75 100.361 185.517 99.95C185.293 99.5393 185.181 99.0353 185.181 98.438V94.014H186.189V98.214C186.189 98.9233 186.343 99.446 186.651 99.782C186.968 100.109 187.453 100.272 188.107 100.272C188.76 100.272 189.241 100.109 189.549 99.782C189.866 99.446 190.025 98.9233 190.025 98.214V94.014H191.033V98.438C191.033 99.3247 190.776 100.011 190.263 100.496C189.759 100.972 189.04 101.21 188.107 101.21ZM196.158 101.21C195.496 101.21 194.922 101.075 194.436 100.804C193.951 100.524 193.578 100.109 193.316 99.558C193.055 99.0073 192.924 98.3213 192.924 97.5C192.924 96.296 193.195 95.3953 193.736 94.798C194.287 94.1913 195.038 93.888 195.99 93.888C196.737 93.888 197.334 94.056 197.782 94.392C198.24 94.728 198.566 95.1807 198.762 95.75C198.958 96.3193 199.052 96.9633 199.042 97.682H193.428L193.498 96.758H198.384L197.992 96.898C197.964 96.198 197.787 95.6753 197.46 95.33C197.143 94.9847 196.653 94.812 195.99 94.812C195.533 94.812 195.15 94.896 194.842 95.064C194.544 95.232 194.32 95.526 194.17 95.946C194.021 96.3567 193.946 96.9353 193.946 97.682C193.946 98.5313 194.142 99.18 194.534 99.628C194.936 100.067 195.496 100.286 196.214 100.286C196.56 100.286 196.877 100.263 197.166 100.216C197.456 100.16 197.722 100.085 197.964 99.992C198.207 99.8987 198.422 99.796 198.608 99.684V100.72C198.272 100.879 197.899 101 197.488 101.084C197.087 101.168 196.644 101.21 196.158 101.21Z" fill="black"/>
<path d="M66.124 426.096C65.812 426.096 65.524 426.06 65.26 425.988C64.996 425.908 64.756 425.804 64.54 425.676V424.776C64.74 424.912 64.96 425.028 65.2 425.124C65.448 425.212 65.72 425.256 66.016 425.256C66.56 425.256 66.952 425.124 67.192 424.86C67.432 424.588 67.552 424.148 67.552 423.54V417.996H68.416V423.612C68.416 424.124 68.344 424.544 68.2 424.872C68.064 425.192 67.884 425.444 67.66 425.628C67.436 425.804 67.188 425.928 66.916 426C66.652 426.064 66.388 426.096 66.124 426.096ZM72.9415 426.18C72.6775 426.18 72.4095 426.152 72.1375 426.096C71.8735 426.04 71.6255 425.944 71.3935 425.808C71.1695 425.672 70.9855 425.488 70.8415 425.256C70.7055 425.016 70.6375 424.716 70.6375 424.356C70.6375 423.86 70.7295 423.464 70.9135 423.168C71.1055 422.864 71.3655 422.648 71.6935 422.52C72.0295 422.384 72.4135 422.316 72.8455 422.316C73.1735 422.316 73.4575 422.336 73.6975 422.376C73.9375 422.416 74.1495 422.476 74.3335 422.556C74.5255 422.628 74.6975 422.712 74.8495 422.808L75.0175 423.6C74.8335 423.464 74.5655 423.348 74.2135 423.252C73.8695 423.148 73.4895 423.096 73.0735 423.096C72.5695 423.096 72.1815 423.192 71.9095 423.384C71.6375 423.576 71.5015 423.856 71.5015 424.224C71.5015 424.52 71.5815 424.756 71.7415 424.932C71.9095 425.108 72.1175 425.232 72.3655 425.304C72.6215 425.376 72.8815 425.412 73.1455 425.412C73.6655 425.412 74.0575 425.376 74.3215 425.304C74.5935 425.224 74.7295 425.048 74.7295 424.776V422.028C74.7295 421.564 74.5935 421.224 74.3215 421.008C74.0495 420.792 73.6615 420.684 73.1575 420.684C72.8375 420.684 72.4975 420.732 72.1375 420.828C71.7855 420.916 71.4815 421.06 71.2255 421.26V420.396C71.4735 420.236 71.8055 420.116 72.2215 420.036C72.6375 419.948 73.0415 419.904 73.4335 419.904C73.6975 419.904 73.9415 419.932 74.1655 419.988C74.3895 420.036 74.5895 420.112 74.7655 420.216C74.9415 420.312 75.0895 420.44 75.2095 420.6C75.3375 420.752 75.4335 420.932 75.4975 421.14C75.5695 421.34 75.6055 421.568 75.6055 421.824V424.728C75.6055 425.152 75.4775 425.468 75.2215 425.676C74.9735 425.884 74.6455 426.02 74.2375 426.084C73.8375 426.148 73.4055 426.18 72.9415 426.18ZM78.002 420.492C78.194 420.396 78.39 420.312 78.59 420.24C78.798 420.16 79.006 420.096 79.214 420.048C79.43 420 79.646 419.964 79.862 419.94C80.086 419.916 80.31 419.904 80.534 419.904C81.118 419.904 81.582 419.992 81.926 420.168C82.27 420.336 82.518 420.584 82.67 420.912C82.83 421.24 82.91 421.636 82.91 422.1V426H82.046V422.1C82.046 421.956 82.026 421.804 81.986 421.644C81.954 421.484 81.886 421.332 81.782 421.188C81.678 421.036 81.518 420.916 81.302 420.828C81.086 420.732 80.798 420.684 80.438 420.684C80.19 420.684 79.934 420.704 79.67 420.744C79.406 420.784 79.138 420.844 78.866 420.924V426H78.002V420.492Z" fill="#9CA3AF"/>
<path d="M145.292 426V417.996H150.2V418.812H146.156V421.572H149.708V422.412H146.156V426H145.292ZM154.349 426.18C153.781 426.18 153.289 426.064 152.873 425.832C152.457 425.592 152.137 425.236 151.913 424.764C151.689 424.292 151.577 423.704 151.577 423C151.577 421.968 151.809 421.196 152.273 420.684C152.745 420.164 153.389 419.904 154.205 419.904C154.845 419.904 155.357 420.048 155.741 420.336C156.133 420.624 156.413 421.012 156.581 421.5C156.749 421.988 156.829 422.54 156.821 423.156H152.009L152.069 422.364H156.257L155.921 422.484C155.897 421.884 155.745 421.436 155.465 421.14C155.193 420.844 154.773 420.696 154.205 420.696C153.813 420.696 153.485 420.768 153.221 420.912C152.965 421.056 152.773 421.308 152.645 421.668C152.517 422.02 152.453 422.516 152.453 423.156C152.453 423.884 152.621 424.44 152.957 424.824C153.301 425.2 153.781 425.388 154.397 425.388C154.693 425.388 154.965 425.368 155.213 425.328C155.461 425.28 155.689 425.216 155.897 425.136C156.105 425.056 156.289 424.968 156.449 424.872V425.76C156.161 425.896 155.841 426 155.489 426.072C155.145 426.144 154.765 426.18 154.349 426.18ZM161.283 426.18C160.971 426.18 160.671 426.16 160.383 426.12C160.103 426.088 159.851 426.028 159.627 425.94C159.411 425.844 159.239 425.72 159.111 425.568C158.983 425.416 158.919 425.22 158.919 424.98V417.48H159.783V420.696L159.483 420.396C159.643 420.316 159.835 420.24 160.059 420.168C160.291 420.096 160.527 420.036 160.767 419.988C161.007 419.94 161.215 419.916 161.391 419.916C162.319 419.916 163.007 420.188 163.455 420.732C163.903 421.268 164.127 422 164.127 422.928C164.127 423.616 164.035 424.176 163.851 424.608C163.667 425.032 163.431 425.36 163.143 425.592C162.863 425.816 162.559 425.968 162.231 426.048C161.903 426.136 161.587 426.18 161.283 426.18ZM161.199 425.388C161.767 425.388 162.195 425.272 162.483 425.04C162.771 424.808 162.963 424.508 163.059 424.14C163.163 423.764 163.215 423.36 163.215 422.928C163.215 422.488 163.151 422.104 163.023 421.776C162.903 421.44 162.711 421.18 162.447 420.996C162.183 420.804 161.831 420.708 161.391 420.708C161.143 420.708 160.875 420.744 160.587 420.816C160.299 420.88 160.031 420.984 159.783 421.128V424.776C159.783 424.952 159.859 425.084 160.011 425.172C160.171 425.26 160.359 425.32 160.575 425.352C160.799 425.376 161.007 425.388 161.199 425.388Z" fill="#9CA3AF"/>
<path d="M226.566 426V417.996H227.502L230.466 422.544L229.878 422.676L233.01 417.996H233.946V426H233.082V418.86H233.466L230.166 423.492L227.118 418.956L227.43 418.512V426H226.566ZM238.472 426.18C238.208 426.18 237.94 426.152 237.668 426.096C237.404 426.04 237.156 425.944 236.924 425.808C236.7 425.672 236.516 425.488 236.372 425.256C236.236 425.016 236.168 424.716 236.168 424.356C236.168 423.86 236.26 423.464 236.444 423.168C236.636 422.864 236.896 422.648 237.224 422.52C237.56 422.384 237.944 422.316 238.376 422.316C238.704 422.316 238.988 422.336 239.228 422.376C239.468 422.416 239.68 422.476 239.864 422.556C240.056 422.628 240.228 422.712 240.38 422.808L240.548 423.6C240.364 423.464 240.096 423.348 239.744 423.252C239.4 423.148 239.02 423.096 238.604 423.096C238.1 423.096 237.712 423.192 237.44 423.384C237.168 423.576 237.032 423.856 237.032 424.224C237.032 424.52 237.112 424.756 237.272 424.932C237.44 425.108 237.648 425.232 237.896 425.304C238.152 425.376 238.412 425.412 238.676 425.412C239.196 425.412 239.588 425.376 239.852 425.304C240.124 425.224 240.26 425.048 240.26 424.776V422.028C240.26 421.564 240.124 421.224 239.852 421.008C239.58 420.792 239.192 420.684 238.688 420.684C238.368 420.684 238.028 420.732 237.668 420.828C237.316 420.916 237.012 421.06 236.756 421.26V420.396C237.004 420.236 237.336 420.116 237.752 420.036C238.168 419.948 238.572 419.904 238.964 419.904C239.228 419.904 239.472 419.932 239.696 419.988C239.92 420.036 240.12 420.112 240.296 420.216C240.472 420.312 240.62 420.44 240.74 420.6C240.868 420.752 240.964 420.932 241.028 421.14C241.1 421.34 241.136 421.568 241.136 421.824V424.728C241.136 425.152 241.008 425.468 240.752 425.676C240.504 425.884 240.176 426.02 239.768 426.084C239.368 426.148 238.936 426.18 238.472 426.18ZM243.532 426V420.492C243.628 420.452 243.812 420.384 244.084 420.288C244.364 420.192 244.696 420.104 245.08 420.024C245.472 419.944 245.876 419.904 246.292 419.904C246.356 419.904 246.42 419.912 246.484 419.928C246.548 419.944 246.612 419.96 246.676 419.976V420.744C246.468 420.72 246.264 420.708 246.064 420.708C245.872 420.708 245.684 420.72 245.5 420.744C245.316 420.76 245.132 420.784 244.948 420.816C244.764 420.848 244.58 420.88 244.396 420.912V426H243.532Z" fill="#9CA3AF"/>
<path d="M308.058 426L311.25 417.996H312.114L315.294 426H314.37L311.598 418.8L311.778 418.776L308.994 426H308.058ZM309.462 423.504L309.834 422.676H313.758L313.818 423.504H309.462ZM319.321 426.168C319.145 426.168 318.945 426.144 318.721 426.096C318.505 426.048 318.293 425.988 318.085 425.916C317.877 425.844 317.693 425.768 317.533 425.688L317.833 425.388V428.604H316.969V421.092C316.969 420.844 317.045 420.644 317.197 420.492C317.357 420.34 317.561 420.224 317.809 420.144C318.057 420.056 318.321 419.996 318.601 419.964C318.881 419.924 319.145 419.904 319.393 419.904C319.873 419.904 320.325 420.004 320.749 420.204C321.173 420.404 321.517 420.744 321.781 421.224C322.045 421.696 322.177 422.34 322.177 423.156C322.177 423.772 322.065 424.308 321.841 424.764C321.625 425.212 321.305 425.56 320.881 425.808C320.457 426.048 319.937 426.168 319.321 426.168ZM319.321 425.376C319.761 425.376 320.121 425.284 320.401 425.1C320.689 424.908 320.905 424.644 321.049 424.308C321.193 423.972 321.265 423.588 321.265 423.156C321.265 422.724 321.217 422.32 321.121 421.944C321.025 421.568 320.841 421.268 320.569 421.044C320.297 420.812 319.901 420.696 319.381 420.696C318.965 420.696 318.601 420.744 318.289 420.84C317.985 420.936 317.833 421.072 317.833 421.248V424.956C318.081 425.1 318.329 425.208 318.577 425.28C318.825 425.344 319.073 425.376 319.321 425.376ZM324.281 426V420.492C324.377 420.452 324.561 420.384 324.833 420.288C325.113 420.192 325.445 420.104 325.829 420.024C326.221 419.944 326.625 419.904 327.041 419.904C327.105 419.904 327.169 419.912 327.233 419.928C327.297 419.944 327.361 419.96 327.425 419.976V420.744C327.217 420.72 327.013 420.708 326.813 420.708C326.621 420.708 326.433 420.72 326.249 420.744C326.065 420.76 325.881 420.784 325.697 420.816C325.513 420.848 325.329 420.88 325.145 420.912V426H324.281Z" fill="#9CA3AF"/>
<path d="M390.111 426V417.996H391.047L394.011 422.544L393.423 422.676L396.555 417.996H397.491V426H396.627V418.86H397.011L393.711 423.492L390.663 418.956L390.975 418.512V426H390.111ZM402.017 426.18C401.753 426.18 401.485 426.152 401.213 426.096C400.949 426.04 400.701 425.944 400.469 425.808C400.245 425.672 400.061 425.488 399.917 425.256C399.781 425.016 399.713 424.716 399.713 424.356C399.713 423.86 399.805 423.464 399.989 423.168C400.181 422.864 400.441 422.648 400.769 422.52C401.105 422.384 401.489 422.316 401.921 422.316C402.249 422.316 402.533 422.336 402.773 422.376C403.013 422.416 403.225 422.476 403.409 422.556C403.601 422.628 403.773 422.712 403.925 422.808L404.093 423.6C403.909 423.464 403.641 423.348 403.289 423.252C402.945 423.148 402.565 423.096 402.149 423.096C401.645 423.096 401.257 423.192 400.985 423.384C400.713 423.576 400.577 423.856 400.577 424.224C400.577 424.52 400.657 424.756 400.817 424.932C400.985 425.108 401.193 425.232 401.441 425.304C401.697 425.376 401.957 425.412 402.221 425.412C402.741 425.412 403.133 425.376 403.397 425.304C403.669 425.224 403.805 425.048 403.805 424.776V422.028C403.805 421.564 403.669 421.224 403.397 421.008C403.125 420.792 402.737 420.684 402.233 420.684C401.913 420.684 401.573 420.732 401.213 420.828C400.861 420.916 400.557 421.06 400.301 421.26V420.396C400.549 420.236 400.881 420.116 401.297 420.036C401.713 419.948 402.117 419.904 402.509 419.904C402.773 419.904 403.017 419.932 403.241 419.988C403.465 420.036 403.665 420.112 403.841 420.216C404.017 420.312 404.165 420.44 404.285 420.6C404.413 420.752 404.509 420.932 404.573 421.14C404.645 421.34 404.681 421.568 404.681 421.824V424.728C404.681 425.152 404.553 425.468 404.297 425.676C404.049 425.884 403.721 426.02 403.313 426.084C402.913 426.148 402.481 426.18 402.017 426.18ZM407.491 428.316C407.371 428.316 407.263 428.304 407.167 428.28C407.071 428.256 406.991 428.232 406.927 428.208V427.416C406.983 427.44 407.055 427.464 407.143 427.488C407.231 427.512 407.331 427.524 407.443 427.524C407.715 427.524 407.935 427.448 408.103 427.296C408.271 427.144 408.411 426.94 408.523 426.684C408.643 426.428 408.751 426.144 408.847 425.832V426.18L406.303 420.012H407.287L409.279 425.124H409.099L411.079 420.012H411.943L409.375 426.588C409.191 427.06 408.987 427.42 408.763 427.668C408.547 427.916 408.327 428.084 408.103 428.172C407.887 428.268 407.683 428.316 407.491 428.316Z" fill="#9CA3AF"/>
<path d="M475.487 426.096C475.175 426.096 474.887 426.06 474.623 425.988C474.359 425.908 474.119 425.804 473.903 425.676V424.776C474.103 424.912 474.323 425.028 474.563 425.124C474.811 425.212 475.083 425.256 475.379 425.256C475.923 425.256 476.315 425.124 476.555 424.86C476.795 424.588 476.915 424.148 476.915 423.54V417.996H477.779V423.612C477.779 424.124 477.707 424.544 477.563 424.872C477.427 425.192 477.247 425.444 477.023 425.628C476.799 425.804 476.551 425.928 476.279 426C476.015 426.064 475.751 426.096 475.487 426.096ZM482.749 426.18C482.221 426.18 481.769 426.088 481.393 425.904C481.017 425.72 480.729 425.452 480.529 425.1C480.337 424.748 480.241 424.316 480.241 423.804V420.012H481.105V423.612C481.105 424.22 481.237 424.668 481.501 424.956C481.773 425.236 482.189 425.376 482.749 425.376C483.309 425.376 483.721 425.236 483.985 424.956C484.257 424.668 484.393 424.22 484.393 423.612V420.012H485.257V423.804C485.257 424.564 485.037 425.152 484.597 425.568C484.165 425.976 483.549 426.18 482.749 426.18ZM487.658 420.492C487.85 420.396 488.046 420.312 488.246 420.24C488.454 420.16 488.662 420.096 488.87 420.048C489.086 420 489.302 419.964 489.518 419.94C489.742 419.916 489.966 419.904 490.19 419.904C490.774 419.904 491.238 419.992 491.582 420.168C491.926 420.336 492.174 420.584 492.326 420.912C492.486 421.24 492.566 421.636 492.566 422.1V426H491.702V422.1C491.702 421.956 491.682 421.804 491.642 421.644C491.61 421.484 491.542 421.332 491.438 421.188C491.334 421.036 491.174 420.916 490.958 420.828C490.742 420.732 490.454 420.684 490.094 420.684C489.846 420.684 489.59 420.704 489.326 420.744C489.062 420.784 488.794 420.844 488.522 420.924V426H487.658V420.492Z" fill="#9CA3AF"/>
<path d="M556.761 426.096C556.449 426.096 556.161 426.06 555.897 425.988C555.633 425.908 555.393 425.804 555.177 425.676V424.776C555.377 424.912 555.597 425.028 555.837 425.124C556.085 425.212 556.357 425.256 556.653 425.256C557.197 425.256 557.589 425.124 557.829 424.86C558.069 424.588 558.189 424.148 558.189 423.54V417.996H559.053V423.612C559.053 424.124 558.981 424.544 558.837 424.872C558.701 425.192 558.521 425.444 558.297 425.628C558.073 425.804 557.825 425.928 557.553 426C557.289 426.064 557.025 426.096 556.761 426.096ZM564.022 426.18C563.494 426.18 563.042 426.088 562.666 425.904C562.29 425.72 562.002 425.452 561.802 425.1C561.61 424.748 561.514 424.316 561.514 423.804V420.012H562.378V423.612C562.378 424.22 562.51 424.668 562.774 424.956C563.046 425.236 563.462 425.376 564.022 425.376C564.582 425.376 564.994 425.236 565.258 424.956C565.53 424.668 565.666 424.22 565.666 423.612V420.012H566.53V423.804C566.53 424.564 566.31 425.152 565.87 425.568C565.438 425.976 564.822 426.18 564.022 426.18ZM569.796 426H568.932V417.732H569.796V426Z" fill="#9CA3AF"/>
<path d="M632.149 426L635.341 417.996H636.205L639.385 426H638.461L635.689 418.8L635.869 418.776L633.085 426H632.149ZM633.553 423.504L633.925 422.676H637.849L637.909 423.504H633.553ZM643.568 426.18C643.04 426.18 642.588 426.088 642.212 425.904C641.836 425.72 641.548 425.452 641.348 425.1C641.156 424.748 641.06 424.316 641.06 423.804V420.012H641.924V423.612C641.924 424.22 642.056 424.668 642.32 424.956C642.592 425.236 643.008 425.376 643.568 425.376C644.128 425.376 644.54 425.236 644.804 424.956C645.076 424.668 645.212 424.22 645.212 423.612V420.012H646.076V423.804C646.076 424.564 645.856 425.152 645.416 425.568C644.984 425.976 644.368 426.18 643.568 426.18ZM650.914 426.18C650.298 426.18 649.786 426.06 649.378 425.82C648.978 425.572 648.678 425.224 648.478 424.776C648.278 424.32 648.178 423.784 648.178 423.168C648.178 422.48 648.27 421.924 648.454 421.5C648.638 421.068 648.874 420.74 649.162 420.516C649.458 420.284 649.778 420.128 650.122 420.048C650.474 419.96 650.814 419.916 651.142 419.916C651.518 419.916 651.874 419.968 652.21 420.072C652.554 420.168 652.834 420.324 653.05 420.54C653.274 420.756 653.386 421.044 653.386 421.404V426.252C653.386 426.492 653.35 426.736 653.278 426.984C653.206 427.232 653.074 427.46 652.882 427.668C652.698 427.884 652.434 428.056 652.09 428.184C651.754 428.312 651.318 428.376 650.782 428.376C650.438 428.376 650.122 428.344 649.834 428.28C649.546 428.216 649.294 428.156 649.078 428.1V427.284C649.206 427.316 649.35 427.352 649.51 427.392C649.678 427.44 649.858 427.48 650.05 427.512C650.25 427.544 650.462 427.56 650.686 427.56C651.23 427.56 651.63 427.492 651.886 427.356C652.15 427.228 652.322 427.064 652.402 426.864C652.482 426.672 652.522 426.476 652.522 426.276V425.4L652.822 425.7C652.67 425.78 652.478 425.856 652.246 425.928C652.014 426 651.778 426.06 651.538 426.108C651.298 426.156 651.09 426.18 650.914 426.18ZM650.914 425.388C651.17 425.388 651.438 425.356 651.718 425.292C652.006 425.22 652.274 425.112 652.522 424.968V421.524C652.522 421.3 652.458 421.132 652.33 421.02C652.21 420.9 652.046 420.82 651.838 420.78C651.63 420.732 651.406 420.708 651.166 420.708C650.582 420.708 650.142 420.824 649.846 421.056C649.55 421.28 649.35 421.58 649.246 421.956C649.142 422.332 649.09 422.736 649.09 423.168C649.09 423.824 649.23 424.36 649.51 424.776C649.79 425.184 650.258 425.388 650.914 425.388Z" fill="#9CA3AF"/>
<path d="M718.47 426.12C718.07 426.12 717.73 426.092 717.45 426.036C717.17 425.98 716.918 425.9 716.694 425.796C716.47 425.692 716.226 425.572 715.962 425.436V424.5C716.218 424.716 716.562 424.908 716.994 425.076C717.426 425.244 717.93 425.328 718.506 425.328C719.114 425.328 719.554 425.2 719.826 424.944C720.106 424.68 720.246 424.348 720.246 423.948C720.246 423.612 720.154 423.344 719.97 423.144C719.786 422.936 719.55 422.768 719.262 422.64C718.974 422.504 718.67 422.376 718.35 422.256C718.078 422.16 717.806 422.06 717.534 421.956C717.27 421.844 717.03 421.708 716.814 421.548C716.598 421.38 716.426 421.168 716.298 420.912C716.17 420.648 716.106 420.32 716.106 419.928C716.106 419.712 716.146 419.484 716.226 419.244C716.314 419.004 716.45 418.78 716.634 418.572C716.826 418.364 717.078 418.196 717.39 418.068C717.71 417.94 718.098 417.876 718.554 417.876C718.866 417.876 719.13 417.9 719.346 417.948C719.57 417.988 719.782 418.052 719.982 418.14C720.182 418.22 720.406 418.32 720.654 418.44V419.328C720.446 419.208 720.246 419.1 720.054 419.004C719.87 418.9 719.662 418.82 719.43 418.764C719.206 418.7 718.93 418.668 718.602 418.668C718.21 418.668 717.894 418.724 717.654 418.836C717.422 418.948 717.25 419.096 717.138 419.28C717.034 419.464 716.982 419.66 716.982 419.868C716.982 420.196 717.054 420.456 717.198 420.648C717.35 420.84 717.558 421 717.822 421.128C718.094 421.248 718.406 421.368 718.758 421.488C719.038 421.584 719.318 421.692 719.598 421.812C719.878 421.924 720.13 422.068 720.354 422.244C720.586 422.412 720.77 422.628 720.906 422.892C721.05 423.148 721.122 423.468 721.122 423.852C721.122 424.212 721.042 424.568 720.882 424.92C720.722 425.264 720.45 425.552 720.066 425.784C719.682 426.008 719.15 426.12 718.47 426.12ZM725.75 426.18C725.182 426.18 724.69 426.064 724.274 425.832C723.858 425.592 723.538 425.236 723.314 424.764C723.09 424.292 722.978 423.704 722.978 423C722.978 421.968 723.21 421.196 723.674 420.684C724.146 420.164 724.79 419.904 725.606 419.904C726.246 419.904 726.758 420.048 727.142 420.336C727.534 420.624 727.814 421.012 727.982 421.5C728.15 421.988 728.23 422.54 728.222 423.156H723.41L723.47 422.364H727.658L727.322 422.484C727.298 421.884 727.146 421.436 726.866 421.14C726.594 420.844 726.174 420.696 725.606 420.696C725.214 420.696 724.886 420.768 724.622 420.912C724.366 421.056 724.174 421.308 724.046 421.668C723.918 422.02 723.854 422.516 723.854 423.156C723.854 423.884 724.022 424.44 724.358 424.824C724.702 425.2 725.182 425.388 725.798 425.388C726.094 425.388 726.366 425.368 726.614 425.328C726.862 425.28 727.09 425.216 727.298 425.136C727.506 425.056 727.69 424.968 727.85 424.872V425.76C727.562 425.896 727.242 426 726.89 426.072C726.546 426.144 726.166 426.18 725.75 426.18ZM732.672 426.168C732.496 426.168 732.296 426.144 732.072 426.096C731.856 426.048 731.644 425.988 731.436 425.916C731.228 425.844 731.044 425.768 730.884 425.688L731.184 425.388V428.604H730.32V421.092C730.32 420.844 730.396 420.644 730.548 420.492C730.708 420.34 730.912 420.224 731.16 420.144C731.408 420.056 731.672 419.996 731.952 419.964C732.232 419.924 732.496 419.904 732.744 419.904C733.224 419.904 733.676 420.004 734.1 420.204C734.524 420.404 734.868 420.744 735.132 421.224C735.396 421.696 735.528 422.34 735.528 423.156C735.528 423.772 735.416 424.308 735.192 424.764C734.976 425.212 734.656 425.56 734.232 425.808C733.808 426.048 733.288 426.168 732.672 426.168ZM732.672 425.376C733.112 425.376 733.472 425.284 733.752 425.1C734.04 424.908 734.256 424.644 734.4 424.308C734.544 423.972 734.616 423.588 734.616 423.156C734.616 422.724 734.568 422.32 734.472 421.944C734.376 421.568 734.192 421.268 733.92 421.044C733.648 420.812 733.252 420.696 732.732 420.696C732.316 420.696 731.952 420.744 731.64 420.84C731.336 420.936 731.184 421.072 731.184 421.248V424.956C731.432 425.1 731.68 425.208 731.928 425.28C732.176 425.344 732.424 425.376 732.672 425.376Z" fill="#9CA3AF"/>
<path d="M801.762 426.12C800.97 426.12 800.306 425.968 799.77 425.664C799.242 425.352 798.842 424.892 798.57 424.284C798.306 423.676 798.174 422.916 798.174 422.004C798.174 420.644 798.474 419.62 799.074 418.932C799.682 418.236 800.578 417.888 801.762 417.888C802.562 417.888 803.226 418.044 803.754 418.356C804.29 418.66 804.69 419.116 804.954 419.724C805.226 420.332 805.362 421.092 805.362 422.004C805.362 423.364 805.058 424.392 804.45 425.088C803.85 425.776 802.954 426.12 801.762 426.12ZM801.762 425.304C802.394 425.304 802.91 425.188 803.31 424.956C803.71 424.724 804.002 424.364 804.186 423.876C804.378 423.388 804.474 422.764 804.474 422.004C804.474 421.244 804.378 420.624 804.186 420.144C804.002 419.656 803.71 419.296 803.31 419.064C802.91 418.824 802.394 418.704 801.762 418.704C801.138 418.704 800.626 418.824 800.226 419.064C799.826 419.296 799.53 419.656 799.338 420.144C799.154 420.624 799.062 421.244 799.062 422.004C799.062 422.764 799.154 423.388 799.338 423.876C799.53 424.364 799.826 424.724 800.226 424.956C800.626 425.188 801.138 425.304 801.762 425.304ZM810.027 426.096C809.707 426.096 809.379 426.056 809.043 425.976C808.715 425.888 808.411 425.736 808.131 425.52C807.859 425.296 807.639 424.98 807.471 424.572C807.303 424.164 807.219 423.64 807.219 423C807.219 422.36 807.303 421.84 807.471 421.44C807.639 421.032 807.859 420.716 808.131 420.492C808.411 420.268 808.715 420.116 809.043 420.036C809.379 419.948 809.707 419.904 810.027 419.904C810.331 419.904 810.631 419.932 810.927 419.988C811.231 420.044 811.523 420.128 811.803 420.24V421.068C811.539 420.956 811.267 420.872 810.987 420.816C810.707 420.76 810.419 420.732 810.123 420.732C809.411 420.732 808.891 420.912 808.563 421.272C808.243 421.632 808.083 422.208 808.083 423C808.083 423.8 808.243 424.38 808.563 424.74C808.891 425.092 809.411 425.268 810.123 425.268C810.419 425.268 810.707 425.24 810.987 425.184C811.267 425.128 811.539 425.044 811.803 424.932V425.772C811.523 425.876 811.231 425.956 810.927 426.012C810.631 426.068 810.331 426.096 810.027 426.096ZM815.789 426.096C815.365 426.096 815.009 425.968 814.721 425.712C814.433 425.448 814.289 425.06 814.289 424.548V420.804H813.245V420.012H814.289V418.32H815.153V420.012H816.701V420.804H815.153V424.272C815.153 424.608 815.205 424.86 815.309 425.028C815.413 425.196 815.625 425.28 815.945 425.28C816.089 425.28 816.229 425.268 816.365 425.244C816.501 425.212 816.613 425.176 816.701 425.136V425.952C816.589 425.992 816.445 426.024 816.269 426.048C816.101 426.08 815.941 426.096 815.789 426.096Z" fill="#9CA3AF"/>
<path d="M878.748 426V417.996H879.732L884.724 425.04L884.508 425.376V417.996H885.372V426H884.4L879.216 418.692L879.612 418.32V426H878.748ZM890.288 426.18C889.352 426.18 888.656 425.904 888.2 425.352C887.752 424.792 887.528 424.016 887.528 423.024C887.528 421.984 887.764 421.204 888.236 420.684C888.716 420.164 889.392 419.904 890.264 419.904C890.912 419.904 891.44 420.036 891.848 420.3C892.256 420.556 892.556 420.92 892.748 421.392C892.94 421.856 893.036 422.4 893.036 423.024C893.036 424.008 892.796 424.78 892.316 425.34C891.844 425.9 891.168 426.18 890.288 426.18ZM890.276 425.388C890.764 425.388 891.144 425.284 891.416 425.076C891.688 424.86 891.88 424.576 891.992 424.224C892.112 423.864 892.172 423.464 892.172 423.024C892.172 422.552 892.112 422.144 891.992 421.8C891.872 421.448 891.672 421.176 891.392 420.984C891.12 420.792 890.748 420.696 890.276 420.696C889.796 420.696 889.42 420.8 889.148 421.008C888.876 421.216 888.68 421.496 888.56 421.848C888.448 422.192 888.392 422.584 888.392 423.024C888.392 423.728 888.532 424.3 888.812 424.74C889.092 425.172 889.58 425.388 890.276 425.388ZM896.71 426L894.178 420.012H895.102L897.31 425.256L897.118 425.304L899.266 420.012H900.13L897.586 426H896.71Z" fill="#9CA3AF"/>
<path d="M962.02 426V417.996H964.528C965.776 417.996 966.712 418.332 967.336 419.004C967.968 419.668 968.284 420.664 968.284 421.992C968.284 423.32 967.968 424.32 967.336 424.992C966.712 425.664 965.776 426 964.528 426H962.02ZM962.884 425.184H964.468C965.492 425.184 966.236 424.928 966.7 424.416C967.164 423.904 967.396 423.096 967.396 421.992C967.396 420.888 967.164 420.08 966.7 419.568C966.236 419.056 965.492 418.8 964.468 418.8H962.884V425.184ZM972.916 426.18C972.348 426.18 971.856 426.064 971.44 425.832C971.024 425.592 970.704 425.236 970.48 424.764C970.256 424.292 970.144 423.704 970.144 423C970.144 421.968 970.376 421.196 970.84 420.684C971.312 420.164 971.956 419.904 972.772 419.904C973.412 419.904 973.924 420.048 974.308 420.336C974.7 420.624 974.98 421.012 975.148 421.5C975.316 421.988 975.396 422.54 975.388 423.156H970.576L970.636 422.364H974.824L974.488 422.484C974.464 421.884 974.312 421.436 974.032 421.14C973.76 420.844 973.34 420.696 972.772 420.696C972.38 420.696 972.052 420.768 971.788 420.912C971.532 421.056 971.34 421.308 971.212 421.668C971.084 422.02 971.02 422.516 971.02 423.156C971.02 423.884 971.188 424.44 971.524 424.824C971.868 425.2 972.348 425.388 972.964 425.388C973.26 425.388 973.532 425.368 973.78 425.328C974.028 425.28 974.256 425.216 974.464 425.136C974.672 425.056 974.856 424.968 975.016 424.872V425.76C974.728 425.896 974.408 426 974.056 426.072C973.712 426.144 973.332 426.18 972.916 426.18ZM979.994 426.096C979.674 426.096 979.346 426.056 979.01 425.976C978.682 425.888 978.378 425.736 978.098 425.52C977.826 425.296 977.606 424.98 977.438 424.572C977.27 424.164 977.186 423.64 977.186 423C977.186 422.36 977.27 421.84 977.438 421.44C977.606 421.032 977.826 420.716 978.098 420.492C978.378 420.268 978.682 420.116 979.01 420.036C979.346 419.948 979.674 419.904 979.994 419.904C980.298 419.904 980.598 419.932 980.894 419.988C981.198 420.044 981.49 420.128 981.77 420.24V421.068C981.506 420.956 981.234 420.872 980.954 420.816C980.674 420.76 980.386 420.732 980.09 420.732C979.378 420.732 978.858 420.912 978.53 421.272C978.21 421.632 978.05 422.208 978.05 423C978.05 423.8 978.21 424.38 978.53 424.74C978.858 425.092 979.378 425.268 980.09 425.268C980.386 425.268 980.674 425.24 980.954 425.184C981.234 425.128 981.506 425.044 981.77 424.932V425.772C981.49 425.876 981.198 425.956 980.894 426.012C980.598 426.068 980.298 426.096 979.994 426.096Z" fill="#9CA3AF"/>
<path d="M31.4658 125V117.896L29.8698 118.952V117.932L31.3458 116.996H32.3298V125H31.4658ZM35.4519 125V124.244C35.7239 124.044 36.0359 123.796 36.3879 123.5C36.7479 123.204 37.1079 122.88 37.4679 122.528C37.8359 122.168 38.1719 121.796 38.4759 121.412C38.7879 121.02 39.0399 120.632 39.2319 120.248C39.4239 119.864 39.5199 119.496 39.5199 119.144C39.5199 118.928 39.4719 118.716 39.3759 118.508C39.2799 118.292 39.0959 118.112 38.8239 117.968C38.5519 117.824 38.1559 117.752 37.6359 117.752C37.1559 117.752 36.7359 117.832 36.3759 117.992C36.0239 118.152 35.7439 118.304 35.5359 118.448V117.5C35.7919 117.34 36.0999 117.2 36.4599 117.08C36.8279 116.952 37.2439 116.888 37.7079 116.888C38.3639 116.888 38.8879 117 39.2799 117.224C39.6719 117.448 39.9519 117.732 40.1199 118.076C40.2959 118.42 40.3839 118.776 40.3839 119.144C40.3839 119.504 40.2919 119.88 40.1079 120.272C39.9319 120.664 39.6959 121.056 39.3999 121.448C39.1119 121.84 38.7919 122.22 38.4399 122.588C38.0879 122.956 37.7359 123.3 37.3839 123.62C37.0319 123.932 36.7119 124.204 36.4239 124.436L36.1719 124.136H40.5039V125H35.4519ZM45.5085 125.096C44.9725 125.096 44.5165 125.048 44.1405 124.952C43.7725 124.848 43.4645 124.732 43.2165 124.604V123.704C43.3285 123.768 43.4805 123.844 43.6725 123.932C43.8725 124.02 44.1205 124.096 44.4165 124.16C44.7125 124.224 45.0565 124.256 45.4485 124.256C45.8565 124.256 46.1765 124.204 46.4085 124.1C46.6485 123.988 46.8245 123.848 46.9365 123.68C47.0485 123.504 47.1205 123.32 47.1525 123.128C47.1845 122.928 47.2005 122.736 47.2005 122.552C47.2005 122.048 47.1125 121.68 46.9365 121.448C46.7685 121.208 46.5485 121.052 46.2765 120.98C46.0125 120.908 45.7365 120.872 45.4485 120.872C45.0245 120.872 44.6725 120.904 44.3925 120.968C44.1125 121.024 43.9045 121.084 43.7685 121.148C43.6325 121.212 43.5645 121.244 43.5645 121.244L43.0245 120.692L43.4325 116.996H47.5485V117.848H44.1765L43.9485 120.428L43.0965 120.572C43.4005 120.388 43.7685 120.248 44.2005 120.152C44.6325 120.056 45.0685 120.008 45.5085 120.008C45.7965 120.008 46.0885 120.044 46.3845 120.116C46.6885 120.188 46.9645 120.316 47.2125 120.5C47.4685 120.676 47.6725 120.932 47.8245 121.268C47.9765 121.596 48.0525 122.024 48.0525 122.552C48.0525 123.08 47.9765 123.512 47.8245 123.848C47.6725 124.176 47.4685 124.432 47.2125 124.616C46.9645 124.792 46.6885 124.916 46.3845 124.988C46.0885 125.06 45.7965 125.096 45.5085 125.096Z" fill="#9CA3AF"/>
<path d="M30.4658 182V174.896L28.8698 175.952V174.932L30.3458 173.996H31.3298V182H30.4658ZM37.4039 182.132C36.3639 182.132 35.5759 181.788 35.0399 181.1C34.5119 180.412 34.2479 179.388 34.2479 178.028C34.2479 176.668 34.5119 175.644 35.0399 174.956C35.5759 174.268 36.3639 173.924 37.4039 173.924C38.4519 173.924 39.2399 174.268 39.7679 174.956C40.2959 175.644 40.5599 176.668 40.5599 178.028C40.5599 179.388 40.2959 180.412 39.7679 181.1C39.2399 181.788 38.4519 182.132 37.4039 182.132ZM37.4039 181.34C37.6679 181.34 37.9359 181.304 38.2079 181.232C38.4799 181.16 38.7279 181.012 38.9519 180.788C39.1759 180.564 39.3559 180.232 39.4919 179.792C39.6279 179.352 39.6959 178.764 39.6959 178.028C39.6959 177.292 39.6279 176.704 39.4919 176.264C39.3559 175.824 39.1759 175.496 38.9519 175.28C38.7279 175.056 38.4799 174.908 38.2079 174.836C37.9359 174.756 37.6679 174.716 37.4039 174.716C37.1399 174.716 36.8719 174.756 36.5999 174.836C36.3279 174.908 36.0799 175.056 35.8559 175.28C35.6319 175.496 35.4519 175.824 35.3159 176.264C35.1799 176.704 35.1119 177.292 35.1119 178.028C35.1119 178.764 35.1799 179.352 35.3159 179.792C35.4519 180.232 35.6319 180.564 35.8559 180.788C36.0799 181.012 36.3279 181.16 36.5999 181.232C36.8719 181.304 37.1399 181.34 37.4039 181.34ZM45.6417 182.132C44.6017 182.132 43.8137 181.788 43.2777 181.1C42.7497 180.412 42.4857 179.388 42.4857 178.028C42.4857 176.668 42.7497 175.644 43.2777 174.956C43.8137 174.268 44.6017 173.924 45.6417 173.924C46.6897 173.924 47.4777 174.268 48.0057 174.956C48.5337 175.644 48.7977 176.668 48.7977 178.028C48.7977 179.388 48.5337 180.412 48.0057 181.1C47.4777 181.788 46.6897 182.132 45.6417 182.132ZM45.6417 181.34C45.9057 181.34 46.1737 181.304 46.4457 181.232C46.7177 181.16 46.9657 181.012 47.1897 180.788C47.4137 180.564 47.5937 180.232 47.7297 179.792C47.8657 179.352 47.9337 178.764 47.9337 178.028C47.9337 177.292 47.8657 176.704 47.7297 176.264C47.5937 175.824 47.4137 175.496 47.1897 175.28C46.9657 175.056 46.7177 174.908 46.4457 174.836C46.1737 174.756 45.9057 174.716 45.6417 174.716C45.3777 174.716 45.1097 174.756 44.8377 174.836C44.5657 174.908 44.3177 175.056 44.0937 175.28C43.8697 175.496 43.6897 175.824 43.5537 176.264C43.4177 176.704 43.3497 177.292 43.3497 178.028C43.3497 178.764 43.4177 179.352 43.5537 179.792C43.6897 180.232 43.8697 180.564 44.0937 180.788C44.3177 181.012 44.5657 181.16 44.8377 181.232C45.1097 181.304 45.3777 181.34 45.6417 181.34Z" fill="#9CA3AF"/>
<path d="M36.5058 239L40.0938 231.584L40.1778 231.86H35.4738V230.996H40.9338V231.8L37.4658 239H36.5058ZM45.5324 239.096C44.9964 239.096 44.5404 239.048 44.1644 238.952C43.7964 238.848 43.4884 238.732 43.2404 238.604V237.704C43.3524 237.768 43.5044 237.844 43.6964 237.932C43.8964 238.02 44.1444 238.096 44.4404 238.16C44.7364 238.224 45.0804 238.256 45.4724 238.256C45.8804 238.256 46.2004 238.204 46.4324 238.1C46.6724 237.988 46.8484 237.848 46.9604 237.68C47.0724 237.504 47.1444 237.32 47.1764 237.128C47.2084 236.928 47.2244 236.736 47.2244 236.552C47.2244 236.048 47.1364 235.68 46.9604 235.448C46.7924 235.208 46.5724 235.052 46.3004 234.98C46.0364 234.908 45.7604 234.872 45.4724 234.872C45.0484 234.872 44.6964 234.904 44.4164 234.968C44.1364 235.024 43.9284 235.084 43.7924 235.148C43.6564 235.212 43.5884 235.244 43.5884 235.244L43.0484 234.692L43.4564 230.996H47.5724V231.848H44.2004L43.9724 234.428L43.1204 234.572C43.4244 234.388 43.7924 234.248 44.2244 234.152C44.6564 234.056 45.0924 234.008 45.5324 234.008C45.8204 234.008 46.1124 234.044 46.4084 234.116C46.7124 234.188 46.9884 234.316 47.2364 234.5C47.4924 234.676 47.6964 234.932 47.8484 235.268C48.0004 235.596 48.0764 236.024 48.0764 236.552C48.0764 237.08 48.0004 237.512 47.8484 237.848C47.6964 238.176 47.4924 238.432 47.2364 238.616C46.9884 238.792 46.7124 238.916 46.4084 238.988C46.1124 239.06 45.8204 239.096 45.5324 239.096Z" fill="#9CA3AF"/>
<path d="M37.1618 296.096C36.6258 296.096 36.1698 296.048 35.7938 295.952C35.4258 295.848 35.1178 295.732 34.8698 295.604V294.704C34.9818 294.768 35.1338 294.844 35.3258 294.932C35.5258 295.02 35.7738 295.096 36.0698 295.16C36.3658 295.224 36.7098 295.256 37.1018 295.256C37.5098 295.256 37.8298 295.204 38.0618 295.1C38.3018 294.988 38.4778 294.848 38.5898 294.68C38.7018 294.504 38.7738 294.32 38.8058 294.128C38.8378 293.928 38.8538 293.736 38.8538 293.552C38.8538 293.048 38.7658 292.68 38.5898 292.448C38.4218 292.208 38.2018 292.052 37.9298 291.98C37.6658 291.908 37.3898 291.872 37.1018 291.872C36.6778 291.872 36.3258 291.904 36.0458 291.968C35.7658 292.024 35.5578 292.084 35.4218 292.148C35.2858 292.212 35.2178 292.244 35.2178 292.244L34.6778 291.692L35.0858 287.996H39.2018V288.848H35.8298L35.6018 291.428L34.7498 291.572C35.0538 291.388 35.4218 291.248 35.8538 291.152C36.2858 291.056 36.7218 291.008 37.1618 291.008C37.4498 291.008 37.7418 291.044 38.0378 291.116C38.3418 291.188 38.6178 291.316 38.8658 291.5C39.1218 291.676 39.3258 291.932 39.4778 292.268C39.6298 292.596 39.7058 293.024 39.7058 293.552C39.7058 294.08 39.6298 294.512 39.4778 294.848C39.3258 295.176 39.1218 295.432 38.8658 295.616C38.6178 295.792 38.3418 295.916 38.0378 295.988C37.7418 296.06 37.4498 296.096 37.1618 296.096ZM44.7867 296.132C43.7467 296.132 42.9587 295.788 42.4227 295.1C41.8947 294.412 41.6307 293.388 41.6307 292.028C41.6307 290.668 41.8947 289.644 42.4227 288.956C42.9587 288.268 43.7467 287.924 44.7867 287.924C45.8347 287.924 46.6227 288.268 47.1507 288.956C47.6787 289.644 47.9427 290.668 47.9427 292.028C47.9427 293.388 47.6787 294.412 47.1507 295.1C46.6227 295.788 45.8347 296.132 44.7867 296.132ZM44.7867 295.34C45.0507 295.34 45.3187 295.304 45.5907 295.232C45.8627 295.16 46.1107 295.012 46.3347 294.788C46.5587 294.564 46.7387 294.232 46.8747 293.792C47.0107 293.352 47.0787 292.764 47.0787 292.028C47.0787 291.292 47.0107 290.704 46.8747 290.264C46.7387 289.824 46.5587 289.496 46.3347 289.28C46.1107 289.056 45.8627 288.908 45.5907 288.836C45.3187 288.756 45.0507 288.716 44.7867 288.716C44.5227 288.716 44.2547 288.756 43.9827 288.836C43.7107 288.908 43.4627 289.056 43.2387 289.28C43.0147 289.496 42.8347 289.824 42.6987 290.264C42.5627 290.704 42.4947 291.292 42.4947 292.028C42.4947 292.764 42.5627 293.352 42.6987 293.792C42.8347 294.232 43.0147 294.564 43.2387 294.788C43.4627 295.012 43.7107 295.16 43.9827 295.232C44.2547 295.304 44.5227 295.34 44.7867 295.34Z" fill="#9CA3AF"/>
<path d="M35.5578 353V352.244C35.8298 352.044 36.1418 351.796 36.4938 351.5C36.8538 351.204 37.2138 350.88 37.5738 350.528C37.9418 350.168 38.2778 349.796 38.5818 349.412C38.8938 349.02 39.1458 348.632 39.3378 348.248C39.5298 347.864 39.6258 347.496 39.6258 347.144C39.6258 346.928 39.5778 346.716 39.4818 346.508C39.3858 346.292 39.2018 346.112 38.9298 345.968C38.6578 345.824 38.2618 345.752 37.7418 345.752C37.2618 345.752 36.8418 345.832 36.4818 345.992C36.1298 346.152 35.8498 346.304 35.6418 346.448V345.5C35.8978 345.34 36.2058 345.2 36.5658 345.08C36.9338 344.952 37.3498 344.888 37.8138 344.888C38.4698 344.888 38.9938 345 39.3858 345.224C39.7778 345.448 40.0578 345.732 40.2258 346.076C40.4018 346.42 40.4898 346.776 40.4898 347.144C40.4898 347.504 40.3978 347.88 40.2138 348.272C40.0378 348.664 39.8018 349.056 39.5058 349.448C39.2178 349.84 38.8978 350.22 38.5458 350.588C38.1938 350.956 37.8418 351.3 37.4898 351.62C37.1378 351.932 36.8178 352.204 36.5298 352.436L36.2778 352.136H40.6098V353H35.5578ZM45.6144 353.096C45.0784 353.096 44.6224 353.048 44.2464 352.952C43.8784 352.848 43.5704 352.732 43.3224 352.604V351.704C43.4344 351.768 43.5864 351.844 43.7784 351.932C43.9784 352.02 44.2264 352.096 44.5224 352.16C44.8184 352.224 45.1624 352.256 45.5544 352.256C45.9624 352.256 46.2824 352.204 46.5144 352.1C46.7544 351.988 46.9304 351.848 47.0424 351.68C47.1544 351.504 47.2264 351.32 47.2584 351.128C47.2904 350.928 47.3064 350.736 47.3064 350.552C47.3064 350.048 47.2184 349.68 47.0424 349.448C46.8744 349.208 46.6544 349.052 46.3824 348.98C46.1184 348.908 45.8424 348.872 45.5544 348.872C45.1304 348.872 44.7784 348.904 44.4984 348.968C44.2184 349.024 44.0104 349.084 43.8744 349.148C43.7384 349.212 43.6704 349.244 43.6704 349.244L43.1304 348.692L43.5384 344.996H47.6544V345.848H44.2824L44.0544 348.428L43.2024 348.572C43.5064 348.388 43.8744 348.248 44.3064 348.152C44.7384 348.056 45.1744 348.008 45.6144 348.008C45.9024 348.008 46.1944 348.044 46.4904 348.116C46.7944 348.188 47.0704 348.316 47.3184 348.5C47.5744 348.676 47.7784 348.932 47.9304 349.268C48.0824 349.596 48.1584 350.024 48.1584 350.552C48.1584 351.08 48.0824 351.512 47.9304 351.848C47.7784 352.176 47.5744 352.432 47.3184 352.616C47.0704 352.792 46.7944 352.916 46.4904 352.988C46.1944 353.06 45.9024 353.096 45.6144 353.096Z" fill="#9CA3AF"/>
<path d="M45.5098 410.132C44.4698 410.132 43.6818 409.788 43.1458 409.1C42.6178 408.412 42.3538 407.388 42.3538 406.028C42.3538 404.668 42.6178 403.644 43.1458 402.956C43.6818 402.268 44.4698 401.924 45.5098 401.924C46.5578 401.924 47.3458 402.268 47.8738 402.956C48.4018 403.644 48.6658 404.668 48.6658 406.028C48.6658 407.388 48.4018 408.412 47.8738 409.1C47.3458 409.788 46.5578 410.132 45.5098 410.132ZM45.5098 409.34C45.7738 409.34 46.0418 409.304 46.3138 409.232C46.5858 409.16 46.8338 409.012 47.0578 408.788C47.2818 408.564 47.4618 408.232 47.5978 407.792C47.7338 407.352 47.8018 406.764 47.8018 406.028C47.8018 405.292 47.7338 404.704 47.5978 404.264C47.4618 403.824 47.2818 403.496 47.0578 403.28C46.8338 403.056 46.5858 402.908 46.3138 402.836C46.0418 402.756 45.7738 402.716 45.5098 402.716C45.2458 402.716 44.9778 402.756 44.7058 402.836C44.4338 402.908 44.1858 403.056 43.9618 403.28C43.7378 403.496 43.5578 403.824 43.4218 404.264C43.2858 404.704 43.2178 405.292 43.2178 406.028C43.2178 406.764 43.2858 407.352 43.4218 407.792C43.5578 408.232 43.7378 408.564 43.9618 408.788C44.1858 409.012 44.4338 409.16 44.7058 409.232C44.9778 409.304 45.2458 409.34 45.5098 409.34Z" fill="#9CA3AF"/>
<path d="M64.418 405V120" stroke="#F3F4F6"/>
<path d="M148.041 405V120" stroke="#F3F4F6"/>
<path d="M231.665 405V120" stroke="#F3F4F6"/>
<path d="M315.288 405V120" stroke="#F3F4F6"/>
<path d="M398.911 405V120" stroke="#F3F4F6"/>
<path d="M482.535 405V120" stroke="#F3F4F6"/>
<path d="M566.158 405V120" stroke="#F3F4F6"/>
<path d="M649.782 405V120" stroke="#F3F4F6"/>
<path d="M733.405 405V120" stroke="#F3F4F6"/>
<path d="M817.028 405V120" stroke="#F3F4F6"/>
<path d="M900.652 405V120" stroke="#F3F4F6"/>
<path d="M984.275 405V120" stroke="#F3F4F6"/>
<path d="M64.418 405H984.275" stroke="#F3F4F6"/>
<path d="M64.418 348H984.275" stroke="#F3F4F6"/>
<path d="M64.418 291H984.275" stroke="#F3F4F6"/>
<path d="M64.418 234H984.275" stroke="#F3F4F6"/>
<path d="M64.418 177H984.275" stroke="#F3F4F6"/>
<path d="M64.418 120H984.275" stroke="#F3F4F6"/>
<path d="M64.418 380C64.418 380 131.443 368.838 154.572 336C166.546 319 157.42 292.625 181.197 292.933C214.396 293.364 215.218 332.728 248.389 331.625C287.421 330.327 270.917 276.357 309.713 272.92C335.875 270.603 352.465 278.733 372.315 291.599C409.365 315.614 437.401 366.476 493.685 355.64C551.51 344.508 497.338 263.138 555.009 251.573C610.392 240.467 620.29 311.752 677.656 311.612C736.616 311.468 766.86 282.958 801.582 247.571C851.327 196.872 845.19 104.753 922.952 122.157C951.776 128.608 984.275 156.846 984.275 156.846" stroke="#CD4647" stroke-width="2"/>
<path d="M64.418 405C64.418 405 91.9316 359.512 125.649 357.5C152.305 355.909 160.145 381.25 186.88 381.25C213.614 381.25 233.934 373.247 248.111 357.5C276.095 326.415 256.291 257.321 309.342 262.5C342.901 265.776 339.534 301.257 371.848 309.01C435.454 324.271 429.677 200.12 493.034 215.99C524.882 223.967 536.207 243.64 554.265 262.5C583.684 293.225 623.571 311.438 676.727 309.01C762.248 305.104 738.915 214.301 800.465 168.49C818.728 154.896 833.901 143.929 860.42 143.75C887.38 143.569 894.757 169.964 921.651 168.49C955.737 166.621 981.176 146.475 982.882 120" stroke="#05B050" stroke-width="2"/>
<path d="M64.418 405H984.275" stroke="#D1D5DB"/>
<path d="M64.418 405V120" stroke="#D1D5DB"/>
</svg>
