<svg width="24" height="24" viewBox="0 0 24 24" fill="none" xmlns="http://www.w3.org/2000/svg">
<path d="M12 18.5777L12 18.5683M12 11.9988L12 11.9894M12 5.41983L12 5.41043M12 17.6379C12.5523 17.6379 13 18.0587 13 18.5777C13 19.0968 12.5523 19.5176 12 19.5176C11.4477 19.5176 11 19.0968 11 18.5777C11 18.0587 11.4477 17.6379 12 17.6379ZM12 11.0589C12.5523 11.0589 13 11.4797 13 11.9988C13 12.5178 12.5523 12.9386 12 12.9386C11.4477 12.9386 11 12.5178 11 11.9988C11 11.4797 11.4477 11.0589 12 11.0589ZM12 4.47998C12.5523 4.47998 13 4.90077 13 5.41983C13 5.9389 12.5523 6.35968 12 6.35968C11.4477 6.35968 11 5.9389 11 5.41983C11 4.90077 11.4477 4.47998 12 4.47998Z" stroke="#A1A1AA" stroke-width="2" stroke-linecap="round" stroke-linejoin="round"/>
</svg>
