<svg width="1025" height="489" viewBox="0 0 1025 489" fill="none" xmlns="http://www.w3.org/2000/svg">
<rect width="1025" height="489" rx="6" fill="white"/>
<path d="M0 4C0 1.79086 1.79086 0 4 0H1021C1023.21 0 1025 1.79086 1025 4V85H0V4Z" fill="white"/>
<path d="M29.688 50.626C28.764 50.626 27.936 50.476 27.204 50.176C26.472 49.876 25.884 49.432 25.44 48.844C25.008 48.256 24.78 47.548 24.756 46.72H28.032C28.08 47.188 28.242 47.548 28.518 47.8C28.794 48.04 29.154 48.16 29.598 48.16C30.054 48.16 30.414 48.058 30.678 47.854C30.942 47.638 31.074 47.344 31.074 46.972C31.074 46.66 30.966 46.402 30.75 46.198C30.546 45.994 30.288 45.826 29.976 45.694C29.676 45.562 29.244 45.412 28.68 45.244C27.864 44.992 27.198 44.74 26.682 44.488C26.166 44.236 25.722 43.864 25.35 43.372C24.978 42.88 24.792 42.238 24.792 41.446C24.792 40.27 25.218 39.352 26.07 38.692C26.922 38.02 28.032 37.684 29.4 37.684C30.792 37.684 31.914 38.02 32.766 38.692C33.618 39.352 34.074 40.276 34.134 41.464H30.804C30.78 41.056 30.63 40.738 30.354 40.51C30.078 40.27 29.724 40.15 29.292 40.15C28.92 40.15 28.62 40.252 28.392 40.456C28.164 40.648 28.05 40.93 28.05 41.302C28.05 41.71 28.242 42.028 28.626 42.256C29.01 42.484 29.61 42.73 30.426 42.994C31.242 43.27 31.902 43.534 32.406 43.786C32.922 44.038 33.366 44.404 33.738 44.884C34.11 45.364 34.296 45.982 34.296 46.738C34.296 47.458 34.11 48.112 33.738 48.7C33.378 49.288 32.85 49.756 32.154 50.104C31.458 50.452 30.636 50.626 29.688 50.626ZM35.7582 45.46C35.7582 44.428 35.9502 43.522 36.3342 42.742C36.7302 41.962 37.2642 41.362 37.9362 40.942C38.6082 40.522 39.3582 40.312 40.1862 40.312C40.8942 40.312 41.5122 40.456 42.0402 40.744C42.5802 41.032 42.9942 41.41 43.2822 41.878V40.456H46.3602V50.5H43.2822V49.078C42.9822 49.546 42.5622 49.924 42.0222 50.212C41.4942 50.5 40.8762 50.644 40.1682 50.644C39.3522 50.644 38.6082 50.434 37.9362 50.014C37.2642 49.582 36.7302 48.976 36.3342 48.196C35.9502 47.404 35.7582 46.492 35.7582 45.46ZM43.2822 45.478C43.2822 44.71 43.0662 44.104 42.6342 43.66C42.2142 43.216 41.6982 42.994 41.0862 42.994C40.4742 42.994 39.9522 43.216 39.5202 43.66C39.1002 44.092 38.8902 44.692 38.8902 45.46C38.8902 46.228 39.1002 46.84 39.5202 47.296C39.9522 47.74 40.4742 47.962 41.0862 47.962C41.6982 47.962 42.2142 47.74 42.6342 47.296C43.0662 46.852 43.2822 46.246 43.2822 45.478ZM51.845 37.18V50.5H48.767V37.18H51.845ZM63.7236 45.316C63.7236 45.604 63.7056 45.904 63.6696 46.216H56.7036C56.7516 46.84 56.9496 47.32 57.2976 47.656C57.6576 47.98 58.0956 48.142 58.6116 48.142C59.3796 48.142 59.9136 47.818 60.2136 47.17H63.4896C63.3216 47.83 63.0156 48.424 62.5716 48.952C62.1396 49.48 61.5936 49.894 60.9336 50.194C60.2736 50.494 59.5356 50.644 58.7196 50.644C57.7356 50.644 56.8596 50.434 56.0916 50.014C55.3236 49.594 54.7236 48.994 54.2916 48.214C53.8596 47.434 53.6436 46.522 53.6436 45.478C53.6436 44.434 53.8536 43.522 54.2736 42.742C54.7056 41.962 55.3056 41.362 56.0736 40.942C56.8416 40.522 57.7236 40.312 58.7196 40.312C59.6916 40.312 60.5556 40.516 61.3116 40.924C62.0676 41.332 62.6556 41.914 63.0756 42.67C63.5076 43.426 63.7236 44.308 63.7236 45.316ZM60.5736 44.506C60.5736 43.978 60.3936 43.558 60.0336 43.246C59.6736 42.934 59.2236 42.778 58.6836 42.778C58.1676 42.778 57.7296 42.928 57.3696 43.228C57.0216 43.528 56.8056 43.954 56.7216 44.506H60.5736ZM69.6134 50.644C68.7374 50.644 67.9574 50.494 67.2734 50.194C66.5894 49.894 66.0494 49.486 65.6534 48.97C65.2574 48.442 65.0354 47.854 64.9874 47.206H68.0294C68.0654 47.554 68.2274 47.836 68.5154 48.052C68.8034 48.268 69.1574 48.376 69.5774 48.376C69.9614 48.376 70.2554 48.304 70.4594 48.16C70.6754 48.004 70.7834 47.806 70.7834 47.566C70.7834 47.278 70.6334 47.068 70.3334 46.936C70.0334 46.792 69.5474 46.636 68.8754 46.468C68.1554 46.3 67.5554 46.126 67.0754 45.946C66.5954 45.754 66.1814 45.46 65.8334 45.064C65.4854 44.656 65.3114 44.11 65.3114 43.426C65.3114 42.85 65.4674 42.328 65.7794 41.86C66.1034 41.38 66.5714 41.002 67.1834 40.726C67.8074 40.45 68.5454 40.312 69.3974 40.312C70.6574 40.312 71.6474 40.624 72.3674 41.248C73.0994 41.872 73.5194 42.7 73.6274 43.732H70.7834C70.7354 43.384 70.5794 43.108 70.3154 42.904C70.0634 42.7 69.7274 42.598 69.3074 42.598C68.9474 42.598 68.6714 42.67 68.4794 42.814C68.2874 42.946 68.1914 43.132 68.1914 43.372C68.1914 43.66 68.3414 43.876 68.6414 44.02C68.9534 44.164 69.4334 44.308 70.0814 44.452C70.8254 44.644 71.4314 44.836 71.8994 45.028C72.3674 45.208 72.7754 45.508 73.1234 45.928C73.4834 46.336 73.6694 46.888 73.6814 47.584C73.6814 48.172 73.5134 48.7 73.1774 49.168C72.8534 49.624 72.3794 49.984 71.7554 50.248C71.1434 50.512 70.4294 50.644 69.6134 50.644ZM87.605 48.268H82.889L82.133 50.5H78.911L83.483 37.864H87.047L91.619 50.5H88.361L87.605 48.268ZM86.813 45.892L85.247 41.266L83.699 45.892H86.813ZM99.3105 40.348C100.486 40.348 101.422 40.732 102.118 41.5C102.826 42.256 103.18 43.3 103.18 44.632V50.5H100.12V45.046C100.12 44.374 99.9465 43.852 99.5985 43.48C99.2505 43.108 98.7825 42.922 98.1945 42.922C97.6065 42.922 97.1385 43.108 96.7905 43.48C96.4425 43.852 96.2685 44.374 96.2685 45.046V50.5H93.1905V40.456H96.2685V41.788C96.5805 41.344 97.0005 40.996 97.5285 40.744C98.0565 40.48 98.6505 40.348 99.3105 40.348ZM104.887 45.46C104.887 44.428 105.079 43.522 105.463 42.742C105.859 41.962 106.393 41.362 107.065 40.942C107.737 40.522 108.487 40.312 109.315 40.312C110.023 40.312 110.641 40.456 111.169 40.744C111.709 41.032 112.123 41.41 112.411 41.878V40.456H115.489V50.5H112.411V49.078C112.111 49.546 111.691 49.924 111.151 50.212C110.623 50.5 110.005 50.644 109.297 50.644C108.481 50.644 107.737 50.434 107.065 50.014C106.393 49.582 105.859 48.976 105.463 48.196C105.079 47.404 104.887 46.492 104.887 45.46ZM112.411 45.478C112.411 44.71 112.195 44.104 111.763 43.66C111.343 43.216 110.827 42.994 110.215 42.994C109.603 42.994 109.081 43.216 108.649 43.66C108.229 44.092 108.019 44.692 108.019 45.46C108.019 46.228 108.229 46.84 108.649 47.296C109.081 47.74 109.603 47.962 110.215 47.962C110.827 47.962 111.343 47.74 111.763 47.296C112.195 46.852 112.411 46.246 112.411 45.478ZM120.974 37.18V50.5H117.896V37.18H120.974ZM133.645 40.456L127.345 55.27H124.033L126.337 50.158L122.251 40.456H125.689L128.011 46.738L130.315 40.456H133.645ZM140.536 47.89V50.5H138.97C137.854 50.5 136.984 50.23 136.36 49.69C135.736 49.138 135.424 48.244 135.424 47.008V43.012H134.2V40.456H135.424V38.008H138.502V40.456H140.518V43.012H138.502V47.044C138.502 47.344 138.574 47.56 138.718 47.692C138.862 47.824 139.102 47.89 139.438 47.89H140.536ZM143.978 39.412C143.438 39.412 142.994 39.256 142.646 38.944C142.31 38.62 142.142 38.224 142.142 37.756C142.142 37.276 142.31 36.88 142.646 36.568C142.994 36.244 143.438 36.082 143.978 36.082C144.506 36.082 144.938 36.244 145.274 36.568C145.622 36.88 145.796 37.276 145.796 37.756C145.796 38.224 145.622 38.62 145.274 38.944C144.938 39.256 144.506 39.412 143.978 39.412ZM145.508 40.456V50.5H142.43V40.456H145.508ZM147.307 45.478C147.307 44.434 147.517 43.522 147.937 42.742C148.369 41.962 148.963 41.362 149.719 40.942C150.487 40.522 151.363 40.312 152.347 40.312C153.607 40.312 154.657 40.642 155.497 41.302C156.349 41.962 156.907 42.892 157.171 44.092H153.895C153.619 43.324 153.085 42.94 152.293 42.94C151.729 42.94 151.279 43.162 150.943 43.606C150.607 44.038 150.439 44.662 150.439 45.478C150.439 46.294 150.607 46.924 150.943 47.368C151.279 47.8 151.729 48.016 152.293 48.016C153.085 48.016 153.619 47.632 153.895 46.864H157.171C156.907 48.04 156.349 48.964 155.497 49.636C154.645 50.308 153.595 50.644 152.347 50.644C151.363 50.644 150.487 50.434 149.719 50.014C148.963 49.594 148.369 48.994 147.937 48.214C147.517 47.434 147.307 46.522 147.307 45.478ZM163.083 50.644C162.207 50.644 161.427 50.494 160.743 50.194C160.059 49.894 159.519 49.486 159.123 48.97C158.727 48.442 158.505 47.854 158.457 47.206H161.499C161.535 47.554 161.697 47.836 161.985 48.052C162.273 48.268 162.627 48.376 163.047 48.376C163.431 48.376 163.725 48.304 163.929 48.16C164.145 48.004 164.253 47.806 164.253 47.566C164.253 47.278 164.103 47.068 163.803 46.936C163.503 46.792 163.017 46.636 162.345 46.468C161.625 46.3 161.025 46.126 160.545 45.946C160.065 45.754 159.651 45.46 159.303 45.064C158.955 44.656 158.781 44.11 158.781 43.426C158.781 42.85 158.937 42.328 159.249 41.86C159.573 41.38 160.041 41.002 160.653 40.726C161.277 40.45 162.015 40.312 162.867 40.312C164.127 40.312 165.117 40.624 165.837 41.248C166.569 41.872 166.989 42.7 167.097 43.732H164.253C164.205 43.384 164.049 43.108 163.785 42.904C163.533 42.7 163.197 42.598 162.777 42.598C162.417 42.598 162.141 42.67 161.949 42.814C161.757 42.946 161.661 43.132 161.661 43.372C161.661 43.66 161.811 43.876 162.111 44.02C162.423 44.164 162.903 44.308 163.551 44.452C164.295 44.644 164.901 44.836 165.369 45.028C165.837 45.208 166.245 45.508 166.593 45.928C166.953 46.336 167.139 46.888 167.151 47.584C167.151 48.172 166.983 48.7 166.647 49.168C166.323 49.624 165.849 49.984 165.225 50.248C164.613 50.512 163.899 50.644 163.083 50.644Z" fill="#4A4754"/>
<rect x="730.5" y="26.5" width="270" height="36" rx="3.5" fill="#05B050"/>
<path d="M745.631 51V40.328H752.175V41.416H746.783V45.096H751.519V46.216H746.783V51H745.631ZM754.88 51V43.016H756.032V51H754.88ZM754.816 41.592V40.328H756.096V41.592H754.816ZM760.451 51H759.299V39.976H760.451V51ZM766.17 51.128C765.605 51.128 765.13 50.9573 764.746 50.616C764.362 50.264 764.17 49.7467 764.17 49.064V44.072H762.778V43.016H764.17V40.76H765.322V43.016H767.386V44.072H765.322V48.696C765.322 49.144 765.391 49.48 765.53 49.704C765.669 49.928 765.951 50.04 766.378 50.04C766.57 50.04 766.757 50.024 766.938 49.992C767.119 49.9493 767.269 49.9013 767.386 49.848V50.936C767.237 50.9893 767.045 51.032 766.81 51.064C766.586 51.1067 766.373 51.128 766.17 51.128ZM773.407 51.24C772.649 51.24 771.993 51.0853 771.439 50.776C770.884 50.456 770.457 49.9813 770.159 49.352C769.86 48.7227 769.711 47.9387 769.711 47C769.711 45.624 770.02 44.5947 770.639 43.912C771.268 43.2187 772.127 42.872 773.215 42.872C774.068 42.872 774.751 43.064 775.263 43.448C775.785 43.832 776.159 44.3493 776.383 45C776.607 45.6507 776.713 46.3867 776.703 47.208H770.287L770.367 46.152H775.951L775.503 46.312C775.471 45.512 775.268 44.9147 774.895 44.52C774.532 44.1253 773.972 43.928 773.215 43.928C772.692 43.928 772.255 44.024 771.903 44.216C771.561 44.408 771.305 44.744 771.135 45.224C770.964 45.6933 770.879 46.3547 770.879 47.208C770.879 48.1787 771.103 48.92 771.551 49.432C772.009 49.9333 772.649 50.184 773.471 50.184C773.865 50.184 774.228 50.1573 774.559 50.104C774.889 50.04 775.193 49.9547 775.471 49.848C775.748 49.7413 775.993 49.624 776.207 49.496V50.68C775.823 50.8613 775.396 51 774.927 51.096C774.468 51.192 773.961 51.24 773.407 51.24ZM779.501 51V43.656C779.629 43.6027 779.874 43.512 780.237 43.384C780.61 43.256 781.053 43.1387 781.565 43.032C782.087 42.9253 782.626 42.872 783.181 42.872C783.266 42.872 783.351 42.8827 783.437 42.904C783.522 42.9253 783.607 42.9467 783.693 42.968V43.992C783.415 43.96 783.143 43.944 782.877 43.944C782.621 43.944 782.37 43.96 782.125 43.992C781.879 44.0133 781.634 44.0453 781.389 44.088C781.143 44.1307 780.898 44.1733 780.653 44.216V51H779.501ZM794.605 51.24C794.189 51.24 793.789 51.2133 793.405 51.16C793.031 51.1173 792.695 51.0373 792.397 50.92C792.109 50.792 791.879 50.6267 791.709 50.424C791.538 50.2213 791.453 49.96 791.453 49.64V39.64H792.605V43.928L792.205 43.528C792.418 43.4213 792.674 43.32 792.973 43.224C793.282 43.128 793.597 43.048 793.917 42.984C794.237 42.92 794.514 42.888 794.749 42.888C795.986 42.888 796.903 43.2507 797.501 43.976C798.098 44.6907 798.397 45.6667 798.397 46.904C798.397 47.8213 798.274 48.568 798.029 49.144C797.783 49.7093 797.469 50.1467 797.085 50.456C796.711 50.7547 796.306 50.9573 795.869 51.064C795.431 51.1813 795.01 51.24 794.605 51.24ZM794.493 50.184C795.25 50.184 795.821 50.0293 796.205 49.72C796.589 49.4107 796.845 49.0107 796.973 48.52C797.111 48.0187 797.181 47.48 797.181 46.904C797.181 46.3173 797.095 45.8053 796.925 45.368C796.765 44.92 796.509 44.5733 796.157 44.328C795.805 44.072 795.335 43.944 794.749 43.944C794.418 43.944 794.061 43.992 793.677 44.088C793.293 44.1733 792.935 44.312 792.605 44.504V49.368C792.605 49.6027 792.706 49.7787 792.909 49.896C793.122 50.0133 793.373 50.0933 793.661 50.136C793.959 50.168 794.237 50.184 794.493 50.184ZM801.503 54.088C801.343 54.088 801.199 54.072 801.071 54.04C800.943 54.008 800.837 53.976 800.751 53.944V52.888C800.826 52.92 800.922 52.952 801.039 52.984C801.157 53.016 801.29 53.032 801.439 53.032C801.802 53.032 802.095 52.9307 802.319 52.728C802.543 52.5253 802.73 52.2533 802.879 51.912C803.039 51.5707 803.183 51.192 803.311 50.776V51.24L799.919 43.016H801.231L803.887 49.832H803.647L806.287 43.016H807.439L804.015 51.784C803.77 52.4133 803.498 52.8933 803.199 53.224C802.911 53.5547 802.618 53.7787 802.319 53.896C802.031 54.024 801.759 54.088 801.503 54.088Z" fill="white"/>
<line x1="816.5" y1="36.5" x2="816.5" y2="52.5" stroke="#F5F5F5"/>
<path d="M839.819 51V40.328H841.595V49.496H846.683V51H839.819ZM851.869 51.24C851.453 51.24 851.053 51.1973 850.669 51.112C850.285 51.0373 849.933 50.904 849.613 50.712C849.304 50.52 849.053 50.2587 848.861 49.928C848.68 49.5867 848.589 49.1653 848.589 48.664C848.589 48.0667 848.706 47.576 848.941 47.192C849.176 46.808 849.512 46.52 849.949 46.328C850.386 46.136 850.909 46.04 851.517 46.04C851.922 46.04 852.285 46.072 852.605 46.136C852.936 46.2 853.229 46.2907 853.485 46.408C853.752 46.5147 853.976 46.6373 854.157 46.776L854.333 47.88C854.098 47.72 853.784 47.5867 853.389 47.48C852.994 47.3627 852.568 47.304 852.109 47.304C851.501 47.304 851.037 47.4107 850.717 47.624C850.408 47.8373 850.253 48.1573 850.253 48.584C850.253 48.904 850.344 49.1653 850.525 49.368C850.706 49.56 850.93 49.704 851.197 49.8C851.474 49.8853 851.762 49.928 852.061 49.928C852.69 49.928 853.154 49.8853 853.453 49.8C853.752 49.7147 853.901 49.5173 853.901 49.208V45.848C853.901 45.2827 853.73 44.872 853.389 44.616C853.048 44.3493 852.562 44.216 851.933 44.216C851.485 44.216 851.021 44.2907 850.541 44.44C850.061 44.5787 849.666 44.776 849.357 45.032V43.464C849.656 43.2613 850.088 43.1013 850.653 42.984C851.229 42.856 851.821 42.792 852.429 42.792C852.728 42.792 853.026 42.824 853.325 42.888C853.634 42.9413 853.922 43.032 854.189 43.16C854.456 43.2773 854.69 43.4427 854.893 43.656C855.106 43.8587 855.272 44.1093 855.389 44.408C855.506 44.7067 855.565 45.0587 855.565 45.464V49.304C855.565 49.8267 855.4 50.232 855.069 50.52C854.749 50.7973 854.312 50.984 853.757 51.08C853.202 51.1867 852.573 51.24 851.869 51.24ZM860.886 51.24C860.31 51.24 859.819 51.176 859.414 51.048C859.019 50.9307 858.63 50.7813 858.246 50.6V49.016C858.523 49.1867 858.795 49.3413 859.062 49.48C859.329 49.608 859.606 49.7093 859.894 49.784C860.193 49.8587 860.523 49.896 860.886 49.896C861.345 49.896 861.702 49.8 861.958 49.608C862.225 49.416 862.358 49.176 862.358 48.888C862.358 48.6427 862.273 48.4507 862.102 48.312C861.942 48.1733 861.734 48.056 861.478 47.96C861.222 47.864 860.955 47.768 860.678 47.672C860.39 47.5973 860.102 47.512 859.814 47.416C859.526 47.3093 859.259 47.1707 859.014 47C858.779 46.8187 858.587 46.5893 858.438 46.312C858.299 46.0347 858.23 45.6933 858.23 45.288C858.23 44.84 858.321 44.4613 858.502 44.152C858.683 43.832 858.918 43.576 859.206 43.384C859.505 43.1813 859.83 43.0373 860.182 42.952C860.545 42.856 860.897 42.808 861.238 42.808C861.803 42.8187 862.262 42.888 862.614 43.016C862.977 43.144 863.329 43.2987 863.67 43.48L863.686 44.92C863.302 44.7173 862.939 44.5413 862.598 44.392C862.257 44.2427 861.862 44.168 861.414 44.168C860.998 44.168 860.651 44.248 860.374 44.408C860.097 44.5573 859.958 44.7813 859.958 45.08C859.958 45.336 860.033 45.5387 860.182 45.688C860.342 45.8373 860.545 45.9547 860.79 46.04C861.046 46.1253 861.318 46.2107 861.606 46.296C861.873 46.3813 862.15 46.472 862.438 46.568C862.726 46.6533 862.993 46.7813 863.238 46.952C863.483 47.1227 863.681 47.3467 863.83 47.624C863.99 47.9013 864.07 48.264 864.07 48.712C864.059 49.3093 863.899 49.7947 863.59 50.168C863.291 50.5413 862.897 50.8133 862.406 50.984C861.915 51.1547 861.409 51.24 860.886 51.24ZM869.539 51.208C868.813 51.208 868.237 51.016 867.811 50.632C867.395 50.248 867.187 49.6827 867.187 48.936V44.36H865.891V42.968H867.187V40.728H868.915V42.968H870.867V44.36H868.915V48.6C868.915 48.9733 868.979 49.256 869.107 49.448C869.245 49.6293 869.496 49.72 869.859 49.72C870.04 49.72 870.221 49.6987 870.403 49.656C870.584 49.6027 870.739 49.5387 870.867 49.464V50.952C870.675 51.0373 870.456 51.1013 870.211 51.144C869.976 51.1867 869.752 51.208 869.539 51.208ZM880.914 51V42.088L878.802 43.384V41.624L880.946 40.328H882.674V51H880.914ZM886.626 51V49.64C886.989 49.3947 887.394 49.096 887.842 48.744C888.301 48.3813 888.754 47.9813 889.202 47.544C889.661 47.1067 890.077 46.6533 890.45 46.184C890.834 45.704 891.143 45.2347 891.378 44.776C891.613 44.3067 891.73 43.8587 891.73 43.432C891.73 43.112 891.661 42.8187 891.522 42.552C891.383 42.2853 891.149 42.072 890.818 41.912C890.487 41.752 890.05 41.672 889.506 41.672C888.919 41.672 888.397 41.784 887.938 42.008C887.479 42.2213 887.074 42.456 886.722 42.712V41.048C887.106 40.8133 887.559 40.6053 888.082 40.424C888.605 40.2427 889.207 40.152 889.89 40.152C890.733 40.152 891.421 40.296 891.954 40.584C892.487 40.8613 892.877 41.24 893.122 41.72C893.378 42.1893 893.506 42.712 893.506 43.288C893.506 43.7787 893.394 44.2693 893.17 44.76C892.946 45.2507 892.647 45.7307 892.274 46.2C891.911 46.6693 891.511 47.1227 891.074 47.56C890.637 47.9867 890.194 48.3867 889.746 48.76C889.309 49.1227 888.903 49.448 888.53 49.736L888.114 49.336H893.682V51H886.626ZM908.897 45.688V51H907.217V45.912C907.217 45.7093 907.19 45.512 907.137 45.32C907.094 45.1173 907.004 44.936 906.865 44.776C906.737 44.6053 906.545 44.472 906.289 44.376C906.044 44.28 905.718 44.232 905.313 44.232C905.025 44.232 904.737 44.2587 904.449 44.312C904.161 44.3653 903.884 44.44 903.617 44.536V51H901.937V43.624C902.172 43.5067 902.433 43.4 902.721 43.304C903.02 43.1973 903.334 43.1067 903.665 43.032C903.996 42.9573 904.332 42.8987 904.673 42.856C905.014 42.8133 905.345 42.792 905.665 42.792C906.422 42.792 907.036 42.8987 907.505 43.112C907.974 43.3147 908.321 43.6347 908.545 44.072C908.78 44.4987 908.897 45.0373 908.897 45.688ZM906.977 44.04C907.318 43.7627 907.692 43.5333 908.097 43.352C908.513 43.1707 908.94 43.032 909.377 42.936C909.825 42.84 910.262 42.792 910.689 42.792C911.446 42.792 912.06 42.8987 912.529 43.112C912.998 43.3147 913.345 43.6347 913.569 44.072C913.804 44.4987 913.921 45.0373 913.921 45.688V51H912.241V45.912C912.241 45.7093 912.214 45.512 912.161 45.32C912.118 45.1173 912.028 44.936 911.889 44.776C911.761 44.6053 911.569 44.472 911.313 44.376C911.068 44.28 910.742 44.232 910.337 44.232C910.049 44.232 909.761 44.2747 909.473 44.36C909.185 44.4453 908.908 44.5787 908.641 44.76L906.977 44.04ZM920.377 51.24C919.075 51.24 918.105 50.872 917.465 50.136C916.835 49.4 916.521 48.3493 916.521 46.984C916.521 45.5333 916.846 44.472 917.497 43.8C918.158 43.1173 919.107 42.776 920.345 42.776C921.23 42.776 921.961 42.9413 922.537 43.272C923.113 43.592 923.539 44.0667 923.817 44.696C924.094 45.3253 924.233 46.088 924.233 46.984C924.233 48.3387 923.897 49.3893 923.225 50.136C922.563 50.872 921.614 51.24 920.377 51.24ZM920.361 49.816C920.905 49.816 921.337 49.6987 921.657 49.464C921.977 49.2187 922.206 48.8827 922.345 48.456C922.494 48.0293 922.569 47.5387 922.569 46.984C922.569 46.3653 922.494 45.848 922.345 45.432C922.195 45.016 921.961 44.7067 921.641 44.504C921.321 44.2907 920.894 44.184 920.361 44.184C919.827 44.184 919.401 44.296 919.081 44.52C918.761 44.744 918.531 45.064 918.393 45.48C918.254 45.896 918.185 46.3973 918.185 46.984C918.185 47.8693 918.35 48.5627 918.681 49.064C919.011 49.5653 919.571 49.816 920.361 49.816ZM926.827 43.624C927.061 43.5067 927.323 43.4 927.611 43.304C927.909 43.1973 928.224 43.1067 928.555 43.032C928.885 42.9573 929.221 42.8987 929.563 42.856C929.904 42.8133 930.235 42.792 930.555 42.792C931.312 42.792 931.931 42.8987 932.411 43.112C932.891 43.3147 933.248 43.6347 933.483 44.072C933.717 44.4987 933.835 45.0373 933.835 45.688V51H932.155V45.912C932.155 45.7093 932.128 45.512 932.075 45.32C932.032 45.1173 931.941 44.936 931.803 44.776C931.675 44.6053 931.483 44.472 931.227 44.376C930.981 44.28 930.656 44.232 930.251 44.232C929.963 44.232 929.664 44.2587 929.355 44.312C929.056 44.3653 928.773 44.44 928.507 44.536V51H926.827V43.624ZM939.706 51.208C938.98 51.208 938.404 51.016 937.978 50.632C937.562 50.248 937.354 49.6827 937.354 48.936V44.36H936.058V42.968H937.354V40.728H939.082V42.968H941.034V44.36H939.082V48.6C939.082 48.9733 939.146 49.256 939.274 49.448C939.412 49.6293 939.663 49.72 940.026 49.72C940.207 49.72 940.388 49.6987 940.57 49.656C940.751 49.6027 940.906 49.5387 941.034 49.464V50.952C940.842 51.0373 940.623 51.1013 940.378 51.144C940.143 51.1867 939.919 51.208 939.706 51.208ZM943.622 51V39.576H945.302V44.168L944.806 43.752C945.222 43.464 945.681 43.2347 946.182 43.064C946.694 42.8827 947.19 42.792 947.67 42.792C948.299 42.792 948.838 42.904 949.286 43.128C949.734 43.3413 950.081 43.688 950.326 44.168C950.582 44.6373 950.71 45.256 950.71 46.024V51H949.03V46.232C949.03 45.5813 948.875 45.0853 948.566 44.744C948.257 44.4027 947.798 44.232 947.19 44.232C946.87 44.232 946.545 44.28 946.214 44.376C945.894 44.472 945.59 44.6 945.302 44.76L945.286 51H943.622ZM956.035 51.24C955.459 51.24 954.969 51.176 954.563 51.048C954.169 50.9307 953.779 50.7813 953.395 50.6V49.016C953.673 49.1867 953.945 49.3413 954.211 49.48C954.478 49.608 954.755 49.7093 955.043 49.784C955.342 49.8587 955.673 49.896 956.035 49.896C956.494 49.896 956.851 49.8 957.107 49.608C957.374 49.416 957.507 49.176 957.507 48.888C957.507 48.6427 957.422 48.4507 957.251 48.312C957.091 48.1733 956.883 48.056 956.627 47.96C956.371 47.864 956.105 47.768 955.827 47.672C955.539 47.5973 955.251 47.512 954.963 47.416C954.675 47.3093 954.409 47.1707 954.163 47C953.929 46.8187 953.737 46.5893 953.587 46.312C953.449 46.0347 953.379 45.6933 953.379 45.288C953.379 44.84 953.47 44.4613 953.651 44.152C953.833 43.832 954.067 43.576 954.355 43.384C954.654 43.1813 954.979 43.0373 955.331 42.952C955.694 42.856 956.046 42.808 956.387 42.808C956.953 42.8187 957.411 42.888 957.763 43.016C958.126 43.144 958.478 43.2987 958.819 43.48L958.835 44.92C958.451 44.7173 958.089 44.5413 957.747 44.392C957.406 44.2427 957.011 44.168 956.563 44.168C956.147 44.168 955.801 44.248 955.523 44.408C955.246 44.5573 955.107 44.7813 955.107 45.08C955.107 45.336 955.182 45.5387 955.331 45.688C955.491 45.8373 955.694 45.9547 955.939 46.04C956.195 46.1253 956.467 46.2107 956.755 46.296C957.022 46.3813 957.299 46.472 957.587 46.568C957.875 46.6533 958.142 46.7813 958.387 46.952C958.633 47.1227 958.83 47.3467 958.979 47.624C959.139 47.9013 959.219 48.264 959.219 48.712C959.209 49.3093 959.049 49.7947 958.739 50.168C958.441 50.5413 958.046 50.8133 957.555 50.984C957.065 51.1547 956.558 51.24 956.035 51.24Z" fill="white"/>
<path d="M983.209 44.625L980 47.8333L976.792 44.625" stroke="white" stroke-width="1.5" stroke-linecap="round" stroke-linejoin="round"/>
<rect x="730.5" y="26.5" width="270" height="36" rx="3.5" stroke="#05B050"/>
<path d="M66.124 408.096C65.812 408.096 65.524 408.06 65.26 407.988C64.996 407.908 64.756 407.804 64.54 407.676V406.776C64.74 406.912 64.96 407.028 65.2 407.124C65.448 407.212 65.72 407.256 66.016 407.256C66.56 407.256 66.952 407.124 67.192 406.86C67.432 406.588 67.552 406.148 67.552 405.54V399.996H68.416V405.612C68.416 406.124 68.344 406.544 68.2 406.872C68.064 407.192 67.884 407.444 67.66 407.628C67.436 407.804 67.188 407.928 66.916 408C66.652 408.064 66.388 408.096 66.124 408.096ZM72.9415 408.18C72.6775 408.18 72.4095 408.152 72.1375 408.096C71.8735 408.04 71.6255 407.944 71.3935 407.808C71.1695 407.672 70.9855 407.488 70.8415 407.256C70.7055 407.016 70.6375 406.716 70.6375 406.356C70.6375 405.86 70.7295 405.464 70.9135 405.168C71.1055 404.864 71.3655 404.648 71.6935 404.52C72.0295 404.384 72.4135 404.316 72.8455 404.316C73.1735 404.316 73.4575 404.336 73.6975 404.376C73.9375 404.416 74.1495 404.476 74.3335 404.556C74.5255 404.628 74.6975 404.712 74.8495 404.808L75.0175 405.6C74.8335 405.464 74.5655 405.348 74.2135 405.252C73.8695 405.148 73.4895 405.096 73.0735 405.096C72.5695 405.096 72.1815 405.192 71.9095 405.384C71.6375 405.576 71.5015 405.856 71.5015 406.224C71.5015 406.52 71.5815 406.756 71.7415 406.932C71.9095 407.108 72.1175 407.232 72.3655 407.304C72.6215 407.376 72.8815 407.412 73.1455 407.412C73.6655 407.412 74.0575 407.376 74.3215 407.304C74.5935 407.224 74.7295 407.048 74.7295 406.776V404.028C74.7295 403.564 74.5935 403.224 74.3215 403.008C74.0495 402.792 73.6615 402.684 73.1575 402.684C72.8375 402.684 72.4975 402.732 72.1375 402.828C71.7855 402.916 71.4815 403.06 71.2255 403.26V402.396C71.4735 402.236 71.8055 402.116 72.2215 402.036C72.6375 401.948 73.0415 401.904 73.4335 401.904C73.6975 401.904 73.9415 401.932 74.1655 401.988C74.3895 402.036 74.5895 402.112 74.7655 402.216C74.9415 402.312 75.0895 402.44 75.2095 402.6C75.3375 402.752 75.4335 402.932 75.4975 403.14C75.5695 403.34 75.6055 403.568 75.6055 403.824V406.728C75.6055 407.152 75.4775 407.468 75.2215 407.676C74.9735 407.884 74.6455 408.02 74.2375 408.084C73.8375 408.148 73.4055 408.18 72.9415 408.18ZM78.002 402.492C78.194 402.396 78.39 402.312 78.59 402.24C78.798 402.16 79.006 402.096 79.214 402.048C79.43 402 79.646 401.964 79.862 401.94C80.086 401.916 80.31 401.904 80.534 401.904C81.118 401.904 81.582 401.992 81.926 402.168C82.27 402.336 82.518 402.584 82.67 402.912C82.83 403.24 82.91 403.636 82.91 404.1V408H82.046V404.1C82.046 403.956 82.026 403.804 81.986 403.644C81.954 403.484 81.886 403.332 81.782 403.188C81.678 403.036 81.518 402.916 81.302 402.828C81.086 402.732 80.798 402.684 80.438 402.684C80.19 402.684 79.934 402.704 79.67 402.744C79.406 402.784 79.138 402.844 78.866 402.924V408H78.002V402.492Z" fill="#9CA3AF"/>
<path d="M145.292 408V399.996H150.2V400.812H146.156V403.572H149.708V404.412H146.156V408H145.292ZM154.349 408.18C153.781 408.18 153.289 408.064 152.873 407.832C152.457 407.592 152.137 407.236 151.913 406.764C151.689 406.292 151.577 405.704 151.577 405C151.577 403.968 151.809 403.196 152.273 402.684C152.745 402.164 153.389 401.904 154.205 401.904C154.845 401.904 155.357 402.048 155.741 402.336C156.133 402.624 156.413 403.012 156.581 403.5C156.749 403.988 156.829 404.54 156.821 405.156H152.009L152.069 404.364H156.257L155.921 404.484C155.897 403.884 155.745 403.436 155.465 403.14C155.193 402.844 154.773 402.696 154.205 402.696C153.813 402.696 153.485 402.768 153.221 402.912C152.965 403.056 152.773 403.308 152.645 403.668C152.517 404.02 152.453 404.516 152.453 405.156C152.453 405.884 152.621 406.44 152.957 406.824C153.301 407.2 153.781 407.388 154.397 407.388C154.693 407.388 154.965 407.368 155.213 407.328C155.461 407.28 155.689 407.216 155.897 407.136C156.105 407.056 156.289 406.968 156.449 406.872V407.76C156.161 407.896 155.841 408 155.489 408.072C155.145 408.144 154.765 408.18 154.349 408.18ZM161.283 408.18C160.971 408.18 160.671 408.16 160.383 408.12C160.103 408.088 159.851 408.028 159.627 407.94C159.411 407.844 159.239 407.72 159.111 407.568C158.983 407.416 158.919 407.22 158.919 406.98V399.48H159.783V402.696L159.483 402.396C159.643 402.316 159.835 402.24 160.059 402.168C160.291 402.096 160.527 402.036 160.767 401.988C161.007 401.94 161.215 401.916 161.391 401.916C162.319 401.916 163.007 402.188 163.455 402.732C163.903 403.268 164.127 404 164.127 404.928C164.127 405.616 164.035 406.176 163.851 406.608C163.667 407.032 163.431 407.36 163.143 407.592C162.863 407.816 162.559 407.968 162.231 408.048C161.903 408.136 161.587 408.18 161.283 408.18ZM161.199 407.388C161.767 407.388 162.195 407.272 162.483 407.04C162.771 406.808 162.963 406.508 163.059 406.14C163.163 405.764 163.215 405.36 163.215 404.928C163.215 404.488 163.151 404.104 163.023 403.776C162.903 403.44 162.711 403.18 162.447 402.996C162.183 402.804 161.831 402.708 161.391 402.708C161.143 402.708 160.875 402.744 160.587 402.816C160.299 402.88 160.031 402.984 159.783 403.128V406.776C159.783 406.952 159.859 407.084 160.011 407.172C160.171 407.26 160.359 407.32 160.575 407.352C160.799 407.376 161.007 407.388 161.199 407.388Z" fill="#9CA3AF"/>
<path d="M226.566 408V399.996H227.502L230.466 404.544L229.878 404.676L233.01 399.996H233.946V408H233.082V400.86H233.466L230.166 405.492L227.118 400.956L227.43 400.512V408H226.566ZM238.472 408.18C238.208 408.18 237.94 408.152 237.668 408.096C237.404 408.04 237.156 407.944 236.924 407.808C236.7 407.672 236.516 407.488 236.372 407.256C236.236 407.016 236.168 406.716 236.168 406.356C236.168 405.86 236.26 405.464 236.444 405.168C236.636 404.864 236.896 404.648 237.224 404.52C237.56 404.384 237.944 404.316 238.376 404.316C238.704 404.316 238.988 404.336 239.228 404.376C239.468 404.416 239.68 404.476 239.864 404.556C240.056 404.628 240.228 404.712 240.38 404.808L240.548 405.6C240.364 405.464 240.096 405.348 239.744 405.252C239.4 405.148 239.02 405.096 238.604 405.096C238.1 405.096 237.712 405.192 237.44 405.384C237.168 405.576 237.032 405.856 237.032 406.224C237.032 406.52 237.112 406.756 237.272 406.932C237.44 407.108 237.648 407.232 237.896 407.304C238.152 407.376 238.412 407.412 238.676 407.412C239.196 407.412 239.588 407.376 239.852 407.304C240.124 407.224 240.26 407.048 240.26 406.776V404.028C240.26 403.564 240.124 403.224 239.852 403.008C239.58 402.792 239.192 402.684 238.688 402.684C238.368 402.684 238.028 402.732 237.668 402.828C237.316 402.916 237.012 403.06 236.756 403.26V402.396C237.004 402.236 237.336 402.116 237.752 402.036C238.168 401.948 238.572 401.904 238.964 401.904C239.228 401.904 239.472 401.932 239.696 401.988C239.92 402.036 240.12 402.112 240.296 402.216C240.472 402.312 240.62 402.44 240.74 402.6C240.868 402.752 240.964 402.932 241.028 403.14C241.1 403.34 241.136 403.568 241.136 403.824V406.728C241.136 407.152 241.008 407.468 240.752 407.676C240.504 407.884 240.176 408.02 239.768 408.084C239.368 408.148 238.936 408.18 238.472 408.18ZM243.532 408V402.492C243.628 402.452 243.812 402.384 244.084 402.288C244.364 402.192 244.696 402.104 245.08 402.024C245.472 401.944 245.876 401.904 246.292 401.904C246.356 401.904 246.42 401.912 246.484 401.928C246.548 401.944 246.612 401.96 246.676 401.976V402.744C246.468 402.72 246.264 402.708 246.064 402.708C245.872 402.708 245.684 402.72 245.5 402.744C245.316 402.76 245.132 402.784 244.948 402.816C244.764 402.848 244.58 402.88 244.396 402.912V408H243.532Z" fill="#9CA3AF"/>
<path d="M308.058 408L311.25 399.996H312.114L315.294 408H314.37L311.598 400.8L311.778 400.776L308.994 408H308.058ZM309.462 405.504L309.834 404.676H313.758L313.818 405.504H309.462ZM319.321 408.168C319.145 408.168 318.945 408.144 318.721 408.096C318.505 408.048 318.293 407.988 318.085 407.916C317.877 407.844 317.693 407.768 317.533 407.688L317.833 407.388V410.604H316.969V403.092C316.969 402.844 317.045 402.644 317.197 402.492C317.357 402.34 317.561 402.224 317.809 402.144C318.057 402.056 318.321 401.996 318.601 401.964C318.881 401.924 319.145 401.904 319.393 401.904C319.873 401.904 320.325 402.004 320.749 402.204C321.173 402.404 321.517 402.744 321.781 403.224C322.045 403.696 322.177 404.34 322.177 405.156C322.177 405.772 322.065 406.308 321.841 406.764C321.625 407.212 321.305 407.56 320.881 407.808C320.457 408.048 319.937 408.168 319.321 408.168ZM319.321 407.376C319.761 407.376 320.121 407.284 320.401 407.1C320.689 406.908 320.905 406.644 321.049 406.308C321.193 405.972 321.265 405.588 321.265 405.156C321.265 404.724 321.217 404.32 321.121 403.944C321.025 403.568 320.841 403.268 320.569 403.044C320.297 402.812 319.901 402.696 319.381 402.696C318.965 402.696 318.601 402.744 318.289 402.84C317.985 402.936 317.833 403.072 317.833 403.248V406.956C318.081 407.1 318.329 407.208 318.577 407.28C318.825 407.344 319.073 407.376 319.321 407.376ZM324.281 408V402.492C324.377 402.452 324.561 402.384 324.833 402.288C325.113 402.192 325.445 402.104 325.829 402.024C326.221 401.944 326.625 401.904 327.041 401.904C327.105 401.904 327.169 401.912 327.233 401.928C327.297 401.944 327.361 401.96 327.425 401.976V402.744C327.217 402.72 327.013 402.708 326.813 402.708C326.621 402.708 326.433 402.72 326.249 402.744C326.065 402.76 325.881 402.784 325.697 402.816C325.513 402.848 325.329 402.88 325.145 402.912V408H324.281Z" fill="#9CA3AF"/>
<path d="M390.111 408V399.996H391.047L394.011 404.544L393.423 404.676L396.555 399.996H397.491V408H396.627V400.86H397.011L393.711 405.492L390.663 400.956L390.975 400.512V408H390.111ZM402.017 408.18C401.753 408.18 401.485 408.152 401.213 408.096C400.949 408.04 400.701 407.944 400.469 407.808C400.245 407.672 400.061 407.488 399.917 407.256C399.781 407.016 399.713 406.716 399.713 406.356C399.713 405.86 399.805 405.464 399.989 405.168C400.181 404.864 400.441 404.648 400.769 404.52C401.105 404.384 401.489 404.316 401.921 404.316C402.249 404.316 402.533 404.336 402.773 404.376C403.013 404.416 403.225 404.476 403.409 404.556C403.601 404.628 403.773 404.712 403.925 404.808L404.093 405.6C403.909 405.464 403.641 405.348 403.289 405.252C402.945 405.148 402.565 405.096 402.149 405.096C401.645 405.096 401.257 405.192 400.985 405.384C400.713 405.576 400.577 405.856 400.577 406.224C400.577 406.52 400.657 406.756 400.817 406.932C400.985 407.108 401.193 407.232 401.441 407.304C401.697 407.376 401.957 407.412 402.221 407.412C402.741 407.412 403.133 407.376 403.397 407.304C403.669 407.224 403.805 407.048 403.805 406.776V404.028C403.805 403.564 403.669 403.224 403.397 403.008C403.125 402.792 402.737 402.684 402.233 402.684C401.913 402.684 401.573 402.732 401.213 402.828C400.861 402.916 400.557 403.06 400.301 403.26V402.396C400.549 402.236 400.881 402.116 401.297 402.036C401.713 401.948 402.117 401.904 402.509 401.904C402.773 401.904 403.017 401.932 403.241 401.988C403.465 402.036 403.665 402.112 403.841 402.216C404.017 402.312 404.165 402.44 404.285 402.6C404.413 402.752 404.509 402.932 404.573 403.14C404.645 403.34 404.681 403.568 404.681 403.824V406.728C404.681 407.152 404.553 407.468 404.297 407.676C404.049 407.884 403.721 408.02 403.313 408.084C402.913 408.148 402.481 408.18 402.017 408.18ZM407.491 410.316C407.371 410.316 407.263 410.304 407.167 410.28C407.071 410.256 406.991 410.232 406.927 410.208V409.416C406.983 409.44 407.055 409.464 407.143 409.488C407.231 409.512 407.331 409.524 407.443 409.524C407.715 409.524 407.935 409.448 408.103 409.296C408.271 409.144 408.411 408.94 408.523 408.684C408.643 408.428 408.751 408.144 408.847 407.832V408.18L406.303 402.012H407.287L409.279 407.124H409.099L411.079 402.012H411.943L409.375 408.588C409.191 409.06 408.987 409.42 408.763 409.668C408.547 409.916 408.327 410.084 408.103 410.172C407.887 410.268 407.683 410.316 407.491 410.316Z" fill="#9CA3AF"/>
<path d="M475.487 408.096C475.175 408.096 474.887 408.06 474.623 407.988C474.359 407.908 474.119 407.804 473.903 407.676V406.776C474.103 406.912 474.323 407.028 474.563 407.124C474.811 407.212 475.083 407.256 475.379 407.256C475.923 407.256 476.315 407.124 476.555 406.86C476.795 406.588 476.915 406.148 476.915 405.54V399.996H477.779V405.612C477.779 406.124 477.707 406.544 477.563 406.872C477.427 407.192 477.247 407.444 477.023 407.628C476.799 407.804 476.551 407.928 476.279 408C476.015 408.064 475.751 408.096 475.487 408.096ZM482.749 408.18C482.221 408.18 481.769 408.088 481.393 407.904C481.017 407.72 480.729 407.452 480.529 407.1C480.337 406.748 480.241 406.316 480.241 405.804V402.012H481.105V405.612C481.105 406.22 481.237 406.668 481.501 406.956C481.773 407.236 482.189 407.376 482.749 407.376C483.309 407.376 483.721 407.236 483.985 406.956C484.257 406.668 484.393 406.22 484.393 405.612V402.012H485.257V405.804C485.257 406.564 485.037 407.152 484.597 407.568C484.165 407.976 483.549 408.18 482.749 408.18ZM487.658 402.492C487.85 402.396 488.046 402.312 488.246 402.24C488.454 402.16 488.662 402.096 488.87 402.048C489.086 402 489.302 401.964 489.518 401.94C489.742 401.916 489.966 401.904 490.19 401.904C490.774 401.904 491.238 401.992 491.582 402.168C491.926 402.336 492.174 402.584 492.326 402.912C492.486 403.24 492.566 403.636 492.566 404.1V408H491.702V404.1C491.702 403.956 491.682 403.804 491.642 403.644C491.61 403.484 491.542 403.332 491.438 403.188C491.334 403.036 491.174 402.916 490.958 402.828C490.742 402.732 490.454 402.684 490.094 402.684C489.846 402.684 489.59 402.704 489.326 402.744C489.062 402.784 488.794 402.844 488.522 402.924V408H487.658V402.492Z" fill="#9CA3AF"/>
<path d="M556.761 408.096C556.449 408.096 556.161 408.06 555.897 407.988C555.633 407.908 555.393 407.804 555.177 407.676V406.776C555.377 406.912 555.597 407.028 555.837 407.124C556.085 407.212 556.357 407.256 556.653 407.256C557.197 407.256 557.589 407.124 557.829 406.86C558.069 406.588 558.189 406.148 558.189 405.54V399.996H559.053V405.612C559.053 406.124 558.981 406.544 558.837 406.872C558.701 407.192 558.521 407.444 558.297 407.628C558.073 407.804 557.825 407.928 557.553 408C557.289 408.064 557.025 408.096 556.761 408.096ZM564.022 408.18C563.494 408.18 563.042 408.088 562.666 407.904C562.29 407.72 562.002 407.452 561.802 407.1C561.61 406.748 561.514 406.316 561.514 405.804V402.012H562.378V405.612C562.378 406.22 562.51 406.668 562.774 406.956C563.046 407.236 563.462 407.376 564.022 407.376C564.582 407.376 564.994 407.236 565.258 406.956C565.53 406.668 565.666 406.22 565.666 405.612V402.012H566.53V405.804C566.53 406.564 566.31 407.152 565.87 407.568C565.438 407.976 564.822 408.18 564.022 408.18ZM569.796 408H568.932V399.732H569.796V408Z" fill="#9CA3AF"/>
<path d="M632.149 408L635.341 399.996H636.205L639.385 408H638.461L635.689 400.8L635.869 400.776L633.085 408H632.149ZM633.553 405.504L633.925 404.676H637.849L637.909 405.504H633.553ZM643.568 408.18C643.04 408.18 642.588 408.088 642.212 407.904C641.836 407.72 641.548 407.452 641.348 407.1C641.156 406.748 641.06 406.316 641.06 405.804V402.012H641.924V405.612C641.924 406.22 642.056 406.668 642.32 406.956C642.592 407.236 643.008 407.376 643.568 407.376C644.128 407.376 644.54 407.236 644.804 406.956C645.076 406.668 645.212 406.22 645.212 405.612V402.012H646.076V405.804C646.076 406.564 645.856 407.152 645.416 407.568C644.984 407.976 644.368 408.18 643.568 408.18ZM650.914 408.18C650.298 408.18 649.786 408.06 649.378 407.82C648.978 407.572 648.678 407.224 648.478 406.776C648.278 406.32 648.178 405.784 648.178 405.168C648.178 404.48 648.27 403.924 648.454 403.5C648.638 403.068 648.874 402.74 649.162 402.516C649.458 402.284 649.778 402.128 650.122 402.048C650.474 401.96 650.814 401.916 651.142 401.916C651.518 401.916 651.874 401.968 652.21 402.072C652.554 402.168 652.834 402.324 653.05 402.54C653.274 402.756 653.386 403.044 653.386 403.404V408.252C653.386 408.492 653.35 408.736 653.278 408.984C653.206 409.232 653.074 409.46 652.882 409.668C652.698 409.884 652.434 410.056 652.09 410.184C651.754 410.312 651.318 410.376 650.782 410.376C650.438 410.376 650.122 410.344 649.834 410.28C649.546 410.216 649.294 410.156 649.078 410.1V409.284C649.206 409.316 649.35 409.352 649.51 409.392C649.678 409.44 649.858 409.48 650.05 409.512C650.25 409.544 650.462 409.56 650.686 409.56C651.23 409.56 651.63 409.492 651.886 409.356C652.15 409.228 652.322 409.064 652.402 408.864C652.482 408.672 652.522 408.476 652.522 408.276V407.4L652.822 407.7C652.67 407.78 652.478 407.856 652.246 407.928C652.014 408 651.778 408.06 651.538 408.108C651.298 408.156 651.09 408.18 650.914 408.18ZM650.914 407.388C651.17 407.388 651.438 407.356 651.718 407.292C652.006 407.22 652.274 407.112 652.522 406.968V403.524C652.522 403.3 652.458 403.132 652.33 403.02C652.21 402.9 652.046 402.82 651.838 402.78C651.63 402.732 651.406 402.708 651.166 402.708C650.582 402.708 650.142 402.824 649.846 403.056C649.55 403.28 649.35 403.58 649.246 403.956C649.142 404.332 649.09 404.736 649.09 405.168C649.09 405.824 649.23 406.36 649.51 406.776C649.79 407.184 650.258 407.388 650.914 407.388Z" fill="#9CA3AF"/>
<path d="M718.47 408.12C718.07 408.12 717.73 408.092 717.45 408.036C717.17 407.98 716.918 407.9 716.694 407.796C716.47 407.692 716.226 407.572 715.962 407.436V406.5C716.218 406.716 716.562 406.908 716.994 407.076C717.426 407.244 717.93 407.328 718.506 407.328C719.114 407.328 719.554 407.2 719.826 406.944C720.106 406.68 720.246 406.348 720.246 405.948C720.246 405.612 720.154 405.344 719.97 405.144C719.786 404.936 719.55 404.768 719.262 404.64C718.974 404.504 718.67 404.376 718.35 404.256C718.078 404.16 717.806 404.06 717.534 403.956C717.27 403.844 717.03 403.708 716.814 403.548C716.598 403.38 716.426 403.168 716.298 402.912C716.17 402.648 716.106 402.32 716.106 401.928C716.106 401.712 716.146 401.484 716.226 401.244C716.314 401.004 716.45 400.78 716.634 400.572C716.826 400.364 717.078 400.196 717.39 400.068C717.71 399.94 718.098 399.876 718.554 399.876C718.866 399.876 719.13 399.9 719.346 399.948C719.57 399.988 719.782 400.052 719.982 400.14C720.182 400.22 720.406 400.32 720.654 400.44V401.328C720.446 401.208 720.246 401.1 720.054 401.004C719.87 400.9 719.662 400.82 719.43 400.764C719.206 400.7 718.93 400.668 718.602 400.668C718.21 400.668 717.894 400.724 717.654 400.836C717.422 400.948 717.25 401.096 717.138 401.28C717.034 401.464 716.982 401.66 716.982 401.868C716.982 402.196 717.054 402.456 717.198 402.648C717.35 402.84 717.558 403 717.822 403.128C718.094 403.248 718.406 403.368 718.758 403.488C719.038 403.584 719.318 403.692 719.598 403.812C719.878 403.924 720.13 404.068 720.354 404.244C720.586 404.412 720.77 404.628 720.906 404.892C721.05 405.148 721.122 405.468 721.122 405.852C721.122 406.212 721.042 406.568 720.882 406.92C720.722 407.264 720.45 407.552 720.066 407.784C719.682 408.008 719.15 408.12 718.47 408.12ZM725.75 408.18C725.182 408.18 724.69 408.064 724.274 407.832C723.858 407.592 723.538 407.236 723.314 406.764C723.09 406.292 722.978 405.704 722.978 405C722.978 403.968 723.21 403.196 723.674 402.684C724.146 402.164 724.79 401.904 725.606 401.904C726.246 401.904 726.758 402.048 727.142 402.336C727.534 402.624 727.814 403.012 727.982 403.5C728.15 403.988 728.23 404.54 728.222 405.156H723.41L723.47 404.364H727.658L727.322 404.484C727.298 403.884 727.146 403.436 726.866 403.14C726.594 402.844 726.174 402.696 725.606 402.696C725.214 402.696 724.886 402.768 724.622 402.912C724.366 403.056 724.174 403.308 724.046 403.668C723.918 404.02 723.854 404.516 723.854 405.156C723.854 405.884 724.022 406.44 724.358 406.824C724.702 407.2 725.182 407.388 725.798 407.388C726.094 407.388 726.366 407.368 726.614 407.328C726.862 407.28 727.09 407.216 727.298 407.136C727.506 407.056 727.69 406.968 727.85 406.872V407.76C727.562 407.896 727.242 408 726.89 408.072C726.546 408.144 726.166 408.18 725.75 408.18ZM732.672 408.168C732.496 408.168 732.296 408.144 732.072 408.096C731.856 408.048 731.644 407.988 731.436 407.916C731.228 407.844 731.044 407.768 730.884 407.688L731.184 407.388V410.604H730.32V403.092C730.32 402.844 730.396 402.644 730.548 402.492C730.708 402.34 730.912 402.224 731.16 402.144C731.408 402.056 731.672 401.996 731.952 401.964C732.232 401.924 732.496 401.904 732.744 401.904C733.224 401.904 733.676 402.004 734.1 402.204C734.524 402.404 734.868 402.744 735.132 403.224C735.396 403.696 735.528 404.34 735.528 405.156C735.528 405.772 735.416 406.308 735.192 406.764C734.976 407.212 734.656 407.56 734.232 407.808C733.808 408.048 733.288 408.168 732.672 408.168ZM732.672 407.376C733.112 407.376 733.472 407.284 733.752 407.1C734.04 406.908 734.256 406.644 734.4 406.308C734.544 405.972 734.616 405.588 734.616 405.156C734.616 404.724 734.568 404.32 734.472 403.944C734.376 403.568 734.192 403.268 733.92 403.044C733.648 402.812 733.252 402.696 732.732 402.696C732.316 402.696 731.952 402.744 731.64 402.84C731.336 402.936 731.184 403.072 731.184 403.248V406.956C731.432 407.1 731.68 407.208 731.928 407.28C732.176 407.344 732.424 407.376 732.672 407.376Z" fill="#9CA3AF"/>
<path d="M801.762 408.12C800.97 408.12 800.306 407.968 799.77 407.664C799.242 407.352 798.842 406.892 798.57 406.284C798.306 405.676 798.174 404.916 798.174 404.004C798.174 402.644 798.474 401.62 799.074 400.932C799.682 400.236 800.578 399.888 801.762 399.888C802.562 399.888 803.226 400.044 803.754 400.356C804.29 400.66 804.69 401.116 804.954 401.724C805.226 402.332 805.362 403.092 805.362 404.004C805.362 405.364 805.058 406.392 804.45 407.088C803.85 407.776 802.954 408.12 801.762 408.12ZM801.762 407.304C802.394 407.304 802.91 407.188 803.31 406.956C803.71 406.724 804.002 406.364 804.186 405.876C804.378 405.388 804.474 404.764 804.474 404.004C804.474 403.244 804.378 402.624 804.186 402.144C804.002 401.656 803.71 401.296 803.31 401.064C802.91 400.824 802.394 400.704 801.762 400.704C801.138 400.704 800.626 400.824 800.226 401.064C799.826 401.296 799.53 401.656 799.338 402.144C799.154 402.624 799.062 403.244 799.062 404.004C799.062 404.764 799.154 405.388 799.338 405.876C799.53 406.364 799.826 406.724 800.226 406.956C800.626 407.188 801.138 407.304 801.762 407.304ZM810.027 408.096C809.707 408.096 809.379 408.056 809.043 407.976C808.715 407.888 808.411 407.736 808.131 407.52C807.859 407.296 807.639 406.98 807.471 406.572C807.303 406.164 807.219 405.64 807.219 405C807.219 404.36 807.303 403.84 807.471 403.44C807.639 403.032 807.859 402.716 808.131 402.492C808.411 402.268 808.715 402.116 809.043 402.036C809.379 401.948 809.707 401.904 810.027 401.904C810.331 401.904 810.631 401.932 810.927 401.988C811.231 402.044 811.523 402.128 811.803 402.24V403.068C811.539 402.956 811.267 402.872 810.987 402.816C810.707 402.76 810.419 402.732 810.123 402.732C809.411 402.732 808.891 402.912 808.563 403.272C808.243 403.632 808.083 404.208 808.083 405C808.083 405.8 808.243 406.38 808.563 406.74C808.891 407.092 809.411 407.268 810.123 407.268C810.419 407.268 810.707 407.24 810.987 407.184C811.267 407.128 811.539 407.044 811.803 406.932V407.772C811.523 407.876 811.231 407.956 810.927 408.012C810.631 408.068 810.331 408.096 810.027 408.096ZM815.789 408.096C815.365 408.096 815.009 407.968 814.721 407.712C814.433 407.448 814.289 407.06 814.289 406.548V402.804H813.245V402.012H814.289V400.32H815.153V402.012H816.701V402.804H815.153V406.272C815.153 406.608 815.205 406.86 815.309 407.028C815.413 407.196 815.625 407.28 815.945 407.28C816.089 407.28 816.229 407.268 816.365 407.244C816.501 407.212 816.613 407.176 816.701 407.136V407.952C816.589 407.992 816.445 408.024 816.269 408.048C816.101 408.08 815.941 408.096 815.789 408.096Z" fill="#9CA3AF"/>
<path d="M878.748 408V399.996H879.732L884.724 407.04L884.508 407.376V399.996H885.372V408H884.4L879.216 400.692L879.612 400.32V408H878.748ZM890.288 408.18C889.352 408.18 888.656 407.904 888.2 407.352C887.752 406.792 887.528 406.016 887.528 405.024C887.528 403.984 887.764 403.204 888.236 402.684C888.716 402.164 889.392 401.904 890.264 401.904C890.912 401.904 891.44 402.036 891.848 402.3C892.256 402.556 892.556 402.92 892.748 403.392C892.94 403.856 893.036 404.4 893.036 405.024C893.036 406.008 892.796 406.78 892.316 407.34C891.844 407.9 891.168 408.18 890.288 408.18ZM890.276 407.388C890.764 407.388 891.144 407.284 891.416 407.076C891.688 406.86 891.88 406.576 891.992 406.224C892.112 405.864 892.172 405.464 892.172 405.024C892.172 404.552 892.112 404.144 891.992 403.8C891.872 403.448 891.672 403.176 891.392 402.984C891.12 402.792 890.748 402.696 890.276 402.696C889.796 402.696 889.42 402.8 889.148 403.008C888.876 403.216 888.68 403.496 888.56 403.848C888.448 404.192 888.392 404.584 888.392 405.024C888.392 405.728 888.532 406.3 888.812 406.74C889.092 407.172 889.58 407.388 890.276 407.388ZM896.71 408L894.178 402.012H895.102L897.31 407.256L897.118 407.304L899.266 402.012H900.13L897.586 408H896.71Z" fill="#9CA3AF"/>
<path d="M962.02 408V399.996H964.528C965.776 399.996 966.712 400.332 967.336 401.004C967.968 401.668 968.284 402.664 968.284 403.992C968.284 405.32 967.968 406.32 967.336 406.992C966.712 407.664 965.776 408 964.528 408H962.02ZM962.884 407.184H964.468C965.492 407.184 966.236 406.928 966.7 406.416C967.164 405.904 967.396 405.096 967.396 403.992C967.396 402.888 967.164 402.08 966.7 401.568C966.236 401.056 965.492 400.8 964.468 400.8H962.884V407.184ZM972.916 408.18C972.348 408.18 971.856 408.064 971.44 407.832C971.024 407.592 970.704 407.236 970.48 406.764C970.256 406.292 970.144 405.704 970.144 405C970.144 403.968 970.376 403.196 970.84 402.684C971.312 402.164 971.956 401.904 972.772 401.904C973.412 401.904 973.924 402.048 974.308 402.336C974.7 402.624 974.98 403.012 975.148 403.5C975.316 403.988 975.396 404.54 975.388 405.156H970.576L970.636 404.364H974.824L974.488 404.484C974.464 403.884 974.312 403.436 974.032 403.14C973.76 402.844 973.34 402.696 972.772 402.696C972.38 402.696 972.052 402.768 971.788 402.912C971.532 403.056 971.34 403.308 971.212 403.668C971.084 404.02 971.02 404.516 971.02 405.156C971.02 405.884 971.188 406.44 971.524 406.824C971.868 407.2 972.348 407.388 972.964 407.388C973.26 407.388 973.532 407.368 973.78 407.328C974.028 407.28 974.256 407.216 974.464 407.136C974.672 407.056 974.856 406.968 975.016 406.872V407.76C974.728 407.896 974.408 408 974.056 408.072C973.712 408.144 973.332 408.18 972.916 408.18ZM979.994 408.096C979.674 408.096 979.346 408.056 979.01 407.976C978.682 407.888 978.378 407.736 978.098 407.52C977.826 407.296 977.606 406.98 977.438 406.572C977.27 406.164 977.186 405.64 977.186 405C977.186 404.36 977.27 403.84 977.438 403.44C977.606 403.032 977.826 402.716 978.098 402.492C978.378 402.268 978.682 402.116 979.01 402.036C979.346 401.948 979.674 401.904 979.994 401.904C980.298 401.904 980.598 401.932 980.894 401.988C981.198 402.044 981.49 402.128 981.77 402.24V403.068C981.506 402.956 981.234 402.872 980.954 402.816C980.674 402.76 980.386 402.732 980.09 402.732C979.378 402.732 978.858 402.912 978.53 403.272C978.21 403.632 978.05 404.208 978.05 405C978.05 405.8 978.21 406.38 978.53 406.74C978.858 407.092 979.378 407.268 980.09 407.268C980.386 407.268 980.674 407.24 980.954 407.184C981.234 407.128 981.506 407.044 981.77 406.932V407.772C981.49 407.876 981.198 407.956 980.894 408.012C980.598 408.068 980.298 408.096 979.994 408.096Z" fill="#9CA3AF"/>
<path d="M31.4658 107V99.896L29.8698 100.952V99.932L31.3458 98.996H32.3298V107H31.4658ZM35.4519 107V106.244C35.7239 106.044 36.0359 105.796 36.3879 105.5C36.7479 105.204 37.1079 104.88 37.4679 104.528C37.8359 104.168 38.1719 103.796 38.4759 103.412C38.7879 103.02 39.0399 102.632 39.2319 102.248C39.4239 101.864 39.5199 101.496 39.5199 101.144C39.5199 100.928 39.4719 100.716 39.3759 100.508C39.2799 100.292 39.0959 100.112 38.8239 99.968C38.5519 99.824 38.1559 99.752 37.6359 99.752C37.1559 99.752 36.7359 99.832 36.3759 99.992C36.0239 100.152 35.7439 100.304 35.5359 100.448V99.5C35.7919 99.34 36.0999 99.2 36.4599 99.08C36.8279 98.952 37.2439 98.888 37.7079 98.888C38.3639 98.888 38.8879 99 39.2799 99.224C39.6719 99.448 39.9519 99.732 40.1199 100.076C40.2959 100.42 40.3839 100.776 40.3839 101.144C40.3839 101.504 40.2919 101.88 40.1079 102.272C39.9319 102.664 39.6959 103.056 39.3999 103.448C39.1119 103.84 38.7919 104.22 38.4399 104.588C38.0879 104.956 37.7359 105.3 37.3839 105.62C37.0319 105.932 36.7119 106.204 36.4239 106.436L36.1719 106.136H40.5039V107H35.4519ZM45.5085 107.096C44.9725 107.096 44.5165 107.048 44.1405 106.952C43.7725 106.848 43.4645 106.732 43.2165 106.604V105.704C43.3285 105.768 43.4805 105.844 43.6725 105.932C43.8725 106.02 44.1205 106.096 44.4165 106.16C44.7125 106.224 45.0565 106.256 45.4485 106.256C45.8565 106.256 46.1765 106.204 46.4085 106.1C46.6485 105.988 46.8245 105.848 46.9365 105.68C47.0485 105.504 47.1205 105.32 47.1525 105.128C47.1845 104.928 47.2005 104.736 47.2005 104.552C47.2005 104.048 47.1125 103.68 46.9365 103.448C46.7685 103.208 46.5485 103.052 46.2765 102.98C46.0125 102.908 45.7365 102.872 45.4485 102.872C45.0245 102.872 44.6725 102.904 44.3925 102.968C44.1125 103.024 43.9045 103.084 43.7685 103.148C43.6325 103.212 43.5645 103.244 43.5645 103.244L43.0245 102.692L43.4325 98.996H47.5485V99.848H44.1765L43.9485 102.428L43.0965 102.572C43.4005 102.388 43.7685 102.248 44.2005 102.152C44.6325 102.056 45.0685 102.008 45.5085 102.008C45.7965 102.008 46.0885 102.044 46.3845 102.116C46.6885 102.188 46.9645 102.316 47.2125 102.5C47.4685 102.676 47.6725 102.932 47.8245 103.268C47.9765 103.596 48.0525 104.024 48.0525 104.552C48.0525 105.08 47.9765 105.512 47.8245 105.848C47.6725 106.176 47.4685 106.432 47.2125 106.616C46.9645 106.792 46.6885 106.916 46.3845 106.988C46.0885 107.06 45.7965 107.096 45.5085 107.096Z" fill="#9CA3AF"/>
<path d="M30.4658 164V156.896L28.8698 157.952V156.932L30.3458 155.996H31.3298V164H30.4658ZM37.4039 164.132C36.3639 164.132 35.5759 163.788 35.0399 163.1C34.5119 162.412 34.2479 161.388 34.2479 160.028C34.2479 158.668 34.5119 157.644 35.0399 156.956C35.5759 156.268 36.3639 155.924 37.4039 155.924C38.4519 155.924 39.2399 156.268 39.7679 156.956C40.2959 157.644 40.5599 158.668 40.5599 160.028C40.5599 161.388 40.2959 162.412 39.7679 163.1C39.2399 163.788 38.4519 164.132 37.4039 164.132ZM37.4039 163.34C37.6679 163.34 37.9359 163.304 38.2079 163.232C38.4799 163.16 38.7279 163.012 38.9519 162.788C39.1759 162.564 39.3559 162.232 39.4919 161.792C39.6279 161.352 39.6959 160.764 39.6959 160.028C39.6959 159.292 39.6279 158.704 39.4919 158.264C39.3559 157.824 39.1759 157.496 38.9519 157.28C38.7279 157.056 38.4799 156.908 38.2079 156.836C37.9359 156.756 37.6679 156.716 37.4039 156.716C37.1399 156.716 36.8719 156.756 36.5999 156.836C36.3279 156.908 36.0799 157.056 35.8559 157.28C35.6319 157.496 35.4519 157.824 35.3159 158.264C35.1799 158.704 35.1119 159.292 35.1119 160.028C35.1119 160.764 35.1799 161.352 35.3159 161.792C35.4519 162.232 35.6319 162.564 35.8559 162.788C36.0799 163.012 36.3279 163.16 36.5999 163.232C36.8719 163.304 37.1399 163.34 37.4039 163.34ZM45.6417 164.132C44.6017 164.132 43.8137 163.788 43.2777 163.1C42.7497 162.412 42.4857 161.388 42.4857 160.028C42.4857 158.668 42.7497 157.644 43.2777 156.956C43.8137 156.268 44.6017 155.924 45.6417 155.924C46.6897 155.924 47.4777 156.268 48.0057 156.956C48.5337 157.644 48.7977 158.668 48.7977 160.028C48.7977 161.388 48.5337 162.412 48.0057 163.1C47.4777 163.788 46.6897 164.132 45.6417 164.132ZM45.6417 163.34C45.9057 163.34 46.1737 163.304 46.4457 163.232C46.7177 163.16 46.9657 163.012 47.1897 162.788C47.4137 162.564 47.5937 162.232 47.7297 161.792C47.8657 161.352 47.9337 160.764 47.9337 160.028C47.9337 159.292 47.8657 158.704 47.7297 158.264C47.5937 157.824 47.4137 157.496 47.1897 157.28C46.9657 157.056 46.7177 156.908 46.4457 156.836C46.1737 156.756 45.9057 156.716 45.6417 156.716C45.3777 156.716 45.1097 156.756 44.8377 156.836C44.5657 156.908 44.3177 157.056 44.0937 157.28C43.8697 157.496 43.6897 157.824 43.5537 158.264C43.4177 158.704 43.3497 159.292 43.3497 160.028C43.3497 160.764 43.4177 161.352 43.5537 161.792C43.6897 162.232 43.8697 162.564 44.0937 162.788C44.3177 163.012 44.5657 163.16 44.8377 163.232C45.1097 163.304 45.3777 163.34 45.6417 163.34Z" fill="#9CA3AF"/>
<path d="M36.5058 221L40.0938 213.584L40.1778 213.86H35.4738V212.996H40.9338V213.8L37.4658 221H36.5058ZM45.5324 221.096C44.9964 221.096 44.5404 221.048 44.1644 220.952C43.7964 220.848 43.4884 220.732 43.2404 220.604V219.704C43.3524 219.768 43.5044 219.844 43.6964 219.932C43.8964 220.02 44.1444 220.096 44.4404 220.16C44.7364 220.224 45.0804 220.256 45.4724 220.256C45.8804 220.256 46.2004 220.204 46.4324 220.1C46.6724 219.988 46.8484 219.848 46.9604 219.68C47.0724 219.504 47.1444 219.32 47.1764 219.128C47.2084 218.928 47.2244 218.736 47.2244 218.552C47.2244 218.048 47.1364 217.68 46.9604 217.448C46.7924 217.208 46.5724 217.052 46.3004 216.98C46.0364 216.908 45.7604 216.872 45.4724 216.872C45.0484 216.872 44.6964 216.904 44.4164 216.968C44.1364 217.024 43.9284 217.084 43.7924 217.148C43.6564 217.212 43.5884 217.244 43.5884 217.244L43.0484 216.692L43.4564 212.996H47.5724V213.848H44.2004L43.9724 216.428L43.1204 216.572C43.4244 216.388 43.7924 216.248 44.2244 216.152C44.6564 216.056 45.0924 216.008 45.5324 216.008C45.8204 216.008 46.1124 216.044 46.4084 216.116C46.7124 216.188 46.9884 216.316 47.2364 216.5C47.4924 216.676 47.6964 216.932 47.8484 217.268C48.0004 217.596 48.0764 218.024 48.0764 218.552C48.0764 219.08 48.0004 219.512 47.8484 219.848C47.6964 220.176 47.4924 220.432 47.2364 220.616C46.9884 220.792 46.7124 220.916 46.4084 220.988C46.1124 221.06 45.8204 221.096 45.5324 221.096Z" fill="#9CA3AF"/>
<path d="M37.1618 278.096C36.6258 278.096 36.1698 278.048 35.7938 277.952C35.4258 277.848 35.1178 277.732 34.8698 277.604V276.704C34.9818 276.768 35.1338 276.844 35.3258 276.932C35.5258 277.02 35.7738 277.096 36.0698 277.16C36.3658 277.224 36.7098 277.256 37.1018 277.256C37.5098 277.256 37.8298 277.204 38.0618 277.1C38.3018 276.988 38.4778 276.848 38.5898 276.68C38.7018 276.504 38.7738 276.32 38.8058 276.128C38.8378 275.928 38.8538 275.736 38.8538 275.552C38.8538 275.048 38.7658 274.68 38.5898 274.448C38.4218 274.208 38.2018 274.052 37.9298 273.98C37.6658 273.908 37.3898 273.872 37.1018 273.872C36.6778 273.872 36.3258 273.904 36.0458 273.968C35.7658 274.024 35.5578 274.084 35.4218 274.148C35.2858 274.212 35.2178 274.244 35.2178 274.244L34.6778 273.692L35.0858 269.996H39.2018V270.848H35.8298L35.6018 273.428L34.7498 273.572C35.0538 273.388 35.4218 273.248 35.8538 273.152C36.2858 273.056 36.7218 273.008 37.1618 273.008C37.4498 273.008 37.7418 273.044 38.0378 273.116C38.3418 273.188 38.6178 273.316 38.8658 273.5C39.1218 273.676 39.3258 273.932 39.4778 274.268C39.6298 274.596 39.7058 275.024 39.7058 275.552C39.7058 276.08 39.6298 276.512 39.4778 276.848C39.3258 277.176 39.1218 277.432 38.8658 277.616C38.6178 277.792 38.3418 277.916 38.0378 277.988C37.7418 278.06 37.4498 278.096 37.1618 278.096ZM44.7867 278.132C43.7467 278.132 42.9587 277.788 42.4227 277.1C41.8947 276.412 41.6307 275.388 41.6307 274.028C41.6307 272.668 41.8947 271.644 42.4227 270.956C42.9587 270.268 43.7467 269.924 44.7867 269.924C45.8347 269.924 46.6227 270.268 47.1507 270.956C47.6787 271.644 47.9427 272.668 47.9427 274.028C47.9427 275.388 47.6787 276.412 47.1507 277.1C46.6227 277.788 45.8347 278.132 44.7867 278.132ZM44.7867 277.34C45.0507 277.34 45.3187 277.304 45.5907 277.232C45.8627 277.16 46.1107 277.012 46.3347 276.788C46.5587 276.564 46.7387 276.232 46.8747 275.792C47.0107 275.352 47.0787 274.764 47.0787 274.028C47.0787 273.292 47.0107 272.704 46.8747 272.264C46.7387 271.824 46.5587 271.496 46.3347 271.28C46.1107 271.056 45.8627 270.908 45.5907 270.836C45.3187 270.756 45.0507 270.716 44.7867 270.716C44.5227 270.716 44.2547 270.756 43.9827 270.836C43.7107 270.908 43.4627 271.056 43.2387 271.28C43.0147 271.496 42.8347 271.824 42.6987 272.264C42.5627 272.704 42.4947 273.292 42.4947 274.028C42.4947 274.764 42.5627 275.352 42.6987 275.792C42.8347 276.232 43.0147 276.564 43.2387 276.788C43.4627 277.012 43.7107 277.16 43.9827 277.232C44.2547 277.304 44.5227 277.34 44.7867 277.34Z" fill="#9CA3AF"/>
<path d="M35.5578 335V334.244C35.8298 334.044 36.1418 333.796 36.4938 333.5C36.8538 333.204 37.2138 332.88 37.5738 332.528C37.9418 332.168 38.2778 331.796 38.5818 331.412C38.8938 331.02 39.1458 330.632 39.3378 330.248C39.5298 329.864 39.6258 329.496 39.6258 329.144C39.6258 328.928 39.5778 328.716 39.4818 328.508C39.3858 328.292 39.2018 328.112 38.9298 327.968C38.6578 327.824 38.2618 327.752 37.7418 327.752C37.2618 327.752 36.8418 327.832 36.4818 327.992C36.1298 328.152 35.8498 328.304 35.6418 328.448V327.5C35.8978 327.34 36.2058 327.2 36.5658 327.08C36.9338 326.952 37.3498 326.888 37.8138 326.888C38.4698 326.888 38.9938 327 39.3858 327.224C39.7778 327.448 40.0578 327.732 40.2258 328.076C40.4018 328.42 40.4898 328.776 40.4898 329.144C40.4898 329.504 40.3978 329.88 40.2138 330.272C40.0378 330.664 39.8018 331.056 39.5058 331.448C39.2178 331.84 38.8978 332.22 38.5458 332.588C38.1938 332.956 37.8418 333.3 37.4898 333.62C37.1378 333.932 36.8178 334.204 36.5298 334.436L36.2778 334.136H40.6098V335H35.5578ZM45.6144 335.096C45.0784 335.096 44.6224 335.048 44.2464 334.952C43.8784 334.848 43.5704 334.732 43.3224 334.604V333.704C43.4344 333.768 43.5864 333.844 43.7784 333.932C43.9784 334.02 44.2264 334.096 44.5224 334.16C44.8184 334.224 45.1624 334.256 45.5544 334.256C45.9624 334.256 46.2824 334.204 46.5144 334.1C46.7544 333.988 46.9304 333.848 47.0424 333.68C47.1544 333.504 47.2264 333.32 47.2584 333.128C47.2904 332.928 47.3064 332.736 47.3064 332.552C47.3064 332.048 47.2184 331.68 47.0424 331.448C46.8744 331.208 46.6544 331.052 46.3824 330.98C46.1184 330.908 45.8424 330.872 45.5544 330.872C45.1304 330.872 44.7784 330.904 44.4984 330.968C44.2184 331.024 44.0104 331.084 43.8744 331.148C43.7384 331.212 43.6704 331.244 43.6704 331.244L43.1304 330.692L43.5384 326.996H47.6544V327.848H44.2824L44.0544 330.428L43.2024 330.572C43.5064 330.388 43.8744 330.248 44.3064 330.152C44.7384 330.056 45.1744 330.008 45.6144 330.008C45.9024 330.008 46.1944 330.044 46.4904 330.116C46.7944 330.188 47.0704 330.316 47.3184 330.5C47.5744 330.676 47.7784 330.932 47.9304 331.268C48.0824 331.596 48.1584 332.024 48.1584 332.552C48.1584 333.08 48.0824 333.512 47.9304 333.848C47.7784 334.176 47.5744 334.432 47.3184 334.616C47.0704 334.792 46.7944 334.916 46.4904 334.988C46.1944 335.06 45.9024 335.096 45.6144 335.096Z" fill="#9CA3AF"/>
<path d="M45.5098 392.132C44.4698 392.132 43.6818 391.788 43.1458 391.1C42.6178 390.412 42.3538 389.388 42.3538 388.028C42.3538 386.668 42.6178 385.644 43.1458 384.956C43.6818 384.268 44.4698 383.924 45.5098 383.924C46.5578 383.924 47.3458 384.268 47.8738 384.956C48.4018 385.644 48.6658 386.668 48.6658 388.028C48.6658 389.388 48.4018 390.412 47.8738 391.1C47.3458 391.788 46.5578 392.132 45.5098 392.132ZM45.5098 391.34C45.7738 391.34 46.0418 391.304 46.3138 391.232C46.5858 391.16 46.8338 391.012 47.0578 390.788C47.2818 390.564 47.4618 390.232 47.5978 389.792C47.7338 389.352 47.8018 388.764 47.8018 388.028C47.8018 387.292 47.7338 386.704 47.5978 386.264C47.4618 385.824 47.2818 385.496 47.0578 385.28C46.8338 385.056 46.5858 384.908 46.3138 384.836C46.0418 384.756 45.7738 384.716 45.5098 384.716C45.2458 384.716 44.9778 384.756 44.7058 384.836C44.4338 384.908 44.1858 385.056 43.9618 385.28C43.7378 385.496 43.5578 385.824 43.4218 386.264C43.2858 386.704 43.2178 387.292 43.2178 388.028C43.2178 388.764 43.2858 389.352 43.4218 389.792C43.5578 390.232 43.7378 390.564 43.9618 390.788C44.1858 391.012 44.4338 391.16 44.7058 391.232C44.9778 391.304 45.2458 391.34 45.5098 391.34Z" fill="#9CA3AF"/>
<path d="M64.418 387V102" stroke="#F3F4F6"/>
<path d="M148.041 387V102" stroke="#F3F4F6"/>
<path d="M231.665 387V102" stroke="#F3F4F6"/>
<path d="M315.288 387V102" stroke="#F3F4F6"/>
<path d="M398.911 387V102" stroke="#F3F4F6"/>
<path d="M482.535 387V102" stroke="#F3F4F6"/>
<path d="M566.158 387V102" stroke="#F3F4F6"/>
<path d="M649.782 387V102" stroke="#F3F4F6"/>
<path d="M733.405 387V102" stroke="#F3F4F6"/>
<path d="M817.028 387V102" stroke="#F3F4F6"/>
<path d="M900.652 387V102" stroke="#F3F4F6"/>
<path d="M984.275 387V102" stroke="#F3F4F6"/>
<path d="M64.418 387H984.275" stroke="#F3F4F6"/>
<path d="M64.418 330H984.275" stroke="#F3F4F6"/>
<path d="M64.418 273H984.275" stroke="#F3F4F6"/>
<path d="M64.418 216H984.275" stroke="#F3F4F6"/>
<path d="M64.418 159H984.275" stroke="#F3F4F6"/>
<path d="M64.418 102H984.275" stroke="#F3F4F6"/>
<path d="M64.418 362C64.418 362 131.443 350.838 154.572 318C166.546 301 157.42 274.625 181.197 274.933C214.396 275.364 215.218 314.728 248.389 313.625C287.421 312.327 270.917 258.357 309.713 254.92C335.875 252.603 352.465 260.733 372.315 273.599C409.365 297.614 437.401 348.476 493.685 337.64C551.51 326.508 497.338 245.138 555.009 233.573C610.392 222.467 620.29 293.752 677.656 293.612C736.616 293.468 766.86 264.958 801.582 229.571C851.327 178.872 845.19 86.7527 922.952 104.157C951.776 110.608 984.275 138.846 984.275 138.846" stroke="#CD4647" stroke-width="2"/>
<path d="M64.418 387C64.418 387 91.9316 341.512 125.649 339.5C152.305 337.909 160.145 363.25 186.88 363.25C213.614 363.25 233.934 355.247 248.111 339.5C276.095 308.415 256.291 239.321 309.342 244.5C342.901 247.776 339.534 283.257 371.848 291.01C435.454 306.271 429.677 182.12 493.034 197.99C524.882 205.967 536.207 225.64 554.265 244.5C583.684 275.225 623.571 293.438 676.727 291.01C762.248 287.104 738.915 196.301 800.465 150.49C818.728 136.896 833.901 125.929 860.42 125.75C887.38 125.569 894.757 151.964 921.651 150.49C955.737 148.621 981.176 128.475 982.882 102" stroke="#05B050" stroke-width="2"/>
<path d="M64.418 387H984.275" stroke="#D1D5DB"/>
<path d="M64.418 387V102" stroke="#D1D5DB"/>
<circle cx="437" cy="454" r="6" fill="#05B050"/>
<path d="M454.836 459.14C454.369 459.14 453.973 459.107 453.646 459.042C453.319 458.977 453.025 458.883 452.764 458.762C452.503 458.641 452.218 458.501 451.91 458.342V457.25C452.209 457.502 452.61 457.726 453.114 457.922C453.618 458.118 454.206 458.216 454.878 458.216C455.587 458.216 456.101 458.067 456.418 457.768C456.745 457.46 456.908 457.073 456.908 456.606C456.908 456.214 456.801 455.901 456.586 455.668C456.371 455.425 456.096 455.229 455.76 455.08C455.424 454.921 455.069 454.772 454.696 454.632C454.379 454.52 454.061 454.403 453.744 454.282C453.436 454.151 453.156 453.993 452.904 453.806C452.652 453.61 452.451 453.363 452.302 453.064C452.153 452.756 452.078 452.373 452.078 451.916C452.078 451.664 452.125 451.398 452.218 451.118C452.321 450.838 452.479 450.577 452.694 450.334C452.918 450.091 453.212 449.895 453.576 449.746C453.949 449.597 454.402 449.522 454.934 449.522C455.298 449.522 455.606 449.55 455.858 449.606C456.119 449.653 456.367 449.727 456.6 449.83C456.833 449.923 457.095 450.04 457.384 450.18V451.216C457.141 451.076 456.908 450.95 456.684 450.838C456.469 450.717 456.227 450.623 455.956 450.558C455.695 450.483 455.373 450.446 454.99 450.446C454.533 450.446 454.164 450.511 453.884 450.642C453.613 450.773 453.413 450.945 453.282 451.16C453.161 451.375 453.1 451.603 453.1 451.846C453.1 452.229 453.184 452.532 453.352 452.756C453.529 452.98 453.772 453.167 454.08 453.316C454.397 453.456 454.761 453.596 455.172 453.736C455.499 453.848 455.825 453.974 456.152 454.114C456.479 454.245 456.773 454.413 457.034 454.618C457.305 454.814 457.519 455.066 457.678 455.374C457.846 455.673 457.93 456.046 457.93 456.494C457.93 456.914 457.837 457.329 457.65 457.74C457.463 458.141 457.146 458.477 456.698 458.748C456.25 459.009 455.629 459.14 454.836 459.14ZM462.294 459.21C461.986 459.21 461.673 459.177 461.356 459.112C461.048 459.047 460.758 458.935 460.488 458.776C460.226 458.617 460.012 458.403 459.844 458.132C459.685 457.852 459.606 457.502 459.606 457.082C459.606 456.503 459.713 456.041 459.928 455.696C460.152 455.341 460.455 455.089 460.838 454.94C461.23 454.781 461.678 454.702 462.182 454.702C462.564 454.702 462.896 454.725 463.176 454.772C463.456 454.819 463.703 454.889 463.918 454.982C464.142 455.066 464.342 455.164 464.52 455.276L464.716 456.2C464.501 456.041 464.188 455.906 463.778 455.794C463.376 455.673 462.933 455.612 462.448 455.612C461.86 455.612 461.407 455.724 461.09 455.948C460.772 456.172 460.614 456.499 460.614 456.928C460.614 457.273 460.707 457.549 460.894 457.754C461.09 457.959 461.332 458.104 461.622 458.188C461.92 458.272 462.224 458.314 462.532 458.314C463.138 458.314 463.596 458.272 463.904 458.188C464.221 458.095 464.38 457.889 464.38 457.572V454.366C464.38 453.825 464.221 453.428 463.904 453.176C463.586 452.924 463.134 452.798 462.546 452.798C462.172 452.798 461.776 452.854 461.356 452.966C460.945 453.069 460.59 453.237 460.292 453.47V452.462C460.581 452.275 460.968 452.135 461.454 452.042C461.939 451.939 462.41 451.888 462.868 451.888C463.176 451.888 463.46 451.921 463.722 451.986C463.983 452.042 464.216 452.131 464.422 452.252C464.627 452.364 464.8 452.513 464.94 452.7C465.089 452.877 465.201 453.087 465.276 453.33C465.36 453.563 465.402 453.829 465.402 454.128V457.516C465.402 458.011 465.252 458.379 464.954 458.622C464.664 458.865 464.282 459.023 463.806 459.098C463.339 459.173 462.835 459.21 462.294 459.21ZM468.646 459H467.638V449.354H468.646V459ZM473.775 459.21C473.113 459.21 472.539 459.075 472.053 458.804C471.568 458.524 471.195 458.109 470.933 457.558C470.672 457.007 470.541 456.321 470.541 455.5C470.541 454.296 470.812 453.395 471.353 452.798C471.904 452.191 472.655 451.888 473.607 451.888C474.354 451.888 474.951 452.056 475.399 452.392C475.857 452.728 476.183 453.181 476.379 453.75C476.575 454.319 476.669 454.963 476.659 455.682H471.045L471.115 454.758H476.001L475.609 454.898C475.581 454.198 475.404 453.675 475.077 453.33C474.76 452.985 474.27 452.812 473.607 452.812C473.15 452.812 472.767 452.896 472.459 453.064C472.161 453.232 471.937 453.526 471.787 453.946C471.638 454.357 471.563 454.935 471.563 455.682C471.563 456.531 471.759 457.18 472.151 457.628C472.553 458.067 473.113 458.286 473.831 458.286C474.177 458.286 474.494 458.263 474.783 458.216C475.073 458.16 475.339 458.085 475.581 457.992C475.824 457.899 476.039 457.796 476.225 457.684V458.72C475.889 458.879 475.516 459 475.105 459.084C474.704 459.168 474.261 459.21 473.775 459.21ZM480.522 459.21C480.018 459.21 479.593 459.159 479.248 459.056C478.912 458.953 478.562 458.809 478.198 458.622V457.558C478.487 457.717 478.744 457.852 478.968 457.964C479.192 458.076 479.42 458.16 479.654 458.216C479.887 458.263 480.153 458.286 480.452 458.286C480.918 458.286 481.296 458.183 481.586 457.978C481.884 457.773 482.034 457.507 482.034 457.18C482.034 456.919 481.959 456.718 481.81 456.578C481.67 456.438 481.488 456.321 481.264 456.228C481.04 456.135 480.806 456.037 480.564 455.934C480.293 455.859 480.018 455.78 479.738 455.696C479.467 455.603 479.215 455.486 478.982 455.346C478.758 455.197 478.576 455.01 478.436 454.786C478.296 454.553 478.226 454.254 478.226 453.89C478.226 453.535 478.296 453.232 478.436 452.98C478.585 452.728 478.776 452.523 479.01 452.364C479.243 452.196 479.504 452.075 479.794 452C480.083 451.925 480.372 451.888 480.662 451.888C481.082 451.888 481.441 451.944 481.74 452.056C482.038 452.168 482.346 452.294 482.664 452.434V453.442C482.309 453.255 481.992 453.106 481.712 452.994C481.432 452.873 481.1 452.812 480.718 452.812C480.335 452.812 479.99 452.891 479.682 453.05C479.383 453.199 479.234 453.433 479.234 453.75C479.234 454.011 479.308 454.221 479.458 454.38C479.616 454.529 479.822 454.651 480.074 454.744C480.326 454.828 480.596 454.912 480.886 454.996C481.119 455.071 481.362 455.155 481.614 455.248C481.866 455.332 482.099 455.449 482.314 455.598C482.528 455.738 482.701 455.925 482.832 456.158C482.972 456.391 483.042 456.69 483.042 457.054C483.042 457.549 482.916 457.959 482.664 458.286C482.412 458.603 482.09 458.837 481.698 458.986C481.315 459.135 480.923 459.21 480.522 459.21Z" fill="black"/>
<circle cx="525" cy="454" r="6" fill="#CD4647"/>
<path d="M540.19 459V449.662H544.026C544.941 449.662 545.627 449.891 546.084 450.348C546.551 450.805 546.784 451.482 546.784 452.378C546.784 452.919 546.672 453.4 546.448 453.82C546.224 454.24 545.911 454.571 545.51 454.814C545.109 455.057 544.637 455.178 544.096 455.178L544.516 454.898L547.204 459H546.014L543.242 454.716L543.746 455.234H541.198V459H540.19ZM541.198 454.282H543.564C544.339 454.282 544.899 454.128 545.244 453.82C545.599 453.503 545.776 453.045 545.776 452.448C545.776 451.888 545.645 451.445 545.384 451.118C545.123 450.782 544.633 450.614 543.914 450.614H541.198V454.282ZM551.836 459.21C551.173 459.21 550.599 459.075 550.114 458.804C549.629 458.524 549.255 458.109 548.994 457.558C548.733 457.007 548.602 456.321 548.602 455.5C548.602 454.296 548.873 453.395 549.414 452.798C549.965 452.191 550.716 451.888 551.668 451.888C552.415 451.888 553.012 452.056 553.46 452.392C553.917 452.728 554.244 453.181 554.44 453.75C554.636 454.319 554.729 454.963 554.72 455.682H549.106L549.176 454.758H554.062L553.67 454.898C553.642 454.198 553.465 453.675 553.138 453.33C552.821 452.985 552.331 452.812 551.668 452.812C551.211 452.812 550.828 452.896 550.52 453.064C550.221 453.232 549.997 453.526 549.848 453.946C549.699 454.357 549.624 454.935 549.624 455.682C549.624 456.531 549.82 457.18 550.212 457.628C550.613 458.067 551.173 458.286 551.892 458.286C552.237 458.286 552.555 458.263 552.844 458.216C553.133 458.16 553.399 458.085 553.642 457.992C553.885 457.899 554.099 457.796 554.286 457.684V458.72C553.95 458.879 553.577 459 553.166 459.084C552.765 459.168 552.321 459.21 551.836 459.21ZM558.44 459L555.486 452.014H556.564L559.14 458.132L558.916 458.188L561.422 452.014H562.43L559.462 459H558.44ZM566.438 459.21C565.775 459.21 565.201 459.075 564.716 458.804C564.23 458.524 563.857 458.109 563.596 457.558C563.334 457.007 563.204 456.321 563.204 455.5C563.204 454.296 563.474 453.395 564.016 452.798C564.566 452.191 565.318 451.888 566.27 451.888C567.016 451.888 567.614 452.056 568.062 452.392C568.519 452.728 568.846 453.181 569.042 453.75C569.238 454.319 569.331 454.963 569.322 455.682H563.708L563.778 454.758H568.664L568.272 454.898C568.244 454.198 568.066 453.675 567.74 453.33C567.422 452.985 566.932 452.812 566.27 452.812C565.812 452.812 565.43 452.896 565.122 453.064C564.823 453.232 564.599 453.526 564.45 453.946C564.3 454.357 564.226 454.935 564.226 455.682C564.226 456.531 564.422 457.18 564.814 457.628C565.215 458.067 565.775 458.286 566.494 458.286C566.839 458.286 567.156 458.263 567.446 458.216C567.735 458.16 568.001 458.085 568.244 457.992C568.486 457.899 568.701 457.796 568.888 457.684V458.72C568.552 458.879 568.178 459 567.768 459.084C567.366 459.168 566.923 459.21 566.438 459.21ZM571.21 452.574C571.434 452.462 571.663 452.364 571.896 452.28C572.139 452.187 572.381 452.112 572.624 452.056C572.876 452 573.128 451.958 573.38 451.93C573.641 451.902 573.903 451.888 574.164 451.888C574.845 451.888 575.387 451.991 575.788 452.196C576.189 452.392 576.479 452.681 576.656 453.064C576.843 453.447 576.936 453.909 576.936 454.45V459H575.928V454.45C575.928 454.282 575.905 454.105 575.858 453.918C575.821 453.731 575.741 453.554 575.62 453.386C575.499 453.209 575.312 453.069 575.06 452.966C574.808 452.854 574.472 452.798 574.052 452.798C573.763 452.798 573.464 452.821 573.156 452.868C572.848 452.915 572.535 452.985 572.218 453.078V459H571.21V452.574ZM582.107 459.21C581.491 459.21 580.963 459.103 580.525 458.888C580.086 458.673 579.75 458.361 579.517 457.95C579.293 457.539 579.181 457.035 579.181 456.438V452.014H580.189V456.214C580.189 456.923 580.343 457.446 580.651 457.782C580.968 458.109 581.453 458.272 582.107 458.272C582.76 458.272 583.241 458.109 583.549 457.782C583.866 457.446 584.025 456.923 584.025 456.214V452.014H585.033V456.438C585.033 457.325 584.776 458.011 584.263 458.496C583.759 458.972 583.04 459.21 582.107 459.21ZM590.158 459.21C589.496 459.21 588.922 459.075 588.436 458.804C587.951 458.524 587.578 458.109 587.316 457.558C587.055 457.007 586.924 456.321 586.924 455.5C586.924 454.296 587.195 453.395 587.736 452.798C588.287 452.191 589.038 451.888 589.99 451.888C590.737 451.888 591.334 452.056 591.782 452.392C592.24 452.728 592.566 453.181 592.762 453.75C592.958 454.319 593.052 454.963 593.042 455.682H587.428L587.498 454.758H592.384L591.992 454.898C591.964 454.198 591.787 453.675 591.46 453.33C591.143 452.985 590.653 452.812 589.99 452.812C589.533 452.812 589.15 452.896 588.842 453.064C588.544 453.232 588.32 453.526 588.17 453.946C588.021 454.357 587.946 454.935 587.946 455.682C587.946 456.531 588.142 457.18 588.534 457.628C588.936 458.067 589.496 458.286 590.214 458.286C590.56 458.286 590.877 458.263 591.166 458.216C591.456 458.16 591.722 458.085 591.964 457.992C592.207 457.899 592.422 457.796 592.608 457.684V458.72C592.272 458.879 591.899 459 591.488 459.084C591.087 459.168 590.644 459.21 590.158 459.21Z" fill="black"/>
</svg>
