<svg width="354" height="312" viewBox="0 0 354 312" fill="none" xmlns="http://www.w3.org/2000/svg">
<rect x="1" y="32" width="352" height="279" rx="4" fill="white"/>
<path d="M48.6554 251.5H332.422" stroke="#E4E4E4" stroke-opacity="0.2" stroke-linecap="square"/>
<path d="M48.6554 214.5H332.422" stroke="#E4E4E4" stroke-opacity="0.2" stroke-linecap="square"/>
<path d="M48.6554 177.5H332.422" stroke="#E4E4E4" stroke-opacity="0.2" stroke-linecap="square"/>
<path d="M48.6554 140.5H332.422" stroke="#E4E4E4" stroke-opacity="0.2" stroke-linecap="square"/>
<path d="M48.6554 103.5H332.422" stroke="#E4E4E4" stroke-opacity="0.2" stroke-linecap="square"/>
<path d="M257.38 279V271.3H258.843L260.977 276.173L263.078 271.3H264.574V279H263.529V272.631L261.472 277.262H260.438L258.37 272.631V279H257.38ZM268.633 279.132C268.156 279.132 267.723 279.011 267.335 278.769C266.946 278.527 266.634 278.186 266.4 277.746C266.172 277.299 266.059 276.774 266.059 276.173C266.059 275.601 266.172 275.088 266.4 274.633C266.634 274.178 266.953 273.819 267.357 273.555C267.767 273.284 268.237 273.148 268.765 273.148C269.095 273.148 269.392 273.207 269.656 273.324C269.927 273.434 270.162 273.573 270.36 273.742V273.28H271.262V277.614C271.262 277.893 271.328 278.076 271.46 278.164C271.599 278.245 271.749 278.285 271.911 278.285L271.702 279.055C270.998 279.055 270.572 278.769 270.426 278.197C270.257 278.432 270.026 278.648 269.733 278.846C269.447 279.037 269.08 279.132 268.633 279.132ZM268.853 278.252C269.131 278.252 269.395 278.186 269.645 278.054C269.894 277.915 270.103 277.742 270.272 277.537V274.468C270.074 274.329 269.854 274.219 269.612 274.138C269.377 274.05 269.128 274.006 268.864 274.006C268.512 274.006 268.2 274.098 267.929 274.281C267.665 274.457 267.456 274.706 267.302 275.029C267.148 275.344 267.071 275.715 267.071 276.14C267.071 276.551 267.148 276.917 267.302 277.24C267.456 277.555 267.668 277.805 267.94 277.988C268.211 278.164 268.515 278.252 268.853 278.252ZM273.161 281.552C272.941 281.552 272.747 281.53 272.578 281.486C272.417 281.442 272.288 281.391 272.193 281.332L272.413 280.507C272.501 280.558 272.611 280.602 272.743 280.639C272.875 280.676 273.022 280.694 273.183 280.694C273.491 280.694 273.766 280.595 274.008 280.397C274.25 280.199 274.481 279.81 274.701 279.231L274.954 278.571H274.426L272.193 273.544L273.073 273.148L275.207 277.911L276.868 273.192L277.781 273.544L275.68 279.286C275.467 279.873 275.236 280.331 274.987 280.661C274.738 280.991 274.463 281.222 274.162 281.354C273.861 281.486 273.528 281.552 273.161 281.552Z" fill="#999999"/>
<path d="M210.912 279.11L210.054 276.91H206.49L205.632 279.088L204.741 278.725L207.755 271.3H208.899L211.869 278.725L210.912 279.11ZM206.82 276.03H209.713L208.272 272.334L206.82 276.03ZM213.068 281.42V274.743C213.068 274.494 213.006 274.318 212.881 274.215C212.764 274.105 212.61 274.05 212.419 274.05L212.628 273.28C213.303 273.28 213.724 273.548 213.893 274.083C213.966 273.973 214.084 273.845 214.245 273.698C214.414 273.551 214.619 273.423 214.861 273.313C215.11 273.203 215.393 273.148 215.708 273.148C216.148 273.148 216.559 273.265 216.94 273.5C217.329 273.727 217.64 274.061 217.875 274.501C218.11 274.934 218.227 275.462 218.227 276.085C218.227 276.694 218.11 277.229 217.875 277.691C217.64 278.146 217.332 278.501 216.951 278.758C216.577 279.007 216.17 279.132 215.73 279.132C215.393 279.132 215.077 279.066 214.784 278.934C214.491 278.795 214.249 278.637 214.058 278.461V281.42H213.068ZM215.532 278.252C216.031 278.252 216.434 278.058 216.742 277.669C217.057 277.273 217.215 276.756 217.215 276.118C217.215 275.678 217.134 275.3 216.973 274.985C216.819 274.67 216.61 274.428 216.346 274.259C216.089 274.09 215.803 274.006 215.488 274.006C215.173 274.006 214.887 274.087 214.63 274.248C214.381 274.402 214.19 274.571 214.058 274.754V277.57C214.249 277.768 214.469 277.933 214.718 278.065C214.967 278.19 215.239 278.252 215.532 278.252ZM219.605 279V273.28H220.562V274.523C220.657 274.281 220.786 274.057 220.947 273.852C221.108 273.639 221.31 273.471 221.552 273.346C221.794 273.214 222.076 273.148 222.399 273.148C222.509 273.148 222.619 273.155 222.729 273.17C222.839 273.177 222.931 273.192 223.004 273.214L222.707 274.237C222.568 274.178 222.403 274.149 222.212 274.149C221.941 274.149 221.68 274.226 221.431 274.38C221.189 274.534 220.987 274.772 220.826 275.095C220.672 275.418 220.595 275.828 220.595 276.327V279H219.605Z" fill="#999999"/>
<path d="M152.502 279V271.3H153.965L156.099 276.173L158.2 271.3H159.696V279H158.651V272.631L156.594 277.262H155.56L153.492 272.631V279H152.502ZM163.755 279.132C163.278 279.132 162.845 279.011 162.457 278.769C162.068 278.527 161.756 278.186 161.522 277.746C161.294 277.299 161.181 276.774 161.181 276.173C161.181 275.601 161.294 275.088 161.522 274.633C161.756 274.178 162.075 273.819 162.479 273.555C162.889 273.284 163.359 273.148 163.887 273.148C164.217 273.148 164.514 273.207 164.778 273.324C165.049 273.434 165.284 273.573 165.482 273.742V273.28H166.384V277.614C166.384 277.893 166.45 278.076 166.582 278.164C166.721 278.245 166.871 278.285 167.033 278.285L166.824 279.055C166.12 279.055 165.694 278.769 165.548 278.197C165.379 278.432 165.148 278.648 164.855 278.846C164.569 279.037 164.202 279.132 163.755 279.132ZM163.975 278.252C164.253 278.252 164.517 278.186 164.767 278.054C165.016 277.915 165.225 277.742 165.394 277.537V274.468C165.196 274.329 164.976 274.219 164.734 274.138C164.499 274.05 164.25 274.006 163.986 274.006C163.634 274.006 163.322 274.098 163.051 274.281C162.787 274.457 162.578 274.706 162.424 275.029C162.27 275.344 162.193 275.715 162.193 276.14C162.193 276.551 162.27 276.917 162.424 277.24C162.578 277.555 162.79 277.805 163.062 277.988C163.333 278.164 163.637 278.252 163.975 278.252ZM168.355 279V273.28H169.312V274.523C169.407 274.281 169.535 274.057 169.697 273.852C169.858 273.639 170.06 273.471 170.302 273.346C170.544 273.214 170.826 273.148 171.149 273.148C171.259 273.148 171.369 273.155 171.479 273.17C171.589 273.177 171.68 273.192 171.754 273.214L171.457 274.237C171.317 274.178 171.152 274.149 170.962 274.149C170.69 274.149 170.43 274.226 170.181 274.38C169.939 274.534 169.737 274.772 169.576 275.095C169.422 275.418 169.345 275.828 169.345 276.327V279H168.355Z" fill="#999999"/>
<path d="M101.027 279V271.3H105.592V272.202H102.072V274.556H105.009V275.414H102.072V279H101.027ZM108.544 279.132C107.722 279.132 107.07 278.872 106.586 278.351C106.109 277.823 105.871 277.086 105.871 276.14C105.871 275.568 105.977 275.058 106.19 274.611C106.41 274.156 106.714 273.801 107.103 273.544C107.491 273.28 107.942 273.148 108.456 273.148C109.006 273.148 109.46 273.269 109.82 273.511C110.186 273.746 110.461 274.065 110.645 274.468C110.828 274.871 110.92 275.315 110.92 275.799C110.92 276.056 110.909 276.305 110.887 276.547H106.883C106.949 277.082 107.136 277.5 107.444 277.801C107.752 278.102 108.159 278.252 108.665 278.252C108.995 278.252 109.292 278.219 109.556 278.153C109.82 278.08 110.073 277.988 110.315 277.878L110.546 278.725C110.282 278.842 109.985 278.938 109.655 279.011C109.325 279.092 108.954 279.132 108.544 279.132ZM106.872 275.744H110.007C110.007 275.187 109.867 274.758 109.589 274.457C109.31 274.156 108.925 274.006 108.434 274.006C108.008 274.006 107.656 274.156 107.378 274.457C107.099 274.75 106.93 275.179 106.872 275.744ZM114.813 279.132C114.483 279.132 114.171 279.073 113.878 278.956C113.592 278.831 113.354 278.688 113.163 278.527V279H112.239V270.86H113.229V273.874C113.376 273.705 113.588 273.544 113.867 273.39C114.153 273.229 114.49 273.148 114.879 273.148C115.319 273.148 115.73 273.265 116.111 273.5C116.5 273.727 116.811 274.061 117.046 274.501C117.281 274.934 117.398 275.462 117.398 276.085C117.398 276.54 117.325 276.954 117.178 277.328C117.031 277.702 116.833 278.025 116.584 278.296C116.342 278.56 116.067 278.765 115.759 278.912C115.451 279.059 115.136 279.132 114.813 279.132ZM114.549 278.252C114.908 278.252 115.224 278.164 115.495 277.988C115.774 277.812 115.99 277.563 116.144 277.24C116.305 276.917 116.386 276.543 116.386 276.118C116.386 275.678 116.305 275.3 116.144 274.985C115.99 274.67 115.781 274.428 115.517 274.259C115.26 274.09 114.974 274.006 114.659 274.006C114.344 274.006 114.058 274.087 113.801 274.248C113.552 274.402 113.361 274.571 113.229 274.754V277.812C113.398 277.944 113.596 278.05 113.823 278.131C114.05 278.212 114.292 278.252 114.549 278.252Z" fill="#999999"/>
<path d="M313.167 279.132C312.83 279.132 312.511 279.073 312.21 278.956C311.917 278.839 311.671 278.685 311.473 278.494L311.979 277.691C312.126 277.845 312.302 277.973 312.507 278.076C312.713 278.179 312.922 278.23 313.134 278.23C313.486 278.23 313.765 278.105 313.97 277.856C314.176 277.599 314.278 277.17 314.278 276.569V271.3H315.323V276.459C315.323 277.39 315.125 278.069 314.729 278.494C314.333 278.919 313.813 279.132 313.167 279.132ZM318.95 279.132C318.62 279.132 318.308 279.062 318.015 278.923C317.722 278.784 317.483 278.56 317.3 278.252C317.117 277.937 317.025 277.519 317.025 276.998V273.28H318.015V276.866C318.015 277.313 318.11 277.658 318.301 277.9C318.492 278.135 318.77 278.252 319.137 278.252C319.438 278.252 319.727 278.193 320.006 278.076C320.292 277.951 320.545 277.786 320.765 277.581V273.28H321.755V277.515C321.755 277.83 321.821 278.039 321.953 278.142C322.092 278.237 322.243 278.285 322.404 278.285L322.195 279.055C321.513 279.055 321.091 278.784 320.93 278.241C320.673 278.505 320.376 278.721 320.039 278.89C319.702 279.051 319.339 279.132 318.95 279.132ZM323.719 279V273.28H324.676V274.237C324.881 273.929 325.141 273.672 325.457 273.467C325.779 273.254 326.161 273.148 326.601 273.148C327.246 273.148 327.726 273.342 328.042 273.731C328.364 274.12 328.526 274.633 328.526 275.271V279H327.536V275.381C327.536 274.97 327.437 274.64 327.239 274.391C327.048 274.142 326.78 274.017 326.436 274.017C326.098 274.017 325.779 274.138 325.479 274.38C325.178 274.615 324.921 274.893 324.709 275.216V279H323.719Z" fill="#999999"/>
<path d="M49.4598 279.132C49.1224 279.132 48.8034 279.073 48.5028 278.956C48.2094 278.839 47.9638 278.685 47.7658 278.494L48.2718 277.691C48.4184 277.845 48.5944 277.973 48.7998 278.076C49.0051 278.179 49.2141 278.23 49.4268 278.23C49.7788 278.23 50.0574 278.105 50.2628 277.856C50.4681 277.599 50.5708 277.17 50.5708 276.569V271.3H51.6158V276.459C51.6158 277.39 51.4178 278.069 51.0218 278.494C50.6258 278.919 50.1051 279.132 49.4598 279.132ZM55.5613 279.132C55.0847 279.132 54.652 279.011 54.2633 278.769C53.8747 278.527 53.563 278.186 53.3283 277.746C53.101 277.299 52.9873 276.774 52.9873 276.173C52.9873 275.601 53.101 275.088 53.3283 274.633C53.563 274.178 53.882 273.819 54.2853 273.555C54.696 273.284 55.1653 273.148 55.6933 273.148C56.0233 273.148 56.3203 273.207 56.5843 273.324C56.8557 273.434 57.0903 273.573 57.2883 273.742V273.28H58.1903V277.614C58.1903 277.893 58.2563 278.076 58.3883 278.164C58.5277 278.245 58.678 278.285 58.8393 278.285L58.6303 279.055C57.9263 279.055 57.501 278.769 57.3543 278.197C57.1857 278.432 56.9547 278.648 56.6613 278.846C56.3753 279.037 56.0087 279.132 55.5613 279.132ZM55.7813 278.252C56.06 278.252 56.324 278.186 56.5733 278.054C56.8227 277.915 57.0317 277.742 57.2003 277.537V274.468C57.0023 274.329 56.7823 274.219 56.5403 274.138C56.3057 274.05 56.0563 274.006 55.7923 274.006C55.4403 274.006 55.1287 274.098 54.8573 274.281C54.5933 274.457 54.3843 274.706 54.2303 275.029C54.0763 275.344 53.9993 275.715 53.9993 276.14C53.9993 276.551 54.0763 276.917 54.2303 277.24C54.3843 277.555 54.597 277.805 54.8683 277.988C55.1397 278.164 55.444 278.252 55.7813 278.252ZM60.1614 279V273.28H61.1184V274.237C61.3237 273.929 61.5841 273.672 61.8994 273.467C62.2221 273.254 62.6034 273.148 63.0434 273.148C63.6887 273.148 64.1691 273.342 64.4844 273.731C64.8071 274.12 64.9684 274.633 64.9684 275.271V279H63.9784V275.381C63.9784 274.97 63.8794 274.64 63.6814 274.391C63.4907 274.142 63.2231 274.017 62.8784 274.017C62.5411 274.017 62.2221 274.138 61.9214 274.38C61.6207 274.615 61.3641 274.893 61.1514 275.216V279H60.1614Z" fill="#999999"/>
<path d="M37.7671 254.132C36.9091 254.132 36.2565 253.784 35.8091 253.087C35.3618 252.383 35.1381 251.4 35.1381 250.139C35.1381 248.87 35.3655 247.891 35.8201 247.202C36.2821 246.513 36.9385 246.168 37.7891 246.168C38.6471 246.168 39.2998 246.516 39.7471 247.213C40.1945 247.91 40.4181 248.892 40.4181 250.161C40.4181 251.43 40.1871 252.409 39.7251 253.098C39.2705 253.787 38.6178 254.132 37.7671 254.132ZM37.7781 253.23C38.1081 253.23 38.3905 253.135 38.6251 252.944C38.8671 252.746 39.0505 252.423 39.1751 251.976C39.3071 251.529 39.3731 250.927 39.3731 250.172C39.3731 249.16 39.2301 248.39 38.9441 247.862C38.6655 247.334 38.2768 247.07 37.7781 247.07C37.4481 247.07 37.1621 247.169 36.9201 247.367C36.6855 247.558 36.5021 247.877 36.3701 248.324C36.2455 248.764 36.1831 249.365 36.1831 250.128C36.1831 251.14 36.3225 251.91 36.6011 252.438C36.8871 252.966 37.2795 253.23 37.7781 253.23Z" fill="#999999"/>
<path d="M22.2547 217C22.2327 216.868 22.2217 216.732 22.2217 216.593C22.2217 216.116 22.3024 215.691 22.4637 215.317C22.6324 214.936 22.8487 214.591 23.1127 214.283C23.3767 213.968 23.6554 213.678 23.9487 213.414C24.2494 213.143 24.5281 212.886 24.7847 212.644C25.0487 212.395 25.2651 212.145 25.4337 211.896C25.6024 211.647 25.6867 211.386 25.6867 211.115C25.6867 210.807 25.5731 210.554 25.3457 210.356C25.1184 210.151 24.8251 210.048 24.4657 210.048C24.1577 210.048 23.8754 210.11 23.6187 210.235C23.3694 210.352 23.1347 210.514 22.9147 210.719L22.3647 210.048C22.6581 209.784 22.9807 209.571 23.3327 209.41C23.6921 209.249 24.1064 209.168 24.5757 209.168C25.0084 209.168 25.3861 209.252 25.7087 209.421C26.0314 209.582 26.2807 209.806 26.4567 210.092C26.6401 210.378 26.7317 210.697 26.7317 211.049C26.7317 211.401 26.6547 211.727 26.5007 212.028C26.3467 212.329 26.1487 212.611 25.9067 212.875C25.6647 213.139 25.4044 213.396 25.1257 213.645C24.8471 213.887 24.5794 214.136 24.3227 214.393C24.0661 214.65 23.8461 214.917 23.6627 215.196C23.4867 215.475 23.3767 215.775 23.3327 216.098H26.7207V217H22.2547ZM31.1714 217.132C30.3134 217.132 29.6608 216.784 29.2134 216.087C28.7661 215.383 28.5424 214.4 28.5424 213.139C28.5424 211.87 28.7698 210.891 29.2244 210.202C29.6864 209.513 30.3428 209.168 31.1934 209.168C32.0514 209.168 32.7041 209.516 33.1514 210.213C33.5988 210.91 33.8224 211.892 33.8224 213.161C33.8224 214.43 33.5914 215.409 33.1294 216.098C32.6748 216.787 32.0221 217.132 31.1714 217.132ZM31.1824 216.23C31.5124 216.23 31.7948 216.135 32.0294 215.944C32.2714 215.746 32.4548 215.423 32.5794 214.976C32.7114 214.529 32.7774 213.927 32.7774 213.172C32.7774 212.16 32.6344 211.39 32.3484 210.862C32.0698 210.334 31.6811 210.07 31.1824 210.07C30.8524 210.07 30.5664 210.169 30.3244 210.367C30.0898 210.558 29.9064 210.877 29.7744 211.324C29.6498 211.764 29.5874 212.365 29.5874 213.128C29.5874 214.14 29.7268 214.91 30.0054 215.438C30.2914 215.966 30.6838 216.23 31.1824 216.23ZM37.7671 217.132C36.9091 217.132 36.2565 216.784 35.8091 216.087C35.3618 215.383 35.1381 214.4 35.1381 213.139C35.1381 211.87 35.3655 210.891 35.8201 210.202C36.2821 209.513 36.9385 209.168 37.7891 209.168C38.6471 209.168 39.2998 209.516 39.7471 210.213C40.1945 210.91 40.4181 211.892 40.4181 213.161C40.4181 214.43 40.1871 215.409 39.7251 216.098C39.2705 216.787 38.6178 217.132 37.7671 217.132ZM37.7781 216.23C38.1081 216.23 38.3905 216.135 38.6251 215.944C38.8671 215.746 39.0505 215.423 39.1751 214.976C39.3071 214.529 39.3731 213.927 39.3731 213.172C39.3731 212.16 39.2301 211.39 38.9441 210.862C38.6655 210.334 38.2768 210.07 37.7781 210.07C37.4481 210.07 37.1621 210.169 36.9201 210.367C36.6855 210.558 36.5021 210.877 36.3701 211.324C36.2455 211.764 36.1831 212.365 36.1831 213.128C36.1831 214.14 36.3225 214.91 36.6011 215.438C36.8871 215.966 37.2795 216.23 37.7781 216.23Z" fill="#999999"/>
<path d="M25.2797 180V178.361H21.9907V177.569L24.2897 172.223L25.1477 172.586L23.0687 177.459H25.2797V175.27H26.2697V177.459H27.1827V178.361H26.2697V180H25.2797ZM31.1714 180.132C30.3134 180.132 29.6608 179.784 29.2134 179.087C28.7661 178.383 28.5424 177.4 28.5424 176.139C28.5424 174.87 28.7698 173.891 29.2244 173.202C29.6864 172.513 30.3428 172.168 31.1934 172.168C32.0514 172.168 32.7041 172.516 33.1514 173.213C33.5988 173.91 33.8224 174.892 33.8224 176.161C33.8224 177.43 33.5914 178.409 33.1294 179.098C32.6748 179.787 32.0221 180.132 31.1714 180.132ZM31.1824 179.23C31.5124 179.23 31.7948 179.135 32.0294 178.944C32.2714 178.746 32.4548 178.423 32.5794 177.976C32.7114 177.529 32.7774 176.927 32.7774 176.172C32.7774 175.16 32.6344 174.39 32.3484 173.862C32.0698 173.334 31.6811 173.07 31.1824 173.07C30.8524 173.07 30.5664 173.169 30.3244 173.367C30.0898 173.558 29.9064 173.877 29.7744 174.324C29.6498 174.764 29.5874 175.365 29.5874 176.128C29.5874 177.14 29.7268 177.91 30.0054 178.438C30.2914 178.966 30.6838 179.23 31.1824 179.23ZM37.7671 180.132C36.9091 180.132 36.2565 179.784 35.8091 179.087C35.3618 178.383 35.1381 177.4 35.1381 176.139C35.1381 174.87 35.3655 173.891 35.8201 173.202C36.2821 172.513 36.9385 172.168 37.7891 172.168C38.6471 172.168 39.2998 172.516 39.7471 173.213C40.1945 173.91 40.4181 174.892 40.4181 176.161C40.4181 177.43 40.1871 178.409 39.7251 179.098C39.2705 179.787 38.6178 180.132 37.7671 180.132ZM37.7781 179.23C38.1081 179.23 38.3905 179.135 38.6251 178.944C38.8671 178.746 39.0505 178.423 39.1751 177.976C39.3071 177.529 39.3731 176.927 39.3731 176.172C39.3731 175.16 39.2301 174.39 38.9441 173.862C38.6655 173.334 38.2768 173.07 37.7781 173.07C37.4481 173.07 37.1621 173.169 36.9201 173.367C36.6855 173.558 36.5021 173.877 36.3701 174.324C36.2455 174.764 36.1831 175.365 36.1831 176.128C36.1831 177.14 36.3225 177.91 36.6011 178.438C36.8871 178.966 37.2795 179.23 37.7781 179.23Z" fill="#999999"/>
<path d="M24.6307 143.132C24.1687 143.132 23.7397 143.018 23.3437 142.791C22.9551 142.556 22.6434 142.197 22.4087 141.713C22.1741 141.229 22.0567 140.617 22.0567 139.876C22.0567 139.253 22.1374 138.666 22.2987 138.116C22.4674 137.559 22.7167 137.067 23.0467 136.642C23.3841 136.217 23.7984 135.883 24.2897 135.641C24.7811 135.399 25.3531 135.278 26.0057 135.278C26.0717 135.278 26.1414 135.282 26.2147 135.289C26.2954 135.289 26.3651 135.293 26.4237 135.3V136.202C26.3651 136.195 26.2991 136.191 26.2257 136.191C26.1524 136.184 26.0827 136.18 26.0167 136.18C25.2174 136.18 24.5574 136.426 24.0367 136.917C23.5234 137.401 23.2081 138.068 23.0907 138.919C23.2961 138.721 23.5601 138.541 23.8827 138.38C24.2054 138.211 24.5721 138.127 24.9827 138.127C25.3934 138.127 25.7601 138.222 26.0827 138.413C26.4054 138.604 26.6584 138.871 26.8417 139.216C27.0324 139.553 27.1277 139.957 27.1277 140.426C27.1277 140.961 27.0177 141.434 26.7977 141.845C26.5851 142.248 26.2917 142.564 25.9177 142.791C25.5437 143.018 25.1147 143.132 24.6307 143.132ZM24.6747 142.23C25.1147 142.23 25.4667 142.069 25.7307 141.746C26.0021 141.423 26.1377 141.024 26.1377 140.547C26.1377 140.07 26.0094 139.685 25.7527 139.392C25.4961 139.099 25.1551 138.952 24.7297 138.952C24.4144 138.952 24.1137 139.029 23.8277 139.183C23.5417 139.337 23.2887 139.542 23.0687 139.799V140.041C23.0834 140.73 23.2411 141.269 23.5417 141.658C23.8497 142.039 24.2274 142.23 24.6747 142.23ZM31.1714 143.132C30.3134 143.132 29.6608 142.784 29.2134 142.087C28.7661 141.383 28.5424 140.4 28.5424 139.139C28.5424 137.87 28.7698 136.891 29.2244 136.202C29.6864 135.513 30.3428 135.168 31.1934 135.168C32.0514 135.168 32.7041 135.516 33.1514 136.213C33.5988 136.91 33.8224 137.892 33.8224 139.161C33.8224 140.43 33.5914 141.409 33.1294 142.098C32.6748 142.787 32.0221 143.132 31.1714 143.132ZM31.1824 142.23C31.5124 142.23 31.7948 142.135 32.0294 141.944C32.2714 141.746 32.4548 141.423 32.5794 140.976C32.7114 140.529 32.7774 139.927 32.7774 139.172C32.7774 138.16 32.6344 137.39 32.3484 136.862C32.0698 136.334 31.6811 136.07 31.1824 136.07C30.8524 136.07 30.5664 136.169 30.3244 136.367C30.0898 136.558 29.9064 136.877 29.7744 137.324C29.6498 137.764 29.5874 138.365 29.5874 139.128C29.5874 140.14 29.7268 140.91 30.0054 141.438C30.2914 141.966 30.6838 142.23 31.1824 142.23ZM37.7671 143.132C36.9091 143.132 36.2565 142.784 35.8091 142.087C35.3618 141.383 35.1381 140.4 35.1381 139.139C35.1381 137.87 35.3655 136.891 35.8201 136.202C36.2821 135.513 36.9385 135.168 37.7891 135.168C38.6471 135.168 39.2998 135.516 39.7471 136.213C40.1945 136.91 40.4181 137.892 40.4181 139.161C40.4181 140.43 40.1871 141.409 39.7251 142.098C39.2705 142.787 38.6178 143.132 37.7671 143.132ZM37.7781 142.23C38.1081 142.23 38.3905 142.135 38.6251 141.944C38.8671 141.746 39.0505 141.423 39.1751 140.976C39.3071 140.529 39.3731 139.927 39.3731 139.172C39.3731 138.16 39.2301 137.39 38.9441 136.862C38.6655 136.334 38.2768 136.07 37.7781 136.07C37.4481 136.07 37.1621 136.169 36.9201 136.367C36.6855 136.558 36.5021 136.877 36.3701 137.324C36.2455 137.764 36.1831 138.365 36.1831 139.128C36.1831 140.14 36.3225 140.91 36.6011 141.438C36.8871 141.966 37.2795 142.23 37.7781 142.23Z" fill="#999999"/>
<path d="M24.6417 106.132C24.0844 106.132 23.6004 106.037 23.1897 105.846C22.7791 105.655 22.4601 105.399 22.2327 105.076C22.0127 104.746 21.9027 104.383 21.9027 103.987C21.9027 103.51 22.0311 103.096 22.2877 102.744C22.5517 102.392 22.9624 102.095 23.5197 101.853C23.1311 101.64 22.8304 101.395 22.6177 101.116C22.4124 100.83 22.3097 100.478 22.3097 100.06C22.3097 99.686 22.4087 99.3597 22.6067 99.081C22.8047 98.795 23.0724 98.5713 23.4097 98.41C23.7544 98.2487 24.1357 98.168 24.5537 98.168C25.0084 98.168 25.4081 98.2523 25.7527 98.421C26.0974 98.5823 26.3651 98.806 26.5557 99.092C26.7537 99.378 26.8527 99.697 26.8527 100.049C26.8527 100.496 26.7391 100.859 26.5117 101.138C26.2844 101.417 25.9801 101.651 25.5987 101.842C26.1414 102.069 26.5557 102.355 26.8417 102.7C27.1277 103.037 27.2707 103.444 27.2707 103.921C27.2707 104.361 27.1571 104.75 26.9297 105.087C26.7024 105.417 26.3907 105.674 25.9947 105.857C25.5987 106.04 25.1477 106.132 24.6417 106.132ZM24.6967 101.479C25.0194 101.369 25.2981 101.2 25.5327 100.973C25.7747 100.746 25.8957 100.471 25.8957 100.148C25.8957 99.8107 25.7674 99.532 25.5107 99.312C25.2541 99.092 24.9351 98.982 24.5537 98.982C24.1797 98.982 23.8717 99.081 23.6297 99.279C23.3877 99.4697 23.2667 99.7227 23.2667 100.038C23.2667 100.353 23.3951 100.639 23.6517 100.896C23.9157 101.153 24.2641 101.347 24.6967 101.479ZM24.6527 105.252C25.1221 105.252 25.5071 105.131 25.8077 104.889C26.1084 104.64 26.2587 104.324 26.2587 103.943C26.2587 103.591 26.1011 103.276 25.7857 102.997C25.4777 102.718 25.0487 102.48 24.4987 102.282C24.2201 102.348 23.9597 102.451 23.7177 102.59C23.4757 102.729 23.2814 102.902 23.1347 103.107C22.9881 103.312 22.9147 103.547 22.9147 103.811C22.9147 104.082 22.9881 104.328 23.1347 104.548C23.2887 104.768 23.4977 104.94 23.7617 105.065C24.0257 105.19 24.3227 105.252 24.6527 105.252ZM31.1714 106.132C30.3134 106.132 29.6608 105.784 29.2134 105.087C28.7661 104.383 28.5424 103.4 28.5424 102.139C28.5424 100.87 28.7698 99.8913 29.2244 99.202C29.6864 98.5127 30.3428 98.168 31.1934 98.168C32.0514 98.168 32.7041 98.5163 33.1514 99.213C33.5988 99.9097 33.8224 100.892 33.8224 102.161C33.8224 103.43 33.5914 104.409 33.1294 105.098C32.6748 105.787 32.0221 106.132 31.1714 106.132ZM31.1824 105.23C31.5124 105.23 31.7948 105.135 32.0294 104.944C32.2714 104.746 32.4548 104.423 32.5794 103.976C32.7114 103.529 32.7774 102.927 32.7774 102.172C32.7774 101.16 32.6344 100.39 32.3484 99.862C32.0698 99.334 31.6811 99.07 31.1824 99.07C30.8524 99.07 30.5664 99.169 30.3244 99.367C30.0898 99.5577 29.9064 99.8767 29.7744 100.324C29.6498 100.764 29.5874 101.365 29.5874 102.128C29.5874 103.14 29.7268 103.91 30.0054 104.438C30.2914 104.966 30.6838 105.23 31.1824 105.23ZM37.7671 106.132C36.9091 106.132 36.2565 105.784 35.8091 105.087C35.3618 104.383 35.1381 103.4 35.1381 102.139C35.1381 100.87 35.3655 99.8913 35.8201 99.202C36.2821 98.5127 36.9385 98.168 37.7891 98.168C38.6471 98.168 39.2998 98.5163 39.7471 99.213C40.1945 99.9097 40.4181 100.892 40.4181 102.161C40.4181 103.43 40.1871 104.409 39.7251 105.098C39.2705 105.787 38.6178 106.132 37.7671 106.132ZM37.7781 105.23C38.1081 105.23 38.3905 105.135 38.6251 104.944C38.8671 104.746 39.0505 104.423 39.1751 103.976C39.3071 103.529 39.3731 102.927 39.3731 102.172C39.3731 101.16 39.2301 100.39 38.9441 99.862C38.6655 99.334 38.2768 99.07 37.7781 99.07C37.4481 99.07 37.1621 99.169 36.9201 99.367C36.6855 99.5577 36.5021 99.8767 36.3701 100.324C36.2455 100.764 36.1831 101.365 36.1831 102.128C36.1831 103.14 36.3225 103.91 36.6011 104.438C36.8871 104.966 37.2795 105.23 37.7781 105.23Z" fill="#999999"/>
<rect x="110.391" y="59.2285" width="8.66462" height="8" rx="4" fill="#FFD16A"/>
<path d="M126.451 58.8285H131.431L131.263 59.8125H127.411L126.967 62.3685H130.267L130.099 63.3285H126.799L126.283 66.2445H130.123L129.955 67.2285H124.975L126.451 58.8285ZM133.327 64.0005L131.503 61.5525L132.439 60.8565L134.023 63.3285L136.207 60.9285L136.951 61.6245L134.563 64.0605L136.483 66.6765L135.583 67.3365L133.879 64.7445L131.467 67.3005L130.759 66.6165L133.327 64.0005ZM138.08 60.9885C138.912 60.9885 139.328 61.3485 139.328 62.0685V62.3205C139.56 61.8885 139.86 61.5365 140.228 61.2645C140.596 60.9845 141.024 60.8445 141.512 60.8445C141.944 60.8445 142.32 60.9565 142.64 61.1805C142.96 61.3965 143.204 61.7005 143.372 62.0925C143.548 62.4765 143.636 62.9245 143.636 63.4365C143.636 64.0285 143.548 64.5685 143.372 65.0565C143.204 65.5365 142.972 65.9525 142.676 66.3045C142.38 66.6485 142.048 66.9125 141.68 67.0965C141.312 67.2805 140.932 67.3725 140.54 67.3725C140.156 67.3725 139.796 67.2765 139.46 67.0845C139.132 66.8925 138.876 66.6565 138.692 66.3765L138.08 69.8685H137L138.248 62.7285C138.272 62.5925 138.284 62.4805 138.284 62.3925C138.284 62.0165 138.088 61.8285 137.696 61.8285L138.08 60.9885ZM140.444 66.4125C140.82 66.4125 141.164 66.2925 141.476 66.0525C141.796 65.8045 142.052 65.4645 142.244 65.0325C142.436 64.6005 142.532 64.1045 142.532 63.5445C142.532 63.0005 142.408 62.5725 142.16 62.2605C141.912 61.9405 141.588 61.7805 141.188 61.7805C140.868 61.7805 140.56 61.8805 140.264 62.0805C139.976 62.2805 139.728 62.5605 139.52 62.9205C139.312 63.2805 139.164 63.7045 139.076 64.1925L138.86 65.4045C139.036 65.7245 139.264 65.9725 139.544 66.1485C139.824 66.3245 140.124 66.4125 140.444 66.4125ZM147.267 67.3725C146.739 67.3725 146.271 67.2605 145.863 67.0365C145.463 66.8045 145.147 66.4765 144.915 66.0525C144.691 65.6205 144.579 65.1125 144.579 64.5285C144.579 63.8645 144.715 63.2525 144.987 62.6925C145.267 62.1325 145.659 61.6845 146.163 61.3485C146.675 61.0125 147.271 60.8445 147.951 60.8445C148.415 60.8445 148.807 60.9325 149.127 61.1085C149.455 61.2845 149.707 61.5125 149.883 61.7925C150.059 62.0725 150.147 62.3725 150.147 62.6925C150.147 63.1325 150.043 63.4965 149.835 63.7845C149.627 64.0725 149.359 64.2965 149.031 64.4565C148.703 64.6085 148.347 64.7165 147.963 64.7805C147.587 64.8445 147.227 64.8765 146.883 64.8765C146.667 64.8765 146.451 64.8685 146.235 64.8525C146.027 64.8285 145.843 64.8045 145.683 64.7805C145.747 65.3085 145.935 65.7125 146.247 65.9925C146.559 66.2725 146.959 66.4125 147.447 66.4125C147.847 66.4125 148.203 66.3605 148.515 66.2565C148.827 66.1525 149.091 66.0485 149.307 65.9445L149.403 66.9045C149.163 67.0165 148.859 67.1245 148.491 67.2285C148.123 67.3245 147.715 67.3725 147.267 67.3725ZM147.867 61.7565C147.491 61.7565 147.151 61.8525 146.847 62.0445C146.543 62.2285 146.291 62.4845 146.091 62.8125C145.899 63.1325 145.771 63.5005 145.707 63.9165C145.891 63.9485 146.075 63.9765 146.259 64.0005C146.451 64.0165 146.659 64.0245 146.883 64.0245C147.555 64.0245 148.087 63.9325 148.479 63.7485C148.871 63.5565 149.067 63.2325 149.067 62.7765C149.067 62.4965 148.955 62.2565 148.731 62.0565C148.515 61.8565 148.227 61.7565 147.867 61.7565ZM154.714 61.7925C154.434 61.7925 154.13 61.8965 153.802 62.1045C153.474 62.3125 153.17 62.6365 152.89 63.0765C152.618 63.5085 152.422 64.0645 152.302 64.7445L151.87 67.2285H150.79L151.882 60.9885H152.926L152.662 62.4285C152.91 61.9485 153.242 61.5645 153.658 61.2765C154.082 60.9885 154.526 60.8445 154.99 60.8445C155.534 60.8445 155.97 61.0125 156.298 61.3485C156.626 61.6765 156.79 62.0805 156.79 62.5605C156.79 62.7605 156.766 63.0125 156.718 63.3165L156.034 67.2285H154.954L155.614 63.4965C155.654 63.3045 155.678 63.1645 155.686 63.0765C155.694 62.9805 155.698 62.8925 155.698 62.8125C155.698 62.5005 155.606 62.2525 155.422 62.0685C155.246 61.8845 155.01 61.7925 154.714 61.7925ZM162.224 62.3445C161.992 62.1845 161.732 62.0445 161.444 61.9245C161.164 61.8045 160.844 61.7445 160.484 61.7445C160.108 61.7445 159.816 61.8085 159.608 61.9365C159.4 62.0645 159.296 62.2325 159.296 62.4405C159.296 62.5605 159.328 62.6765 159.392 62.7885C159.464 62.8925 159.588 63.0045 159.764 63.1245C159.948 63.2445 160.204 63.3885 160.532 63.5565C161.076 63.8285 161.48 64.1125 161.744 64.4085C162.008 64.6965 162.14 65.0525 162.14 65.4765C162.14 65.9005 162.028 66.2525 161.804 66.5325C161.58 66.8125 161.28 67.0245 160.904 67.1685C160.528 67.3045 160.104 67.3725 159.632 67.3725C159.144 67.3725 158.712 67.3125 158.336 67.1925C157.968 67.0645 157.648 66.9005 157.376 66.7005L157.988 65.8125C158.204 65.9885 158.46 66.1365 158.756 66.2565C159.052 66.3765 159.376 66.4365 159.728 66.4365C160.128 66.4365 160.444 66.3605 160.676 66.2085C160.908 66.0565 161.024 65.8685 161.024 65.6445C161.024 65.4365 160.936 65.2445 160.76 65.0685C160.592 64.8925 160.26 64.6805 159.764 64.4325C159.364 64.2325 159.052 64.0405 158.828 63.8565C158.604 63.6645 158.448 63.4605 158.36 63.2445C158.272 63.0285 158.228 62.7805 158.228 62.5005C158.228 62.1805 158.324 61.8965 158.516 61.6485C158.708 61.4005 158.976 61.2045 159.32 61.0605C159.664 60.9165 160.06 60.8445 160.508 60.8445C160.956 60.8445 161.356 60.9045 161.708 61.0245C162.068 61.1365 162.384 61.2725 162.656 61.4325L162.224 62.3445ZM165.876 67.3725C165.348 67.3725 164.88 67.2605 164.472 67.0365C164.072 66.8045 163.756 66.4765 163.524 66.0525C163.3 65.6205 163.188 65.1125 163.188 64.5285C163.188 63.8645 163.324 63.2525 163.596 62.6925C163.876 62.1325 164.268 61.6845 164.772 61.3485C165.284 61.0125 165.88 60.8445 166.56 60.8445C167.024 60.8445 167.416 60.9325 167.736 61.1085C168.064 61.2845 168.316 61.5125 168.492 61.7925C168.668 62.0725 168.756 62.3725 168.756 62.6925C168.756 63.1325 168.652 63.4965 168.444 63.7845C168.236 64.0725 167.968 64.2965 167.64 64.4565C167.312 64.6085 166.956 64.7165 166.572 64.7805C166.196 64.8445 165.836 64.8765 165.492 64.8765C165.276 64.8765 165.06 64.8685 164.844 64.8525C164.636 64.8285 164.452 64.8045 164.292 64.7805C164.356 65.3085 164.544 65.7125 164.856 65.9925C165.168 66.2725 165.568 66.4125 166.056 66.4125C166.456 66.4125 166.812 66.3605 167.124 66.2565C167.436 66.1525 167.7 66.0485 167.916 65.9445L168.012 66.9045C167.772 67.0165 167.468 67.1245 167.1 67.2285C166.732 67.3245 166.324 67.3725 165.876 67.3725ZM166.476 61.7565C166.1 61.7565 165.76 61.8525 165.456 62.0445C165.152 62.2285 164.9 62.4845 164.7 62.8125C164.508 63.1325 164.38 63.5005 164.316 63.9165C164.5 63.9485 164.684 63.9765 164.868 64.0005C165.06 64.0165 165.268 64.0245 165.492 64.0245C166.164 64.0245 166.696 63.9325 167.088 63.7485C167.48 63.5565 167.676 63.2325 167.676 62.7765C167.676 62.4965 167.564 62.2565 167.34 62.0565C167.124 61.8565 166.836 61.7565 166.476 61.7565Z" fill="#4E4E4E"/>
<rect x="18.3292" y="59.2285" width="8.66462" height="8" rx="4" fill="#41BE53"/>
<path d="M32.9132 67.2285L34.3892 58.8285H35.5292L34.0532 67.2285H32.9132ZM40.0468 61.7925C39.7668 61.7925 39.4628 61.8965 39.1348 62.1045C38.8068 62.3125 38.5028 62.6365 38.2228 63.0765C37.9508 63.5085 37.7548 64.0645 37.6348 64.7445L37.2028 67.2285H36.1228L37.2148 60.9885H38.2588L37.9948 62.4285C38.2428 61.9485 38.5748 61.5645 38.9908 61.2765C39.4148 60.9885 39.8588 60.8445 40.3228 60.8445C40.8668 60.8445 41.3028 61.0125 41.6308 61.3485C41.9588 61.6765 42.1228 62.0805 42.1228 62.5605C42.1228 62.7605 42.0988 63.0125 42.0508 63.3165L41.3668 67.2285H40.2868L40.9468 63.4965C40.9868 63.3045 41.0108 63.1645 41.0188 63.0765C41.0268 62.9805 41.0308 62.8925 41.0308 62.8125C41.0308 62.5005 40.9388 62.2525 40.7548 62.0685C40.5788 61.8845 40.3428 61.7925 40.0468 61.7925ZM47.9172 62.2485C47.7172 62.1205 47.5012 62.0165 47.2692 61.9365C47.0372 61.8485 46.7812 61.8045 46.5012 61.8045C46.0612 61.8045 45.6732 61.9205 45.3372 62.1525C45.0092 62.3845 44.7532 62.7005 44.5692 63.1005C44.3852 63.4925 44.2932 63.9365 44.2932 64.4325C44.2932 65.0405 44.4452 65.5245 44.7492 65.8845C45.0612 66.2365 45.4772 66.4125 45.9972 66.4125C46.3012 66.4125 46.5692 66.3765 46.8012 66.3045C47.0332 66.2325 47.2452 66.1485 47.4372 66.0525L47.5692 67.0005C47.3692 67.0885 47.1252 67.1725 46.8372 67.2525C46.5572 67.3325 46.2172 67.3725 45.8172 67.3725C45.2972 67.3725 44.8372 67.2565 44.4372 67.0245C44.0452 66.7925 43.7372 66.4685 43.5132 66.0525C43.2972 65.6285 43.1892 65.1365 43.1892 64.5765C43.1892 63.9045 43.3252 63.2885 43.5972 62.7285C43.8772 62.1605 44.2692 61.7045 44.7732 61.3605C45.2852 61.0165 45.8892 60.8445 46.5852 60.8445C46.9612 60.8445 47.2932 60.8925 47.5812 60.9885C47.8772 61.0765 48.1372 61.1885 48.3612 61.3245L47.9172 62.2485ZM51.4249 67.3725C50.8329 67.3725 50.3209 67.2525 49.8889 67.0125C49.4569 66.7725 49.1209 66.4405 48.8809 66.0165C48.6489 65.5845 48.5329 65.0965 48.5329 64.5525C48.5329 63.8565 48.6729 63.2285 48.9529 62.6685C49.2409 62.1085 49.6409 61.6645 50.1529 61.3365C50.6649 61.0085 51.2689 60.8445 51.9649 60.8445C52.5569 60.8445 53.0689 60.9645 53.5009 61.2045C53.9329 61.4445 54.2649 61.7765 54.4969 62.2005C54.7369 62.6245 54.8569 63.1125 54.8569 63.6645C54.8569 64.3525 54.7169 64.9805 54.4369 65.5485C54.1569 66.1085 53.7569 66.5525 53.2369 66.8805C52.7249 67.2085 52.1209 67.3725 51.4249 67.3725ZM51.4609 66.4125C51.9409 66.4125 52.3489 66.2965 52.6849 66.0645C53.0289 65.8245 53.2929 65.5045 53.4769 65.1045C53.6609 64.7045 53.7529 64.2565 53.7529 63.7605C53.7529 63.3925 53.6809 63.0645 53.5369 62.7765C53.3929 62.4805 53.1849 62.2445 52.9129 62.0685C52.6409 61.8925 52.3129 61.8045 51.9289 61.8045C51.4569 61.8045 51.0489 61.9245 50.7049 62.1645C50.3609 62.3965 50.0969 62.7125 49.9129 63.1125C49.7289 63.5125 49.6369 63.9605 49.6369 64.4565C49.6369 64.8165 49.7089 65.1445 49.8529 65.4405C49.9969 65.7365 50.2049 65.9725 50.4769 66.1485C50.7489 66.3245 51.0769 66.4125 51.4609 66.4125ZM63.576 61.7925C63.312 61.7925 63.024 61.8925 62.712 62.0925C62.4 62.2925 62.116 62.6045 61.86 63.0285C61.604 63.4445 61.416 63.9845 61.296 64.6485L60.84 67.2285H59.76L60.444 63.4965C60.484 63.3045 60.508 63.1645 60.516 63.0765C60.524 62.9805 60.528 62.8925 60.528 62.8125C60.528 62.5005 60.436 62.2525 60.252 62.0685C60.076 61.8845 59.844 61.7925 59.556 61.7925C59.276 61.7925 58.98 61.8965 58.668 62.1045C58.356 62.3125 58.072 62.6365 57.816 63.0765C57.56 63.5085 57.372 64.0645 57.252 64.7445L56.82 67.2285H55.74L56.832 60.9885H57.876L57.612 62.4285C57.852 61.9485 58.176 61.5645 58.584 61.2765C59 60.9885 59.428 60.8445 59.868 60.8445C60.364 60.8445 60.764 60.9965 61.068 61.3005C61.372 61.5965 61.544 61.9725 61.584 62.4285C61.856 61.9325 62.188 61.5445 62.58 61.2645C62.98 60.9845 63.412 60.8445 63.876 60.8445C64.412 60.8445 64.836 61.0125 65.148 61.3485C65.468 61.6765 65.628 62.0805 65.628 62.5605C65.628 62.7605 65.604 63.0125 65.556 63.3165L64.86 67.2285H63.78L64.464 63.4965C64.504 63.3045 64.528 63.1645 64.536 63.0765C64.544 62.9805 64.548 62.8925 64.548 62.8125C64.548 62.5005 64.456 62.2525 64.272 62.0685C64.096 61.8845 63.864 61.7925 63.576 61.7925ZM69.385 67.3725C68.857 67.3725 68.389 67.2605 67.981 67.0365C67.581 66.8045 67.265 66.4765 67.033 66.0525C66.809 65.6205 66.697 65.1125 66.697 64.5285C66.697 63.8645 66.833 63.2525 67.105 62.6925C67.385 62.1325 67.777 61.6845 68.281 61.3485C68.793 61.0125 69.389 60.8445 70.069 60.8445C70.533 60.8445 70.925 60.9325 71.245 61.1085C71.573 61.2845 71.825 61.5125 72.001 61.7925C72.177 62.0725 72.265 62.3725 72.265 62.6925C72.265 63.1325 72.161 63.4965 71.953 63.7845C71.745 64.0725 71.477 64.2965 71.149 64.4565C70.821 64.6085 70.465 64.7165 70.081 64.7805C69.705 64.8445 69.345 64.8765 69.001 64.8765C68.785 64.8765 68.569 64.8685 68.353 64.8525C68.145 64.8285 67.961 64.8045 67.801 64.7805C67.865 65.3085 68.053 65.7125 68.365 65.9925C68.677 66.2725 69.077 66.4125 69.565 66.4125C69.965 66.4125 70.321 66.3605 70.633 66.2565C70.945 66.1525 71.209 66.0485 71.425 65.9445L71.521 66.9045C71.281 67.0165 70.977 67.1245 70.609 67.2285C70.241 67.3245 69.833 67.3725 69.385 67.3725ZM69.985 61.7565C69.609 61.7565 69.269 61.8525 68.965 62.0445C68.661 62.2285 68.409 62.4845 68.209 62.8125C68.017 63.1325 67.889 63.5005 67.825 63.9165C68.009 63.9485 68.193 63.9765 68.377 64.0005C68.569 64.0165 68.777 64.0245 69.001 64.0245C69.673 64.0245 70.205 63.9325 70.597 63.7485C70.989 63.5565 71.185 63.2325 71.185 62.7765C71.185 62.4965 71.073 62.2565 70.849 62.0565C70.633 61.8565 70.345 61.7565 69.985 61.7565Z" fill="#4E4E4E"/>
<path fill-rule="evenodd" clip-rule="evenodd" d="M271.46 250.611V93.316C271.46 91.2699 273.118 89.6113 275.164 89.6113V89.6113C277.21 89.6113 278.869 91.2699 278.869 93.3159V250.611H271.46Z" fill="#41BE53"/>
<path fill-rule="evenodd" clip-rule="evenodd" d="M259.546 250.611V144.316C259.546 142.27 261.205 140.611 263.251 140.611V140.611C265.297 140.611 266.955 142.27 266.955 144.316V250.611H259.546Z" fill="#FFD16A"/>
<path fill-rule="evenodd" clip-rule="evenodd" d="M218.95 250.611V114.316C218.95 112.27 220.608 110.611 222.654 110.611V110.611C224.7 110.611 226.359 112.27 226.359 114.316V250.611H218.95Z" fill="#41BE53"/>
<path fill-rule="evenodd" clip-rule="evenodd" d="M207.036 250.611V174.316C207.036 172.27 208.695 170.611 210.741 170.611V170.611C212.787 170.611 214.445 172.27 214.445 174.316V250.611H207.036Z" fill="#FFD16A"/>
<path fill-rule="evenodd" clip-rule="evenodd" d="M166.44 250.611V134.316C166.44 132.27 168.099 130.611 170.145 130.611V130.611C172.191 130.611 173.849 132.27 173.849 134.316V250.611H166.44Z" fill="#41BE53"/>
<path fill-rule="evenodd" clip-rule="evenodd" d="M154.526 250.611V164.316C154.526 162.27 156.185 160.611 158.231 160.611V160.611C160.277 160.611 161.935 162.27 161.935 164.316V250.611H154.526Z" fill="#FFD16A"/>
<path fill-rule="evenodd" clip-rule="evenodd" d="M113.93 250.611V104.316C113.93 102.27 115.589 100.611 117.635 100.611V100.611C119.681 100.611 121.339 102.27 121.339 104.316V250.611H113.93Z" fill="#41BE53"/>
<path fill-rule="evenodd" clip-rule="evenodd" d="M102.016 250.611V124.316C102.016 122.27 103.675 120.611 105.721 120.611V120.611C107.767 120.611 109.425 122.27 109.425 124.316V250.611H102.016Z" fill="#FFD16A"/>
<path fill-rule="evenodd" clip-rule="evenodd" d="M323.884 250.611L323.884 93.4021C323.884 91.3085 325.581 89.6113 327.674 89.6113V89.6113C329.768 89.6113 331.465 91.3085 331.465 93.4021V250.611H323.884Z" fill="#41BE53"/>
<path fill-rule="evenodd" clip-rule="evenodd" d="M311.97 250.611L311.97 174.402C311.97 172.309 313.667 170.611 315.76 170.611V170.611C317.854 170.611 319.551 172.309 319.551 174.402V250.611H311.97Z" fill="#FFD16A"/>
<path fill-rule="evenodd" clip-rule="evenodd" d="M61.4201 250.611V124.316C61.4201 122.27 63.0787 120.611 65.1247 120.611V120.611C67.1707 120.611 68.8293 122.27 68.8293 124.316V250.611H61.4201Z" fill="#41BE53"/>
<path fill-rule="evenodd" clip-rule="evenodd" d="M49.5063 250.611V174.316C49.5063 172.27 51.1649 170.611 53.2109 170.611V170.611C55.2569 170.611 56.9155 172.27 56.9155 174.316V250.611H49.5063Z" fill="#FFD16A"/>
<path d="M5.96 15.112C5.18133 15.112 4.47733 14.9787 3.848 14.712C3.22933 14.4453 2.73867 14.0613 2.376 13.56C2.01333 13.0587 1.82667 12.4667 1.816 11.784H4.216C4.248 12.2427 4.408 12.6053 4.696 12.872C4.99467 13.1387 5.4 13.272 5.912 13.272C6.43467 13.272 6.84533 13.1493 7.144 12.904C7.44267 12.648 7.592 12.3173 7.592 11.912C7.592 11.5813 7.49067 11.3093 7.288 11.096C7.08533 10.8827 6.82933 10.7173 6.52 10.6C6.22133 10.472 5.80533 10.3333 5.272 10.184C4.54667 9.97067 3.95467 9.76267 3.496 9.56C3.048 9.34667 2.65867 9.032 2.328 8.616C2.008 8.18933 1.848 7.624 1.848 6.92C1.848 6.25867 2.01333 5.68267 2.344 5.192C2.67467 4.70133 3.13867 4.328 3.736 4.072C4.33333 3.80533 5.016 3.672 5.784 3.672C6.936 3.672 7.86933 3.95467 8.584 4.52C9.30933 5.07467 9.70933 5.85333 9.784 6.856H7.32C7.29867 6.472 7.13333 6.15733 6.824 5.912C6.52533 5.656 6.12533 5.528 5.624 5.528C5.18667 5.528 4.83467 5.64 4.568 5.864C4.312 6.088 4.184 6.41333 4.184 6.84C4.184 7.13867 4.28 7.38933 4.472 7.592C4.67467 7.784 4.92 7.944 5.208 8.072C5.50667 8.18933 5.92267 8.328 6.456 8.488C7.18133 8.70133 7.77333 8.91467 8.232 9.128C8.69067 9.34133 9.08533 9.66133 9.416 10.088C9.74667 10.5147 9.912 11.0747 9.912 11.768C9.912 12.3653 9.75733 12.92 9.448 13.432C9.13867 13.944 8.68533 14.3547 8.088 14.664C7.49067 14.9627 6.78133 15.112 5.96 15.112ZM14.622 7.976V12.264C14.622 12.5627 14.6913 12.7813 14.83 12.92C14.9793 13.048 15.2247 13.112 15.566 13.112H16.606V15H15.198C13.31 15 12.366 14.0827 12.366 12.248V7.976H11.31V6.136H12.366V3.944H14.622V6.136H16.606V7.976H14.622ZM17.8011 10.536C17.8011 9.64 17.9771 8.84533 18.3291 8.152C18.6918 7.45867 19.1771 6.92533 19.7851 6.552C20.4038 6.17867 21.0918 5.992 21.8491 5.992C22.5105 5.992 23.0865 6.12533 23.5771 6.392C24.0785 6.65867 24.4785 6.99467 24.7771 7.4V6.136H27.0331V15H24.7771V13.704C24.4891 14.12 24.0891 14.4667 23.5771 14.744C23.0758 15.0107 22.4945 15.144 21.8331 15.144C21.0865 15.144 20.4038 14.952 19.7851 14.568C19.1771 14.184 18.6918 13.6453 18.3291 12.952C17.9771 12.248 17.8011 11.4427 17.8011 10.536ZM24.7771 10.568C24.7771 10.024 24.6705 9.56 24.4571 9.176C24.2438 8.78133 23.9558 8.48267 23.5931 8.28C23.2305 8.06667 22.8411 7.96 22.4251 7.96C22.0091 7.96 21.6251 8.06133 21.2731 8.264C20.9211 8.46667 20.6331 8.76533 20.4091 9.16C20.1958 9.544 20.0891 10.0027 20.0891 10.536C20.0891 11.0693 20.1958 11.5387 20.4091 11.944C20.6331 12.3387 20.9211 12.6427 21.2731 12.856C21.6358 13.0693 22.0198 13.176 22.4251 13.176C22.8411 13.176 23.2305 13.0747 23.5931 12.872C23.9558 12.6587 24.2438 12.36 24.4571 11.976C24.6705 11.5813 24.7771 11.112 24.7771 10.568ZM31.9889 7.976V12.264C31.9889 12.5627 32.0582 12.7813 32.1969 12.92C32.3462 13.048 32.5915 13.112 32.9329 13.112H33.9729V15H32.5649C30.6769 15 29.7329 14.0827 29.7329 12.248V7.976H28.6769V6.136H29.7329V3.944H31.9889V6.136H33.9729V7.976H31.9889ZM36.88 5.08C36.4853 5.08 36.1547 4.95733 35.888 4.712C35.632 4.456 35.504 4.14133 35.504 3.768C35.504 3.39467 35.632 3.08533 35.888 2.84C36.1547 2.584 36.4853 2.456 36.88 2.456C37.2747 2.456 37.6 2.584 37.856 2.84C38.1227 3.08533 38.256 3.39467 38.256 3.768C38.256 4.14133 38.1227 4.456 37.856 4.712C37.6 4.95733 37.2747 5.08 36.88 5.08ZM37.984 6.136V15H35.744V6.136H37.984ZM43.7491 15.144C43.0238 15.144 42.3731 15.016 41.7971 14.76C41.2211 14.4933 40.7625 14.136 40.4211 13.688C40.0905 13.24 39.9091 12.744 39.8771 12.2H42.1331C42.1758 12.5413 42.3411 12.824 42.6291 13.048C42.9278 13.272 43.2958 13.384 43.7331 13.384C44.1598 13.384 44.4905 13.2987 44.7251 13.128C44.9705 12.9573 45.0931 12.7387 45.0931 12.472C45.0931 12.184 44.9438 11.9707 44.6451 11.832C44.3571 11.6827 43.8931 11.5227 43.2531 11.352C42.5918 11.192 42.0478 11.0267 41.6211 10.856C41.2051 10.6853 40.8425 10.424 40.5331 10.072C40.2345 9.72 40.0851 9.24533 40.0851 8.648C40.0851 8.15733 40.2238 7.70933 40.5011 7.304C40.7891 6.89867 41.1945 6.57867 41.7171 6.344C42.2505 6.10933 42.8745 5.992 43.5891 5.992C44.6451 5.992 45.4878 6.25867 46.1171 6.792C46.7465 7.31467 47.0931 8.024 47.1571 8.92H45.0131C44.9811 8.568 44.8318 8.29067 44.5651 8.088C44.3091 7.87467 43.9625 7.768 43.5251 7.768C43.1198 7.768 42.8051 7.84267 42.5811 7.992C42.3678 8.14133 42.2611 8.34933 42.2611 8.616C42.2611 8.91467 42.4105 9.144 42.7091 9.304C43.0078 9.45333 43.4718 9.608 44.1011 9.768C44.7411 9.928 45.2691 10.0933 45.6851 10.264C46.1011 10.4347 46.4585 10.7013 46.7571 11.064C47.0665 11.416 47.2265 11.8853 47.2371 12.472C47.2371 12.984 47.0931 13.4427 46.8051 13.848C46.5278 14.2533 46.1225 14.5733 45.5891 14.808C45.0665 15.032 44.4531 15.144 43.7491 15.144ZM51.8439 7.976V12.264C51.8439 12.5627 51.9132 12.7813 52.0519 12.92C52.2012 13.048 52.4465 13.112 52.7879 13.112H53.8279V15H52.4199C50.5319 15 49.5879 14.0827 49.5879 12.248V7.976H48.5319V6.136H49.5879V3.944H51.8439V6.136H53.8279V7.976H51.8439ZM56.735 5.08C56.3403 5.08 56.0097 4.95733 55.743 4.712C55.487 4.456 55.359 4.14133 55.359 3.768C55.359 3.39467 55.487 3.08533 55.743 2.84C56.0097 2.584 56.3403 2.456 56.735 2.456C57.1297 2.456 57.455 2.584 57.711 2.84C57.9777 3.08533 58.111 3.39467 58.111 3.768C58.111 4.14133 57.9777 4.456 57.711 4.712C57.455 4.95733 57.1297 5.08 56.735 5.08ZM57.839 6.136V15H55.599V6.136H57.839ZM59.6361 10.568C59.6361 9.65067 59.8228 8.85067 60.1961 8.168C60.5695 7.47467 61.0868 6.94133 61.7481 6.568C62.4095 6.184 63.1668 5.992 64.0201 5.992C65.1188 5.992 66.0255 6.26933 66.7401 6.824C67.4655 7.368 67.9508 8.136 68.1961 9.128H65.7801C65.6521 8.744 65.4335 8.44533 65.1241 8.232C64.8255 8.008 64.4521 7.896 64.0041 7.896C63.3641 7.896 62.8575 8.13067 62.4841 8.6C62.1108 9.05867 61.9241 9.71467 61.9241 10.568C61.9241 11.4107 62.1108 12.0667 62.4841 12.536C62.8575 12.9947 63.3641 13.224 64.0041 13.224C64.9108 13.224 65.5028 12.8187 65.7801 12.008H68.1961C67.9508 12.968 67.4655 13.7307 66.7401 14.296C66.0148 14.8613 65.1081 15.144 64.0201 15.144C63.1668 15.144 62.4095 14.9573 61.7481 14.584C61.0868 14.2 60.5695 13.6667 60.1961 12.984C59.8228 12.2907 59.6361 11.4853 59.6361 10.568ZM73.3891 15.144C72.6638 15.144 72.0131 15.016 71.4371 14.76C70.8611 14.4933 70.4025 14.136 70.0611 13.688C69.7305 13.24 69.5491 12.744 69.5171 12.2H71.7731C71.8158 12.5413 71.9811 12.824 72.2691 13.048C72.5678 13.272 72.9358 13.384 73.3731 13.384C73.7998 13.384 74.1305 13.2987 74.3651 13.128C74.6105 12.9573 74.7331 12.7387 74.7331 12.472C74.7331 12.184 74.5838 11.9707 74.2851 11.832C73.9971 11.6827 73.5331 11.5227 72.8931 11.352C72.2318 11.192 71.6878 11.0267 71.2611 10.856C70.8451 10.6853 70.4825 10.424 70.1731 10.072C69.8745 9.72 69.7251 9.24533 69.7251 8.648C69.7251 8.15733 69.8638 7.70933 70.1411 7.304C70.4291 6.89867 70.8345 6.57867 71.3571 6.344C71.8905 6.10933 72.5145 5.992 73.2291 5.992C74.2851 5.992 75.1278 6.25867 75.7571 6.792C76.3865 7.31467 76.7331 8.024 76.7971 8.92H74.6531C74.6211 8.568 74.4718 8.29067 74.2051 8.088C73.9491 7.87467 73.6025 7.768 73.1651 7.768C72.7598 7.768 72.4451 7.84267 72.2211 7.992C72.0078 8.14133 71.9011 8.34933 71.9011 8.616C71.9011 8.91467 72.0505 9.144 72.3491 9.304C72.6478 9.45333 73.1118 9.608 73.7411 9.768C74.3811 9.928 74.9091 10.0933 75.3251 10.264C75.7411 10.4347 76.0985 10.7013 76.3971 11.064C76.7065 11.416 76.8665 11.8853 76.8771 12.472C76.8771 12.984 76.7331 13.4427 76.4451 13.848C76.1678 14.2533 75.7625 14.5733 75.2291 14.808C74.7065 15.032 74.0931 15.144 73.3891 15.144Z" fill="#4A4754"/>
<rect x="0.75" y="0.75" width="352.5" height="310.5" stroke="white" stroke-width="0.5"/>
</svg>
